<svg width="32" height="32" viewBox="0 0 32 32" fill="none" xmlns="http://www.w3.org/2000/svg">
<circle opacity="0.05" cx="16" cy="16" r="16" fill="#1D92FF"/>
<path d="M13.8903 14.3528V11.6272C13.8903 10.6214 14.6175 9.80521 15.5135 9.80521C16.4095 9.80521 17.1367 10.6214 17.1367 11.6272V14.3528C17.9223 13.7625 18.4352 12.7641 18.4352 11.6272C18.4352 9.8125 17.1302 8.34766 15.5135 8.34766C13.8968 8.34766 12.5917 9.8125 12.5917 11.6272C12.5917 12.7641 13.1047 13.7625 13.8903 14.3528ZM20.2792 17.727L17.3314 16.08C17.2211 16.029 17.1042 15.9998 16.9808 15.9998H16.4874V11.6272C16.4874 11.0223 16.0524 10.534 15.5135 10.534C14.9746 10.534 14.5396 11.0223 14.5396 11.6272V19.4542L12.3125 18.9295C12.2606 18.9222 12.2151 18.9077 12.1567 18.9077C11.9554 18.9077 11.7736 19.0024 11.6438 19.1482L11.1309 19.7312L14.3383 23.3313C14.5136 23.5281 14.7603 23.652 15.0265 23.652H19.4351C19.922 23.652 20.2986 23.2512 20.37 22.7192L20.857 18.8785C20.8635 18.8275 20.87 18.7765 20.87 18.7327C20.87 18.2809 20.6233 17.8874 20.2792 17.727Z" fill="#1D92FF"/>
</svg>
