<svg width="472" height="50" viewBox="0 0 472 50" fill="none" xmlns="http://www.w3.org/2000/svg">
<rect width="472" height="50" rx="5" fill="white"/>
<rect x="0.5" y="0.5" width="471" height="49" rx="4.5" stroke="#01070D" stroke-opacity="0.1"/>
<path opacity="0.5" d="M22.688 29.816H26.592V31H21.232V19.848H22.688V29.816ZM31.9623 31.144C31.1409 31.144 30.3943 30.9573 29.7223 30.584C29.0609 30.2107 28.5383 29.6827 28.1543 29C27.7809 28.3067 27.5943 27.5067 27.5943 26.6C27.5943 25.704 27.7863 24.9147 28.1703 24.232C28.5649 23.5387 29.0983 23.0107 29.7703 22.648C30.4423 22.2747 31.1943 22.088 32.0263 22.088C32.8583 22.088 33.6103 22.2747 34.2823 22.648C34.9543 23.0107 35.4823 23.5333 35.8663 24.216C36.2609 24.8987 36.4583 25.6933 36.4583 26.6C36.4583 27.5067 36.2556 28.3067 35.8503 29C35.4556 29.6827 34.9169 30.2107 34.2343 30.584C33.5516 30.9573 32.7943 31.144 31.9623 31.144ZM31.9623 29.864C32.4849 29.864 32.9756 29.7413 33.4343 29.496C33.8929 29.2507 34.2609 28.8827 34.5383 28.392C34.8263 27.9013 34.9703 27.304 34.9703 26.6C34.9703 25.896 34.8316 25.2987 34.5543 24.808C34.2769 24.3173 33.9143 23.9547 33.4663 23.72C33.0183 23.4747 32.5329 23.352 32.0103 23.352C31.4769 23.352 30.9863 23.4747 30.5383 23.72C30.1009 23.9547 29.7489 24.3173 29.4823 24.808C29.2156 25.2987 29.0823 25.896 29.0823 26.6C29.0823 27.3147 29.2103 27.9173 29.4663 28.408C29.7329 28.8987 30.0849 29.2667 30.5223 29.512C30.9596 29.7467 31.4396 29.864 31.9623 29.864ZM39.8286 23.656C40.0846 23.1547 40.4473 22.7653 40.9166 22.488C41.3966 22.2107 41.978 22.072 42.6606 22.072V23.576H42.2766C40.6446 23.576 39.8286 24.4613 39.8286 26.232V31H38.3726V22.232H39.8286V23.656ZM52.3414 26.28C52.3414 26.5573 52.3254 26.8507 52.2934 27.16H45.2854C45.3387 28.024 45.632 28.7013 46.1654 29.192C46.7094 29.672 47.3654 29.912 48.1334 29.912C48.7627 29.912 49.2854 29.768 49.7014 29.48C50.128 29.1813 50.4267 28.7867 50.5974 28.296H52.1654C51.9307 29.1387 51.4614 29.8267 50.7574 30.36C50.0534 30.8827 49.1787 31.144 48.1334 31.144C47.3014 31.144 46.5547 30.9573 45.8934 30.584C45.2427 30.2107 44.7307 29.6827 44.3574 29C43.984 28.3067 43.7974 27.5067 43.7974 26.6C43.7974 25.6933 43.9787 24.8987 44.3414 24.216C44.704 23.5333 45.2107 23.0107 45.8614 22.648C46.5227 22.2747 47.28 22.088 48.1334 22.088C48.9654 22.088 49.7014 22.2693 50.3414 22.632C50.9814 22.9947 51.472 23.496 51.8134 24.136C52.1654 24.7653 52.3414 25.48 52.3414 26.28ZM50.8374 25.976C50.8374 25.4213 50.7147 24.9467 50.4694 24.552C50.224 24.1467 49.888 23.8427 49.4614 23.64C49.0454 23.4267 48.5814 23.32 48.0694 23.32C47.3334 23.32 46.704 23.5547 46.1814 24.024C45.6694 24.4933 45.376 25.144 45.3014 25.976H50.8374ZM64.8073 22.072C65.4899 22.072 66.0979 22.216 66.6313 22.504C67.1646 22.7813 67.5859 23.2027 67.8953 23.768C68.2046 24.3333 68.3593 25.0213 68.3593 25.832V31H66.9193V26.04C66.9193 25.1653 66.7006 24.4987 66.2633 24.04C65.8366 23.5707 65.2553 23.336 64.5193 23.336C63.7619 23.336 63.1593 23.5813 62.7113 24.072C62.2633 24.552 62.0393 25.2507 62.0393 26.168V31H60.5993V26.04C60.5993 25.1653 60.3806 24.4987 59.9433 24.04C59.5166 23.5707 58.9353 23.336 58.1993 23.336C57.4419 23.336 56.8393 23.5813 56.3913 24.072C55.9433 24.552 55.7193 25.2507 55.7193 26.168V31H54.2633V22.232H55.7193V23.496C56.0073 23.0373 56.3913 22.6853 56.8713 22.44C57.3619 22.1947 57.9006 22.072 58.4873 22.072C59.2233 22.072 59.8739 22.2373 60.4393 22.568C61.0046 22.8987 61.4259 23.384 61.7033 24.024C61.9486 23.4053 62.3539 22.9253 62.9193 22.584C63.4846 22.2427 64.1139 22.072 64.8073 22.072ZM75.7653 20.808C75.4879 20.808 75.2533 20.712 75.0613 20.52C74.8693 20.328 74.7733 20.0933 74.7733 19.816C74.7733 19.5387 74.8693 19.304 75.0613 19.112C75.2533 18.92 75.4879 18.824 75.7653 18.824C76.0319 18.824 76.2559 18.92 76.4373 19.112C76.6293 19.304 76.7253 19.5387 76.7253 19.816C76.7253 20.0933 76.6293 20.328 76.4373 20.52C76.2559 20.712 76.0319 20.808 75.7653 20.808ZM76.4693 22.232V31H75.0133V22.232H76.4693ZM80.4068 23.848C80.6948 23.3467 81.1214 22.9307 81.6868 22.6C82.2628 22.2587 82.9294 22.088 83.6868 22.088C84.4654 22.088 85.1694 22.2747 85.7987 22.648C86.4387 23.0213 86.9401 23.5493 87.3028 24.232C87.6654 24.904 87.8468 25.688 87.8468 26.584C87.8468 27.4693 87.6654 28.2587 87.3028 28.952C86.9401 29.6453 86.4387 30.184 85.7987 30.568C85.1694 30.952 84.4654 31.144 83.6868 31.144C82.9401 31.144 82.2788 30.9787 81.7028 30.648C81.1374 30.3067 80.7054 29.8853 80.4068 29.384V35.16H78.9508V22.232H80.4068V23.848ZM86.3588 26.584C86.3588 25.9227 86.2254 25.3467 85.9588 24.856C85.6921 24.3653 85.3294 23.992 84.8708 23.736C84.4228 23.48 83.9268 23.352 83.3828 23.352C82.8494 23.352 82.3534 23.4853 81.8948 23.752C81.4468 24.008 81.0841 24.3867 80.8068 24.888C80.5401 25.3787 80.4068 25.9493 80.4068 26.6C80.4068 27.2613 80.5401 27.8427 80.8068 28.344C81.0841 28.8347 81.4468 29.2133 81.8948 29.48C82.3534 29.736 82.8494 29.864 83.3828 29.864C83.9268 29.864 84.4228 29.736 84.8708 29.48C85.3294 29.2133 85.6921 28.8347 85.9588 28.344C86.2254 27.8427 86.3588 27.256 86.3588 26.584ZM92.8673 31.144C92.1953 31.144 91.5926 31.032 91.0593 30.808C90.5259 30.5733 90.1046 30.2533 89.7953 29.848C89.4859 29.432 89.3153 28.9573 89.2833 28.424H90.7873C90.8299 28.8613 91.0326 29.2187 91.3953 29.496C91.7686 29.7733 92.2539 29.912 92.8513 29.912C93.4059 29.912 93.8433 29.7893 94.1633 29.544C94.4833 29.2987 94.6433 28.9893 94.6433 28.616C94.6433 28.232 94.4726 27.9493 94.1313 27.768C93.7899 27.576 93.2619 27.3893 92.5473 27.208C91.8966 27.0373 91.3633 26.8667 90.9473 26.696C90.5419 26.5147 90.1899 26.2533 89.8913 25.912C89.6033 25.56 89.4593 25.1013 89.4593 24.536C89.4593 24.088 89.5926 23.6773 89.8593 23.304C90.1259 22.9307 90.5046 22.6373 90.9953 22.424C91.4859 22.2 92.0459 22.088 92.6753 22.088C93.6459 22.088 94.4299 22.3333 95.0273 22.824C95.6246 23.3147 95.9446 23.9867 95.9873 24.84H94.5313C94.4993 24.3813 94.3126 24.0133 93.9713 23.736C93.6406 23.4587 93.1926 23.32 92.6273 23.32C92.1046 23.32 91.6886 23.432 91.3793 23.656C91.0699 23.88 90.9153 24.1733 90.9153 24.536C90.9153 24.824 91.0059 25.064 91.1873 25.256C91.3793 25.4373 91.6139 25.5867 91.8913 25.704C92.1793 25.8107 92.5739 25.9333 93.0753 26.072C93.7046 26.2427 94.2166 26.4133 94.6113 26.584C95.0059 26.744 95.3419 26.9893 95.6193 27.32C95.9073 27.6507 96.0566 28.0827 96.0673 28.616C96.0673 29.096 95.9339 29.528 95.6673 29.912C95.4006 30.296 95.0219 30.6 94.5313 30.824C94.0513 31.0373 93.4966 31.144 92.8673 31.144ZM105.899 22.232V31H104.443V29.704C104.165 30.152 103.776 30.504 103.275 30.76C102.784 31.0053 102.24 31.128 101.643 31.128C100.96 31.128 100.347 30.9893 99.8026 30.712C99.2586 30.424 98.8266 29.9973 98.5066 29.432C98.1973 28.8667 98.0426 28.1787 98.0426 27.368V22.232H99.4826V27.176C99.4826 28.04 99.7013 28.7067 100.139 29.176C100.576 29.6347 101.173 29.864 101.931 29.864C102.709 29.864 103.323 29.624 103.771 29.144C104.219 28.664 104.443 27.9653 104.443 27.048V22.232H105.899ZM118.901 22.072C119.584 22.072 120.192 22.216 120.725 22.504C121.258 22.7813 121.68 23.2027 121.989 23.768C122.298 24.3333 122.453 25.0213 122.453 25.832V31H121.013V26.04C121.013 25.1653 120.794 24.4987 120.357 24.04C119.93 23.5707 119.349 23.336 118.613 23.336C117.856 23.336 117.253 23.5813 116.805 24.072C116.357 24.552 116.133 25.2507 116.133 26.168V31H114.693V26.04C114.693 25.1653 114.474 24.4987 114.037 24.04C113.61 23.5707 113.029 23.336 112.293 23.336C111.536 23.336 110.933 23.5813 110.485 24.072C110.037 24.552 109.813 25.2507 109.813 26.168V31H108.357V22.232H109.813V23.496C110.101 23.0373 110.485 22.6853 110.965 22.44C111.456 22.1947 111.994 22.072 112.581 22.072C113.317 22.072 113.968 22.2373 114.533 22.568C115.098 22.8987 115.52 23.384 115.797 24.024C116.042 23.4053 116.448 22.9253 117.013 22.584C117.578 22.2427 118.208 22.072 118.901 22.072ZM128.563 26.584C128.563 25.688 128.744 24.904 129.107 24.232C129.47 23.5493 129.966 23.0213 130.595 22.648C131.235 22.2747 131.95 22.088 132.739 22.088C133.422 22.088 134.056 22.248 134.643 22.568C135.23 22.8773 135.678 23.288 135.987 23.8V19.16H137.459V31H135.987V29.352C135.699 29.8747 135.272 30.3067 134.707 30.648C134.142 30.9787 133.48 31.144 132.723 31.144C131.944 31.144 131.235 30.952 130.595 30.568C129.966 30.184 129.47 29.6453 129.107 28.952C128.744 28.2587 128.563 27.4693 128.563 26.584ZM135.987 26.6C135.987 25.9387 135.854 25.3627 135.587 24.872C135.32 24.3813 134.958 24.008 134.499 23.752C134.051 23.4853 133.555 23.352 133.011 23.352C132.467 23.352 131.971 23.48 131.523 23.736C131.075 23.992 130.718 24.3653 130.451 24.856C130.184 25.3467 130.051 25.9227 130.051 26.584C130.051 27.256 130.184 27.8427 130.451 28.344C130.718 28.8347 131.075 29.2133 131.523 29.48C131.971 29.736 132.467 29.864 133.011 29.864C133.555 29.864 134.051 29.736 134.499 29.48C134.958 29.2133 135.32 28.8347 135.587 28.344C135.854 27.8427 135.987 27.2613 135.987 26.6ZM143.744 31.144C142.922 31.144 142.176 30.9573 141.504 30.584C140.842 30.2107 140.32 29.6827 139.936 29C139.562 28.3067 139.376 27.5067 139.376 26.6C139.376 25.704 139.568 24.9147 139.952 24.232C140.346 23.5387 140.88 23.0107 141.552 22.648C142.224 22.2747 142.976 22.088 143.808 22.088C144.64 22.088 145.392 22.2747 146.064 22.648C146.736 23.0107 147.264 23.5333 147.648 24.216C148.042 24.8987 148.24 25.6933 148.24 26.6C148.24 27.5067 148.037 28.3067 147.632 29C147.237 29.6827 146.698 30.2107 146.016 30.584C145.333 30.9573 144.576 31.144 143.744 31.144ZM143.744 29.864C144.266 29.864 144.757 29.7413 145.216 29.496C145.674 29.2507 146.042 28.8827 146.32 28.392C146.608 27.9013 146.752 27.304 146.752 26.6C146.752 25.896 146.613 25.2987 146.336 24.808C146.058 24.3173 145.696 23.9547 145.248 23.72C144.8 23.4747 144.314 23.352 143.792 23.352C143.258 23.352 142.768 23.4747 142.32 23.72C141.882 23.9547 141.53 24.3173 141.264 24.808C140.997 25.2987 140.864 25.896 140.864 26.6C140.864 27.3147 140.992 27.9173 141.248 28.408C141.514 28.8987 141.866 29.2667 142.304 29.512C142.741 29.7467 143.221 29.864 143.744 29.864ZM151.61 19.16V31H150.154V19.16H151.61ZM157.915 31.144C157.094 31.144 156.347 30.9573 155.675 30.584C155.014 30.2107 154.491 29.6827 154.107 29C153.734 28.3067 153.547 27.5067 153.547 26.6C153.547 25.704 153.739 24.9147 154.123 24.232C154.518 23.5387 155.051 23.0107 155.723 22.648C156.395 22.2747 157.147 22.088 157.979 22.088C158.811 22.088 159.563 22.2747 160.235 22.648C160.907 23.0107 161.435 23.5333 161.819 24.216C162.214 24.8987 162.411 25.6933 162.411 26.6C162.411 27.5067 162.209 28.3067 161.803 29C161.409 29.6827 160.87 30.2107 160.187 30.584C159.505 30.9573 158.747 31.144 157.915 31.144ZM157.915 29.864C158.438 29.864 158.929 29.7413 159.387 29.496C159.846 29.2507 160.214 28.8827 160.491 28.392C160.779 27.9013 160.923 27.304 160.923 26.6C160.923 25.896 160.785 25.2987 160.507 24.808C160.23 24.3173 159.867 23.9547 159.419 23.72C158.971 23.4747 158.486 23.352 157.963 23.352C157.43 23.352 156.939 23.4747 156.491 23.72C156.054 23.9547 155.702 24.3173 155.435 24.808C155.169 25.2987 155.035 25.896 155.035 26.6C155.035 27.3147 155.163 27.9173 155.419 28.408C155.686 28.8987 156.038 29.2667 156.475 29.512C156.913 29.7467 157.393 29.864 157.915 29.864ZM165.782 23.656C166.038 23.1547 166.4 22.7653 166.87 22.488C167.35 22.2107 167.931 22.072 168.614 22.072V23.576H168.23C166.598 23.576 165.782 24.4613 165.782 26.232V31H164.326V22.232H165.782V23.656ZM177.664 31.144C176.992 31.144 176.389 31.032 175.856 30.808C175.323 30.5733 174.901 30.2533 174.592 29.848C174.283 29.432 174.112 28.9573 174.08 28.424H175.584C175.627 28.8613 175.829 29.2187 176.192 29.496C176.565 29.7733 177.051 29.912 177.648 29.912C178.203 29.912 178.64 29.7893 178.96 29.544C179.28 29.2987 179.44 28.9893 179.44 28.616C179.44 28.232 179.269 27.9493 178.928 27.768C178.587 27.576 178.059 27.3893 177.344 27.208C176.693 27.0373 176.16 26.8667 175.744 26.696C175.339 26.5147 174.987 26.2533 174.688 25.912C174.4 25.56 174.256 25.1013 174.256 24.536C174.256 24.088 174.389 23.6773 174.656 23.304C174.923 22.9307 175.301 22.6373 175.792 22.424C176.283 22.2 176.843 22.088 177.472 22.088C178.443 22.088 179.227 22.3333 179.824 22.824C180.421 23.3147 180.741 23.9867 180.784 24.84H179.328C179.296 24.3813 179.109 24.0133 178.768 23.736C178.437 23.4587 177.989 23.32 177.424 23.32C176.901 23.32 176.485 23.432 176.176 23.656C175.867 23.88 175.712 24.1733 175.712 24.536C175.712 24.824 175.803 25.064 175.984 25.256C176.176 25.4373 176.411 25.5867 176.688 25.704C176.976 25.8107 177.371 25.9333 177.872 26.072C178.501 26.2427 179.013 26.4133 179.408 26.584C179.803 26.744 180.139 26.9893 180.416 27.32C180.704 27.6507 180.853 28.0827 180.864 28.616C180.864 29.096 180.731 29.528 180.464 29.912C180.197 30.296 179.819 30.6 179.328 30.824C178.848 31.0373 178.293 31.144 177.664 31.144ZM183.672 20.808C183.394 20.808 183.16 20.712 182.968 20.52C182.776 20.328 182.68 20.0933 182.68 19.816C182.68 19.5387 182.776 19.304 182.968 19.112C183.16 18.92 183.394 18.824 183.672 18.824C183.938 18.824 184.162 18.92 184.344 19.112C184.536 19.304 184.632 19.5387 184.632 19.816C184.632 20.0933 184.536 20.328 184.344 20.52C184.162 20.712 183.938 20.808 183.672 20.808ZM184.376 22.232V31H182.92V22.232H184.376ZM188.633 23.432V28.6C188.633 29.0267 188.724 29.3307 188.905 29.512C189.086 29.6827 189.401 29.768 189.849 29.768H190.921V31H189.609C188.798 31 188.19 30.8133 187.785 30.44C187.38 30.0667 187.177 29.4533 187.177 28.6V23.432H186.041V22.232H187.177V20.024H188.633V22.232H190.921V23.432H188.633ZM196.407 26.584C196.407 25.688 196.588 24.904 196.951 24.232C197.313 23.5493 197.809 23.0213 198.439 22.648C199.079 22.2747 199.788 22.088 200.567 22.088C201.335 22.088 202.001 22.2533 202.567 22.584C203.132 22.9147 203.553 23.3307 203.831 23.832V22.232H205.303V31H203.831V29.368C203.543 29.88 203.111 30.3067 202.535 30.648C201.969 30.9787 201.308 31.144 200.551 31.144C199.772 31.144 199.068 30.952 198.439 30.568C197.809 30.184 197.313 29.6453 196.951 28.952C196.588 28.2587 196.407 27.4693 196.407 26.584ZM203.831 26.6C203.831 25.9387 203.697 25.3627 203.431 24.872C203.164 24.3813 202.801 24.008 202.343 23.752C201.895 23.4853 201.399 23.352 200.855 23.352C200.311 23.352 199.815 23.48 199.367 23.736C198.919 23.992 198.561 24.3653 198.295 24.856C198.028 25.3467 197.895 25.9227 197.895 26.584C197.895 27.256 198.028 27.8427 198.295 28.344C198.561 28.8347 198.919 29.2133 199.367 29.48C199.815 29.736 200.311 29.864 200.855 29.864C201.399 29.864 201.895 29.736 202.343 29.48C202.801 29.2133 203.164 28.8347 203.431 28.344C203.697 27.8427 203.831 27.2613 203.831 26.6ZM218.307 22.072C218.99 22.072 219.598 22.216 220.131 22.504C220.665 22.7813 221.086 23.2027 221.395 23.768C221.705 24.3333 221.859 25.0213 221.859 25.832V31H220.419V26.04C220.419 25.1653 220.201 24.4987 219.763 24.04C219.337 23.5707 218.755 23.336 218.019 23.336C217.262 23.336 216.659 23.5813 216.211 24.072C215.763 24.552 215.539 25.2507 215.539 26.168V31H214.099V26.04C214.099 25.1653 213.881 24.4987 213.443 24.04C213.017 23.5707 212.435 23.336 211.699 23.336C210.942 23.336 210.339 23.5813 209.891 24.072C209.443 24.552 209.219 25.2507 209.219 26.168V31H207.763V22.232H209.219V23.496C209.507 23.0373 209.891 22.6853 210.371 22.44C210.862 22.1947 211.401 22.072 211.987 22.072C212.723 22.072 213.374 22.2373 213.939 22.568C214.505 22.8987 214.926 23.384 215.203 24.024C215.449 23.4053 215.854 22.9253 216.419 22.584C216.985 22.2427 217.614 22.072 218.307 22.072ZM232.248 26.28C232.248 26.5573 232.232 26.8507 232.2 27.16H225.192C225.245 28.024 225.538 28.7013 226.072 29.192C226.616 29.672 227.272 29.912 228.04 29.912C228.669 29.912 229.192 29.768 229.608 29.48C230.034 29.1813 230.333 28.7867 230.504 28.296H232.072C231.837 29.1387 231.368 29.8267 230.664 30.36C229.96 30.8827 229.085 31.144 228.04 31.144C227.208 31.144 226.461 30.9573 225.8 30.584C225.149 30.2107 224.637 29.6827 224.264 29C223.89 28.3067 223.704 27.5067 223.704 26.6C223.704 25.6933 223.885 24.8987 224.248 24.216C224.61 23.5333 225.117 23.0107 225.768 22.648C226.429 22.2747 227.186 22.088 228.04 22.088C228.872 22.088 229.608 22.2693 230.248 22.632C230.888 22.9947 231.378 23.496 231.72 24.136C232.072 24.7653 232.248 25.48 232.248 26.28ZM230.744 25.976C230.744 25.4213 230.621 24.9467 230.376 24.552C230.13 24.1467 229.794 23.8427 229.368 23.64C228.952 23.4267 228.488 23.32 227.976 23.32C227.24 23.32 226.61 23.5547 226.088 24.024C225.576 24.4933 225.282 25.144 225.208 25.976H230.744ZM235.946 23.432V28.6C235.946 29.0267 236.036 29.3307 236.218 29.512C236.399 29.6827 236.714 29.768 237.161 29.768H238.234V31H236.922C236.111 31 235.503 30.8133 235.098 30.44C234.692 30.0667 234.49 29.4533 234.49 28.6V23.432H233.354V22.232H234.49V20.024H235.946V22.232H238.234V23.432H235.946ZM243.719 26.6C243.719 25.6933 243.901 24.904 244.263 24.232C244.626 23.5493 245.127 23.0213 245.767 22.648C246.418 22.2747 247.159 22.088 247.991 22.088C249.069 22.088 249.954 22.3493 250.647 22.872C251.351 23.3947 251.815 24.12 252.039 25.048H250.471C250.322 24.5147 250.029 24.0933 249.591 23.784C249.165 23.4747 248.631 23.32 247.991 23.32C247.159 23.32 246.487 23.608 245.975 24.184C245.463 24.7493 245.207 25.5547 245.207 26.6C245.207 27.656 245.463 28.472 245.975 29.048C246.487 29.624 247.159 29.912 247.991 29.912C248.631 29.912 249.165 29.7627 249.591 29.464C250.018 29.1653 250.311 28.7387 250.471 28.184H252.039C251.805 29.08 251.335 29.8 250.631 30.344C249.927 30.8773 249.047 31.144 247.991 31.144C247.159 31.144 246.418 30.9573 245.767 30.584C245.127 30.2107 244.626 29.6827 244.263 29C243.901 28.3173 243.719 27.5173 243.719 26.6ZM257.806 31.144C256.985 31.144 256.238 30.9573 255.566 30.584C254.905 30.2107 254.382 29.6827 253.998 29C253.625 28.3067 253.438 27.5067 253.438 26.6C253.438 25.704 253.63 24.9147 254.014 24.232C254.409 23.5387 254.942 23.0107 255.614 22.648C256.286 22.2747 257.038 22.088 257.87 22.088C258.702 22.088 259.454 22.2747 260.126 22.648C260.798 23.0107 261.326 23.5333 261.71 24.216C262.105 24.8987 262.302 25.6933 262.302 26.6C262.302 27.5067 262.099 28.3067 261.694 29C261.299 29.6827 260.761 30.2107 260.078 30.584C259.395 30.9573 258.638 31.144 257.806 31.144ZM257.806 29.864C258.329 29.864 258.819 29.7413 259.278 29.496C259.737 29.2507 260.105 28.8827 260.382 28.392C260.67 27.9013 260.814 27.304 260.814 26.6C260.814 25.896 260.675 25.2987 260.398 24.808C260.121 24.3173 259.758 23.9547 259.31 23.72C258.862 23.4747 258.377 23.352 257.854 23.352C257.321 23.352 256.83 23.4747 256.382 23.72C255.945 23.9547 255.593 24.3173 255.326 24.808C255.059 25.2987 254.926 25.896 254.926 26.6C254.926 27.3147 255.054 27.9173 255.31 28.408C255.577 28.8987 255.929 29.2667 256.366 29.512C256.803 29.7467 257.283 29.864 257.806 29.864ZM268.488 22.072C269.555 22.072 270.419 22.3973 271.08 23.048C271.742 23.688 272.072 24.616 272.072 25.832V31H270.632V26.04C270.632 25.1653 270.414 24.4987 269.976 24.04C269.539 23.5707 268.942 23.336 268.184 23.336C267.416 23.336 266.803 23.576 266.344 24.056C265.896 24.536 265.672 25.2347 265.672 26.152V31H264.216V22.232H265.672V23.48C265.96 23.032 266.35 22.6853 266.84 22.44C267.342 22.1947 267.891 22.072 268.488 22.072ZM277.555 31.144C276.883 31.144 276.28 31.032 275.747 30.808C275.213 30.5733 274.792 30.2533 274.483 29.848C274.173 29.432 274.003 28.9573 273.971 28.424H275.475C275.517 28.8613 275.72 29.2187 276.083 29.496C276.456 29.7733 276.941 29.912 277.539 29.912C278.093 29.912 278.531 29.7893 278.851 29.544C279.171 29.2987 279.331 28.9893 279.331 28.616C279.331 28.232 279.16 27.9493 278.819 27.768C278.477 27.576 277.949 27.3893 277.235 27.208C276.584 27.0373 276.051 26.8667 275.635 26.696C275.229 26.5147 274.877 26.2533 274.579 25.912C274.291 25.56 274.147 25.1013 274.147 24.536C274.147 24.088 274.28 23.6773 274.547 23.304C274.813 22.9307 275.192 22.6373 275.683 22.424C276.173 22.2 276.733 22.088 277.363 22.088C278.333 22.088 279.117 22.3333 279.715 22.824C280.312 23.3147 280.632 23.9867 280.675 24.84H279.219C279.187 24.3813 279 24.0133 278.659 23.736C278.328 23.4587 277.88 23.32 277.315 23.32C276.792 23.32 276.376 23.432 276.067 23.656C275.757 23.88 275.603 24.1733 275.603 24.536C275.603 24.824 275.693 25.064 275.875 25.256C276.067 25.4373 276.301 25.5867 276.579 25.704C276.867 25.8107 277.261 25.9333 277.763 26.072C278.392 26.2427 278.904 26.4133 279.299 26.584C279.693 26.744 280.029 26.9893 280.307 27.32C280.595 27.6507 280.744 28.0827 280.755 28.616C280.755 29.096 280.621 29.528 280.355 29.912C280.088 30.296 279.709 30.6 279.219 30.824C278.739 31.0373 278.184 31.144 277.555 31.144ZM290.81 26.28C290.81 26.5573 290.794 26.8507 290.762 27.16H283.754C283.807 28.024 284.101 28.7013 284.634 29.192C285.178 29.672 285.834 29.912 286.602 29.912C287.231 29.912 287.754 29.768 288.17 29.48C288.597 29.1813 288.895 28.7867 289.066 28.296H290.634C290.399 29.1387 289.93 29.8267 289.226 30.36C288.522 30.8827 287.647 31.144 286.602 31.144C285.77 31.144 285.023 30.9573 284.362 30.584C283.711 30.2107 283.199 29.6827 282.826 29C282.453 28.3067 282.266 27.5067 282.266 26.6C282.266 25.6933 282.447 24.8987 282.81 24.216C283.173 23.5333 283.679 23.0107 284.33 22.648C284.991 22.2747 285.749 22.088 286.602 22.088C287.434 22.088 288.17 22.2693 288.81 22.632C289.45 22.9947 289.941 23.496 290.282 24.136C290.634 24.7653 290.81 25.48 290.81 26.28ZM289.306 25.976C289.306 25.4213 289.183 24.9467 288.938 24.552C288.693 24.1467 288.357 23.8427 287.93 23.64C287.514 23.4267 287.05 23.32 286.538 23.32C285.802 23.32 285.173 23.5547 284.65 24.024C284.138 24.4933 283.845 25.144 283.77 25.976H289.306ZM292.188 26.6C292.188 25.6933 292.369 24.904 292.732 24.232C293.095 23.5493 293.596 23.0213 294.236 22.648C294.887 22.2747 295.628 22.088 296.46 22.088C297.537 22.088 298.423 22.3493 299.116 22.872C299.82 23.3947 300.284 24.12 300.508 25.048H298.94C298.791 24.5147 298.497 24.0933 298.06 23.784C297.633 23.4747 297.1 23.32 296.46 23.32C295.628 23.32 294.956 23.608 294.444 24.184C293.932 24.7493 293.676 25.5547 293.676 26.6C293.676 27.656 293.932 28.472 294.444 29.048C294.956 29.624 295.628 29.912 296.46 29.912C297.1 29.912 297.633 29.7627 298.06 29.464C298.487 29.1653 298.78 28.7387 298.94 28.184H300.508C300.273 29.08 299.804 29.8 299.1 30.344C298.396 30.8773 297.516 31.144 296.46 31.144C295.628 31.144 294.887 30.9573 294.236 30.584C293.596 30.2107 293.095 29.6827 292.732 29C292.369 28.3173 292.188 27.5173 292.188 26.6ZM304.227 23.432V28.6C304.227 29.0267 304.317 29.3307 304.499 29.512C304.68 29.6827 304.995 29.768 305.443 29.768H306.515V31H305.203C304.392 31 303.784 30.8133 303.379 30.44C302.973 30.0667 302.771 29.4533 302.771 28.6V23.432H301.635V22.232H302.771V20.024H304.227V22.232H306.515V23.432H304.227ZM316.279 26.28C316.279 26.5573 316.263 26.8507 316.231 27.16H309.223C309.276 28.024 309.57 28.7013 310.103 29.192C310.647 29.672 311.303 29.912 312.071 29.912C312.7 29.912 313.223 29.768 313.639 29.48C314.066 29.1813 314.364 28.7867 314.535 28.296H316.103C315.868 29.1387 315.399 29.8267 314.695 30.36C313.991 30.8827 313.116 31.144 312.071 31.144C311.239 31.144 310.492 30.9573 309.831 30.584C309.18 30.2107 308.668 29.6827 308.295 29C307.922 28.3067 307.735 27.5067 307.735 26.6C307.735 25.6933 307.916 24.8987 308.279 24.216C308.642 23.5333 309.148 23.0107 309.799 22.648C310.46 22.2747 311.218 22.088 312.071 22.088C312.903 22.088 313.639 22.2693 314.279 22.632C314.919 22.9947 315.41 23.496 315.751 24.136C316.103 24.7653 316.279 25.48 316.279 26.28ZM314.775 25.976C314.775 25.4213 314.652 24.9467 314.407 24.552C314.162 24.1467 313.826 23.8427 313.399 23.64C312.983 23.4267 312.519 23.32 312.007 23.32C311.271 23.32 310.642 23.5547 310.119 24.024C309.607 24.4933 309.314 25.144 309.239 25.976H314.775ZM319.977 23.432V28.6C319.977 29.0267 320.067 29.3307 320.249 29.512C320.43 29.6827 320.745 29.768 321.193 29.768H322.265V31H320.953C320.142 31 319.534 30.8133 319.129 30.44C318.723 30.0667 318.521 29.4533 318.521 28.6V23.432H317.385V22.232H318.521V20.024H319.977V22.232H322.265V23.432H319.977ZM331.805 22.232V31H330.349V29.704C330.072 30.152 329.682 30.504 329.181 30.76C328.69 31.0053 328.146 31.128 327.549 31.128C326.866 31.128 326.253 30.9893 325.709 30.712C325.165 30.424 324.733 29.9973 324.413 29.432C324.104 28.8667 323.949 28.1787 323.949 27.368V22.232H325.389V27.176C325.389 28.04 325.608 28.7067 326.045 29.176C326.482 29.6347 327.08 29.864 327.837 29.864C328.616 29.864 329.229 29.624 329.677 29.144C330.125 28.664 330.349 27.9653 330.349 27.048V22.232H331.805ZM335.719 23.656C335.975 23.1547 336.338 22.7653 336.807 22.488C337.287 22.2107 337.869 22.072 338.551 22.072V23.576H338.167C336.535 23.576 335.719 24.4613 335.719 26.232V31H334.263V22.232H335.719V23.656ZM343.08 19.704C344.136 19.704 344.989 20.0027 345.64 20.6C346.291 21.1973 346.616 21.9973 346.616 23C346.616 24.12 346.269 24.952 345.576 25.496C344.883 26.0293 343.944 26.296 342.76 26.296L342.712 27.816H341.448L341.384 25.288H341.848C342.904 25.288 343.731 25.128 344.328 24.808C344.925 24.488 345.224 23.8853 345.224 23C345.224 22.36 345.032 21.8533 344.648 21.48C344.264 21.1067 343.747 20.92 343.096 20.92C342.435 20.92 341.912 21.1013 341.528 21.464C341.155 21.816 340.968 22.3013 340.968 22.92H339.592C339.592 22.28 339.736 21.72 340.024 21.24C340.312 20.7493 340.717 20.3707 341.24 20.104C341.773 19.8373 342.387 19.704 343.08 19.704ZM342.072 31.096C341.795 31.096 341.56 31 341.368 30.808C341.176 30.616 341.08 30.3813 341.08 30.104C341.08 29.8267 341.176 29.592 341.368 29.4C341.56 29.208 341.795 29.112 342.072 29.112C342.339 29.112 342.563 29.208 342.744 29.4C342.936 29.592 343.032 29.8267 343.032 30.104C343.032 30.3813 342.936 30.616 342.744 30.808C342.563 31 342.339 31.096 342.072 31.096Z" fill="#01070D"/>
<path d="M448 24L442 30L436 24" stroke="#808386" stroke-width="2" stroke-linecap="round" stroke-linejoin="round"/>
</svg>
