<svg width="90" height="89" viewBox="0 0 90 89" fill="none" xmlns="http://www.w3.org/2000/svg">
<path opacity="0.05" d="M48 2.09766L87.2352 46.6127L42.7202 85.8479L3.48499 41.3329L48 2.09766Z" fill="#1D92FF"/>
<path opacity="0.3" d="M47.6195 1.16874L87.9816 46.9623L42.188 87.3244L1.82589 41.5309L47.6195 1.16874Z" stroke="#002547" stroke-width="0.3"/>
<circle opacity="0.3" cx="47.5" cy="1.54883" r="1.5" fill="#002547"/>
<circle opacity="0.3" cx="42.3008" cy="87.249" r="1" fill="#002547"/>
<circle opacity="0.3" cx="1.5" cy="41.5488" r="1.5" fill="#002547"/>
<circle opacity="0.3" cx="88.5" cy="46.5488" r="1.5" fill="#002547"/>
<path d="M45.4987 38.765C42.8283 38.765 40.6654 40.9279 40.6654 43.5983C40.6654 46.2687 42.8283 48.4316 45.4987 48.4316C48.1691 48.4316 50.332 46.2687 50.332 43.5983C50.332 40.9279 48.1691 38.765 45.4987 38.765ZM56.3012 42.39C55.7454 37.3512 51.7458 33.3516 46.707 32.7958V30.3066H44.2904V32.7958C39.2516 33.3516 35.252 37.3512 34.6962 42.39H32.207V44.8066H34.6962C35.252 49.8454 39.2516 53.845 44.2904 54.4008V56.89H46.707V54.4008C51.7458 53.845 55.7454 49.8454 56.3012 44.8066H58.7904V42.39H56.3012ZM45.4987 52.0566C40.8224 52.0566 37.0404 48.2746 37.0404 43.5983C37.0404 38.9221 40.8224 35.14 45.4987 35.14C50.1749 35.14 53.957 38.9221 53.957 43.5983C53.957 48.2746 50.1749 52.0566 45.4987 52.0566Z" fill="#002547"/>
</svg>
