<svg width="90" height="89" viewBox="0 0 90 89" fill="none" xmlns="http://www.w3.org/2000/svg">
<path opacity="0.05" d="M48 2.09766L87.2352 46.6127L42.7202 85.8479L3.48499 41.3329L48 2.09766Z" fill="#1D92FF"/>
<path opacity="0.3" d="M47.6195 1.16874L87.9816 46.9623L42.188 87.3244L1.82589 41.5309L47.6195 1.16874Z" stroke="#002547" stroke-width="0.3"/>
<circle opacity="0.3" cx="47.5" cy="1.54883" r="1.5" fill="#002547"/>
<circle opacity="0.3" cx="42.3008" cy="87.249" r="1" fill="#002547"/>
<circle opacity="0.3" cx="1.5" cy="41.5488" r="1.5" fill="#002547"/>
<circle opacity="0.3" cx="88.5" cy="46.5488" r="1.5" fill="#002547"/>
<path d="M57.5846 37.4596L55.8809 35.7559L52.4371 39.6346C49.948 36.8313 46.5042 35.1396 42.6134 35.1396C39.1213 35.1396 35.9192 36.5413 33.418 38.7646L35.1338 40.4805C37.188 38.6801 39.7859 37.5563 42.6134 37.5563C45.9242 37.5563 48.7638 39.0788 50.7938 41.4713L47.3138 45.3863L42.4805 40.553L33.418 49.6276L35.2305 51.4401L42.4805 44.178L47.3138 49.0113L52.2076 43.5134C53.1138 45.1446 53.718 47.0176 53.9475 49.0113H56.3763C56.1105 46.2321 55.2284 43.7067 53.9113 41.5921L57.5846 37.4596Z" fill="#002547"/>
</svg>
