<svg width="243" height="161" viewBox="0 0 243 161" fill="none" xmlns="http://www.w3.org/2000/svg">
<path d="M37.688 13.4648C37.688 12.3768 37.9333 11.4008 38.424 10.5368C38.9147 9.66216 39.5813 8.97949 40.424 8.48883C41.2773 7.99816 42.2213 7.75283 43.256 7.75283C44.472 7.75283 45.5333 8.04616 46.44 8.63283C47.3467 9.21949 48.008 10.0515 48.424 11.1288H46.68C46.3707 10.4568 45.9227 9.93949 45.336 9.57683C44.76 9.21416 44.0667 9.03283 43.256 9.03283C42.4773 9.03283 41.7787 9.21416 41.16 9.57683C40.5413 9.93949 40.056 10.4568 39.704 11.1288C39.352 11.7902 39.176 12.5688 39.176 13.4648C39.176 14.3502 39.352 15.1288 39.704 15.8008C40.056 16.4622 40.5413 16.9742 41.16 17.3368C41.7787 17.6995 42.4773 17.8808 43.256 17.8808C44.0667 17.8808 44.76 17.7048 45.336 17.3528C45.9227 16.9902 46.3707 16.4728 46.68 15.8008H48.424C48.008 16.8675 47.3467 17.6942 46.44 18.2808C45.5333 18.8568 44.472 19.1448 43.256 19.1448C42.2213 19.1448 41.2773 18.9048 40.424 18.4248C39.5813 17.9342 38.9147 17.2568 38.424 16.3928C37.9333 15.5288 37.688 14.5528 37.688 13.4648ZM54.4154 19.1928C53.594 19.1928 52.8474 19.0062 52.1754 18.6328C51.514 18.2595 50.9914 17.7315 50.6074 17.0488C50.234 16.3555 50.0474 15.5555 50.0474 14.6488C50.0474 13.7528 50.2394 12.9635 50.6234 12.2808C51.018 11.5875 51.5514 11.0595 52.2234 10.6968C52.8954 10.3235 53.6474 10.1368 54.4794 10.1368C55.3114 10.1368 56.0634 10.3235 56.7354 10.6968C57.4074 11.0595 57.9354 11.5822 58.3194 12.2648C58.714 12.9475 58.9114 13.7422 58.9114 14.6488C58.9114 15.5555 58.7087 16.3555 58.3034 17.0488C57.9087 17.7315 57.37 18.2595 56.6874 18.6328C56.0047 19.0062 55.2474 19.1928 54.4154 19.1928ZM54.4154 17.9128C54.938 17.9128 55.4287 17.7902 55.8874 17.5448C56.346 17.2995 56.714 16.9315 56.9914 16.4408C57.2794 15.9502 57.4234 15.3528 57.4234 14.6488C57.4234 13.9448 57.2847 13.3475 57.0074 12.8568C56.73 12.3662 56.3674 12.0035 55.9194 11.7688C55.4714 11.5235 54.986 11.4008 54.4634 11.4008C53.93 11.4008 53.4394 11.5235 52.9914 11.7688C52.554 12.0035 52.202 12.3662 51.9354 12.8568C51.6687 13.3475 51.5354 13.9448 51.5354 14.6488C51.5354 15.3635 51.6634 15.9662 51.9194 16.4568C52.186 16.9475 52.538 17.3155 52.9754 17.5608C53.4127 17.7955 53.8927 17.9128 54.4154 17.9128ZM65.0978 10.1208C66.1644 10.1208 67.0284 10.4462 67.6898 11.0968C68.3511 11.7368 68.6818 12.6648 68.6818 13.8808V19.0488H67.2418V14.0888C67.2418 13.2142 67.0231 12.5475 66.5858 12.0888C66.1484 11.6195 65.5511 11.3848 64.7938 11.3848C64.0258 11.3848 63.4124 11.6248 62.9538 12.1048C62.5058 12.5848 62.2818 13.2835 62.2818 14.2008V19.0488H60.8258V10.2808H62.2818V11.5288C62.5698 11.0808 62.9591 10.7342 63.4498 10.4888C63.9511 10.2435 64.5004 10.1208 65.0978 10.1208ZM74.1641 19.1928C73.4921 19.1928 72.8895 19.0808 72.3561 18.8568C71.8228 18.6222 71.4015 18.3022 71.0921 17.8968C70.7828 17.4808 70.6121 17.0062 70.5801 16.4728H72.0841C72.1268 16.9102 72.3295 17.2675 72.6921 17.5448C73.0655 17.8222 73.5508 17.9608 74.1481 17.9608C74.7028 17.9608 75.1401 17.8382 75.4601 17.5928C75.7801 17.3475 75.9401 17.0382 75.9401 16.6648C75.9401 16.2808 75.7695 15.9982 75.4281 15.8168C75.0868 15.6248 74.5588 15.4382 73.8441 15.2568C73.1935 15.0862 72.6601 14.9155 72.2441 14.7448C71.8388 14.5635 71.4868 14.3022 71.1881 13.9608C70.9001 13.6088 70.7561 13.1502 70.7561 12.5848C70.7561 12.1368 70.8895 11.7262 71.1561 11.3528C71.4228 10.9795 71.8015 10.6862 72.2921 10.4728C72.7828 10.2488 73.3428 10.1368 73.9721 10.1368C74.9428 10.1368 75.7268 10.3822 76.3241 10.8728C76.9215 11.3635 77.2415 12.0355 77.2841 12.8888H75.8281C75.7961 12.4302 75.6095 12.0622 75.2681 11.7848C74.9375 11.5075 74.4895 11.3688 73.9241 11.3688C73.4015 11.3688 72.9855 11.4808 72.6761 11.7048C72.3668 11.9288 72.2121 12.2222 72.2121 12.5848C72.2121 12.8728 72.3028 13.1128 72.4841 13.3048C72.6761 13.4862 72.9108 13.6355 73.1881 13.7528C73.4761 13.8595 73.8708 13.9822 74.3721 14.1208C75.0015 14.2915 75.5135 14.4622 75.9081 14.6328C76.3028 14.7928 76.6388 15.0382 76.9161 15.3688C77.2041 15.6995 77.3535 16.1315 77.3641 16.6648C77.3641 17.1448 77.2308 17.5768 76.9641 17.9608C76.6975 18.3448 76.3188 18.6488 75.8281 18.8728C75.3481 19.0862 74.7935 19.1928 74.1641 19.1928ZM87.1955 10.2808V19.0488H85.7395V17.7528C85.4622 18.2008 85.0728 18.5528 84.5715 18.8088C84.0808 19.0542 83.5368 19.1768 82.9395 19.1768C82.2568 19.1768 81.6435 19.0382 81.0995 18.7608C80.5555 18.4728 80.1235 18.0462 79.8035 17.4808C79.4942 16.9155 79.3395 16.2275 79.3395 15.4168V10.2808H80.7795V15.2248C80.7795 16.0888 80.9982 16.7555 81.4355 17.2248C81.8728 17.6835 82.4702 17.9128 83.2275 17.9128C84.0062 17.9128 84.6195 17.6728 85.0675 17.1928C85.5155 16.7128 85.7395 16.0142 85.7395 15.0968V10.2808H87.1955ZM91.1099 7.20883V19.0488H89.6539V7.20883H91.1099ZM95.3674 11.4808V16.6488C95.3674 17.0755 95.458 17.3795 95.6394 17.5608C95.8207 17.7315 96.1354 17.8168 96.5834 17.8168H97.6554V19.0488H96.3434C95.5327 19.0488 94.9247 18.8622 94.5194 18.4888C94.114 18.1155 93.9114 17.5022 93.9114 16.6488V11.4808H92.7754V10.2808H93.9114V8.07283H95.3674V10.2808H97.6554V11.4808H95.3674ZM100.172 8.85683C99.8942 8.85683 99.6595 8.76083 99.4675 8.56883C99.2755 8.37683 99.1795 8.14216 99.1795 7.86483C99.1795 7.58749 99.2755 7.35283 99.4675 7.16083C99.6595 6.96883 99.8942 6.87283 100.172 6.87283C100.438 6.87283 100.662 6.96883 100.844 7.16083C101.036 7.35283 101.132 7.58749 101.132 7.86483C101.132 8.14216 101.036 8.37683 100.844 8.56883C100.662 8.76083 100.438 8.85683 100.172 8.85683ZM100.876 10.2808V19.0488H99.4195V10.2808H100.876ZM107.629 10.1208C108.696 10.1208 109.56 10.4462 110.221 11.0968C110.882 11.7368 111.213 12.6648 111.213 13.8808V19.0488H109.773V14.0888C109.773 13.2142 109.554 12.5475 109.117 12.0888C108.68 11.6195 108.082 11.3848 107.325 11.3848C106.557 11.3848 105.944 11.6248 105.485 12.1048C105.037 12.5848 104.813 13.2835 104.813 14.2008V19.0488H103.357V10.2808H104.813V11.5288C105.101 11.0808 105.49 10.7342 105.981 10.4888C106.482 10.2435 107.032 10.1208 107.629 10.1208ZM117.207 10.1368C117.965 10.1368 118.626 10.3022 119.191 10.6328C119.767 10.9635 120.194 11.3795 120.471 11.8808V10.2808H121.943V19.2408C121.943 20.0408 121.773 20.7502 121.431 21.3688C121.09 21.9982 120.599 22.4888 119.959 22.8408C119.33 23.1928 118.594 23.3688 117.751 23.3688C116.599 23.3688 115.639 23.0968 114.871 22.5528C114.103 22.0088 113.65 21.2675 113.511 20.3288H114.951C115.111 20.8622 115.442 21.2888 115.943 21.6088C116.445 21.9395 117.047 22.1048 117.751 22.1048C118.551 22.1048 119.202 21.8542 119.703 21.3528C120.215 20.8515 120.471 20.1475 120.471 19.2408V17.4008C120.183 17.9128 119.757 18.3395 119.191 18.6808C118.626 19.0222 117.965 19.1928 117.207 19.1928C116.429 19.1928 115.719 19.0008 115.079 18.6168C114.45 18.2328 113.954 17.6942 113.591 17.0008C113.229 16.3075 113.047 15.5182 113.047 14.6328C113.047 13.7368 113.229 12.9528 113.591 12.2808C113.954 11.5982 114.45 11.0702 115.079 10.6968C115.719 10.3235 116.429 10.1368 117.207 10.1368ZM120.471 14.6488C120.471 13.9875 120.338 13.4115 120.071 12.9208C119.805 12.4302 119.442 12.0568 118.983 11.8008C118.535 11.5342 118.039 11.4008 117.495 11.4008C116.951 11.4008 116.455 11.5288 116.007 11.7848C115.559 12.0408 115.202 12.4142 114.935 12.9048C114.669 13.3955 114.535 13.9715 114.535 14.6328C114.535 15.3048 114.669 15.8915 114.935 16.3928C115.202 16.8835 115.559 17.2622 116.007 17.5288C116.455 17.7848 116.951 17.9128 117.495 17.9128C118.039 17.9128 118.535 17.7848 118.983 17.5288C119.442 17.2622 119.805 16.8835 120.071 16.3928C120.338 15.8915 120.471 15.3102 120.471 14.6488ZM140.35 10.2808L137.614 19.0488H136.11L133.998 12.0888L131.886 19.0488H130.382L127.63 10.2808H129.118L131.134 17.6408L133.31 10.2808H134.798L136.926 17.6568L138.91 10.2808H140.35ZM142.547 8.85683C142.269 8.85683 142.035 8.76083 141.843 8.56883C141.651 8.37683 141.555 8.14216 141.555 7.86483C141.555 7.58749 141.651 7.35283 141.843 7.16083C142.035 6.96883 142.269 6.87283 142.547 6.87283C142.813 6.87283 143.037 6.96883 143.219 7.16083C143.411 7.35283 143.507 7.58749 143.507 7.86483C143.507 8.14216 143.411 8.37683 143.219 8.56883C143.037 8.76083 142.813 8.85683 142.547 8.85683ZM143.251 10.2808V19.0488H141.795V10.2808H143.251ZM147.508 11.4808V16.6488C147.508 17.0755 147.599 17.3795 147.78 17.5608C147.961 17.7315 148.276 17.8168 148.724 17.8168H149.796V19.0488H148.484C147.673 19.0488 147.065 18.8622 146.66 18.4888C146.255 18.1155 146.052 17.5022 146.052 16.6488V11.4808H144.916V10.2808H146.052V8.07283H147.508V10.2808H149.796V11.4808H147.508ZM155.912 10.1208C156.573 10.1208 157.171 10.2648 157.704 10.5528C158.237 10.8302 158.653 11.2515 158.952 11.8168C159.261 12.3822 159.416 13.0702 159.416 13.8808V19.0488H157.976V14.0888C157.976 13.2142 157.757 12.5475 157.32 12.0888C156.883 11.6195 156.285 11.3848 155.528 11.3848C154.76 11.3848 154.147 11.6248 153.688 12.1048C153.24 12.5848 153.016 13.2835 153.016 14.2008V19.0488H151.56V7.20883H153.016V11.5288C153.304 11.0808 153.699 10.7342 154.2 10.4888C154.712 10.2435 155.283 10.1208 155.912 10.1208ZM174.06 14.3288C174.06 14.6062 174.044 14.8995 174.012 15.2088H167.004C167.057 16.0728 167.351 16.7502 167.884 17.2408C168.428 17.7208 169.084 17.9608 169.852 17.9608C170.481 17.9608 171.004 17.8168 171.42 17.5288C171.847 17.2302 172.145 16.8355 172.316 16.3448H173.884C173.649 17.1875 173.18 17.8755 172.476 18.4088C171.772 18.9315 170.897 19.1928 169.852 19.1928C169.02 19.1928 168.273 19.0062 167.612 18.6328C166.961 18.2595 166.449 17.7315 166.076 17.0488C165.703 16.3555 165.516 15.5555 165.516 14.6488C165.516 13.7422 165.697 12.9475 166.06 12.2648C166.423 11.5822 166.929 11.0595 167.58 10.6968C168.241 10.3235 168.999 10.1368 169.852 10.1368C170.684 10.1368 171.42 10.3182 172.06 10.6808C172.7 11.0435 173.191 11.5448 173.532 12.1848C173.884 12.8142 174.06 13.5288 174.06 14.3288ZM172.556 14.0248C172.556 13.4702 172.433 12.9955 172.188 12.6008C171.943 12.1955 171.607 11.8915 171.18 11.6888C170.764 11.4755 170.3 11.3688 169.788 11.3688C169.052 11.3688 168.423 11.6035 167.9 12.0728C167.388 12.5422 167.095 13.1928 167.02 14.0248H172.556ZM180.558 19.0488L178.478 15.7848L176.478 19.0488H174.958L177.79 14.6968L174.958 10.2808H176.606L178.686 13.5288L180.67 10.2808H182.19L179.374 14.6168L182.206 19.0488H180.558ZM185.094 11.8968C185.382 11.3955 185.809 10.9795 186.374 10.6488C186.95 10.3075 187.617 10.1368 188.374 10.1368C189.153 10.1368 189.857 10.3235 190.486 10.6968C191.126 11.0702 191.628 11.5982 191.99 12.2808C192.353 12.9528 192.534 13.7368 192.534 14.6328C192.534 15.5182 192.353 16.3075 191.99 17.0008C191.628 17.6942 191.126 18.2328 190.486 18.6168C189.857 19.0008 189.153 19.1928 188.374 19.1928C187.628 19.1928 186.966 19.0275 186.39 18.6968C185.825 18.3555 185.393 17.9342 185.094 17.4328V23.2088H183.638V10.2808H185.094V11.8968ZM191.046 14.6328C191.046 13.9715 190.913 13.3955 190.646 12.9048C190.38 12.4142 190.017 12.0408 189.558 11.7848C189.11 11.5288 188.614 11.4008 188.07 11.4008C187.537 11.4008 187.041 11.5342 186.582 11.8008C186.134 12.0568 185.772 12.4355 185.494 12.9368C185.228 13.4275 185.094 13.9982 185.094 14.6488C185.094 15.3102 185.228 15.8915 185.494 16.3928C185.772 16.8835 186.134 17.2622 186.582 17.5288C187.041 17.7848 187.537 17.9128 188.07 17.9128C188.614 17.9128 189.11 17.7848 189.558 17.5288C190.017 17.2622 190.38 16.8835 190.646 16.3928C190.913 15.8915 191.046 15.3048 191.046 14.6328ZM202.451 14.3288C202.451 14.6062 202.435 14.8995 202.403 15.2088H195.395C195.448 16.0728 195.741 16.7502 196.275 17.2408C196.819 17.7208 197.475 17.9608 198.243 17.9608C198.872 17.9608 199.395 17.8168 199.811 17.5288C200.237 17.2302 200.536 16.8355 200.707 16.3448H202.275C202.04 17.1875 201.571 17.8755 200.867 18.4088C200.163 18.9315 199.288 19.1928 198.243 19.1928C197.411 19.1928 196.664 19.0062 196.003 18.6328C195.352 18.2595 194.84 17.7315 194.467 17.0488C194.093 16.3555 193.907 15.5555 193.907 14.6488C193.907 13.7422 194.088 12.9475 194.451 12.2648C194.813 11.5822 195.32 11.0595 195.971 10.6968C196.632 10.3235 197.389 10.1368 198.243 10.1368C199.075 10.1368 199.811 10.3182 200.451 10.6808C201.091 11.0435 201.581 11.5448 201.923 12.1848C202.275 12.8142 202.451 13.5288 202.451 14.3288ZM200.947 14.0248C200.947 13.4702 200.824 12.9955 200.579 12.6008C200.333 12.1955 199.997 11.8915 199.571 11.6888C199.155 11.4755 198.691 11.3688 198.179 11.3688C197.443 11.3688 196.813 11.6035 196.291 12.0728C195.779 12.5422 195.485 13.1928 195.411 14.0248H200.947ZM205.829 11.7048C206.085 11.2035 206.447 10.8142 206.917 10.5368C207.397 10.2595 207.978 10.1208 208.661 10.1208V11.6248H208.277C206.645 11.6248 205.829 12.5102 205.829 14.2808V19.0488H204.373V10.2808H205.829V11.7048ZM212.117 11.4808V16.6488C212.117 17.0755 212.208 17.3795 212.389 17.5608C212.571 17.7315 212.885 17.8168 213.333 17.8168H214.405V19.0488H213.093C212.283 19.0488 211.675 18.8622 211.269 18.4888C210.864 18.1155 210.661 17.5022 210.661 16.6488V11.4808H209.525V10.2808H210.661V8.07283H212.117V10.2808H214.405V11.4808H212.117ZM219.274 19.1928C218.602 19.1928 217.999 19.0808 217.466 18.8568C216.932 18.6222 216.511 18.3022 216.202 17.8968C215.892 17.4808 215.722 17.0062 215.69 16.4728H217.194C217.236 16.9102 217.439 17.2675 217.802 17.5448C218.175 17.8222 218.66 17.9608 219.258 17.9608C219.812 17.9608 220.25 17.8382 220.57 17.5928C220.89 17.3475 221.05 17.0382 221.05 16.6648C221.05 16.2808 220.879 15.9982 220.538 15.8168C220.196 15.6248 219.668 15.4382 218.954 15.2568C218.303 15.0862 217.77 14.9155 217.354 14.7448C216.948 14.5635 216.596 14.3022 216.298 13.9608C216.01 13.6088 215.866 13.1502 215.866 12.5848C215.866 12.1368 215.999 11.7262 216.266 11.3528C216.532 10.9795 216.911 10.6862 217.402 10.4728C217.892 10.2488 218.452 10.1368 219.082 10.1368C220.052 10.1368 220.836 10.3822 221.434 10.8728C222.031 11.3635 222.351 12.0355 222.394 12.8888H220.938C220.906 12.4302 220.719 12.0622 220.378 11.7848C220.047 11.5075 219.599 11.3688 219.034 11.3688C218.511 11.3688 218.095 11.4808 217.786 11.7048C217.476 11.9288 217.322 12.2222 217.322 12.5848C217.322 12.8728 217.412 13.1128 217.594 13.3048C217.786 13.4862 218.02 13.6355 218.298 13.7528C218.586 13.8595 218.98 13.9822 219.482 14.1208C220.111 14.2915 220.623 14.4622 221.018 14.6328C221.412 14.7928 221.748 15.0382 222.026 15.3688C222.314 15.6995 222.463 16.1315 222.474 16.6648C222.474 17.1448 222.34 17.5768 222.074 17.9608C221.807 18.3448 221.428 18.6488 220.938 18.8728C220.458 19.0862 219.903 19.1928 219.274 19.1928ZM37.816 43.8808C39.1707 42.7928 40.232 41.9022 41 41.2088C41.768 40.5048 42.4133 39.7742 42.936 39.0168C43.4693 38.2488 43.736 37.4968 43.736 36.7608C43.736 36.0675 43.5653 35.5235 43.224 35.1288C42.8933 34.7235 42.3547 34.5208 41.608 34.5208C40.8827 34.5208 40.3173 34.7502 39.912 35.2088C39.5173 35.6568 39.304 36.2595 39.272 37.0168H37.864C37.9067 35.8222 38.2693 34.8995 38.952 34.2488C39.6347 33.5982 40.5147 33.2728 41.592 33.2728C42.6907 33.2728 43.56 33.5768 44.2 34.1848C44.8507 34.7928 45.176 35.6302 45.176 36.6968C45.176 37.5822 44.9093 38.4462 44.376 39.2888C43.8533 40.1208 43.256 40.8568 42.584 41.4968C41.912 42.1262 41.0533 42.8622 40.008 43.7048H45.512V44.9208H37.816V43.8808ZM47.1951 39.1448C47.1951 37.3102 47.4938 35.8808 48.0911 34.8568C48.6885 33.8222 49.7338 33.3048 51.2271 33.3048C52.7098 33.3048 53.7498 33.8222 54.3471 34.8568C54.9445 35.8808 55.2431 37.3102 55.2431 39.1448C55.2431 41.0115 54.9445 42.4622 54.3471 43.4968C53.7498 44.5315 52.7098 45.0488 51.2271 45.0488C49.7338 45.0488 48.6885 44.5315 48.0911 43.4968C47.4938 42.4622 47.1951 41.0115 47.1951 39.1448ZM53.8031 39.1448C53.8031 38.2168 53.7391 37.4328 53.6111 36.7928C53.4938 36.1422 53.2431 35.6195 52.8591 35.2248C52.4858 34.8302 51.9418 34.6328 51.2271 34.6328C50.5018 34.6328 49.9471 34.8302 49.5631 35.2248C49.1898 35.6195 48.9391 36.1422 48.8111 36.7928C48.6938 37.4328 48.6351 38.2168 48.6351 39.1448C48.6351 40.1048 48.6938 40.9102 48.8111 41.5608C48.9391 42.2115 49.1898 42.7342 49.5631 43.1288C49.9471 43.5235 50.5018 43.7208 51.2271 43.7208C51.9418 43.7208 52.4858 43.5235 52.8591 43.1288C53.2431 42.7342 53.4938 42.2115 53.6111 41.5608C53.7391 40.9102 53.8031 40.1048 53.8031 39.1448ZM63.5236 37.4808V42.6488C63.5236 43.0755 63.6143 43.3795 63.7956 43.5608C63.977 43.7315 64.2916 43.8168 64.7396 43.8168H65.8116V45.0488H64.4996C63.689 45.0488 63.081 44.8622 62.6756 44.4888C62.2703 44.1155 62.0676 43.5022 62.0676 42.6488V37.4808H60.9316V36.2808H62.0676V34.0728H63.5236V36.2808H65.8116V37.4808H63.5236ZM68.3278 34.8568C68.0504 34.8568 67.8158 34.7608 67.6238 34.5688C67.4318 34.3768 67.3358 34.1422 67.3358 33.8648C67.3358 33.5875 67.4318 33.3528 67.6238 33.1608C67.8158 32.9688 68.0504 32.8728 68.3278 32.8728C68.5944 32.8728 68.8184 32.9688 68.9998 33.1608C69.1918 33.3528 69.2878 33.5875 69.2878 33.8648C69.2878 34.1422 69.1918 34.3768 68.9998 34.5688C68.8184 34.7608 68.5944 34.8568 68.3278 34.8568ZM69.0318 36.2808V45.0488H67.5758V36.2808H69.0318ZM82.0573 36.1208C82.7399 36.1208 83.3479 36.2648 83.8813 36.5528C84.4146 36.8302 84.8359 37.2515 85.1453 37.8168C85.4546 38.3822 85.6093 39.0702 85.6093 39.8808V45.0488H84.1693V40.0888C84.1693 39.2142 83.9506 38.5475 83.5133 38.0888C83.0866 37.6195 82.5053 37.3848 81.7693 37.3848C81.0119 37.3848 80.4093 37.6302 79.9613 38.1208C79.5133 38.6008 79.2893 39.2995 79.2893 40.2168V45.0488H77.8493V40.0888C77.8493 39.2142 77.6306 38.5475 77.1933 38.0888C76.7666 37.6195 76.1853 37.3848 75.4493 37.3848C74.6919 37.3848 74.0893 37.6302 73.6413 38.1208C73.1933 38.6008 72.9693 39.2995 72.9693 40.2168V45.0488H71.5133V36.2808H72.9693V37.5448C73.2573 37.0862 73.6413 36.7342 74.1213 36.4888C74.6119 36.2435 75.1506 36.1208 75.7373 36.1208C76.4733 36.1208 77.1239 36.2862 77.6893 36.6168C78.2546 36.9475 78.6759 37.4328 78.9533 38.0728C79.1986 37.4542 79.6039 36.9742 80.1693 36.6328C80.7346 36.2915 81.3639 36.1208 82.0573 36.1208ZM95.9976 40.3288C95.9976 40.6062 95.9816 40.8995 95.9496 41.2088H88.9416C88.995 42.0728 89.2883 42.7502 89.8216 43.2408C90.3656 43.7208 91.0216 43.9608 91.7896 43.9608C92.419 43.9608 92.9416 43.8168 93.3576 43.5288C93.7843 43.2302 94.083 42.8355 94.2536 42.3448H95.8216C95.587 43.1875 95.1176 43.8755 94.4136 44.4088C93.7096 44.9315 92.835 45.1928 91.7896 45.1928C90.9576 45.1928 90.211 45.0062 89.5496 44.6328C88.899 44.2595 88.387 43.7315 88.0136 43.0488C87.6403 42.3555 87.4536 41.5555 87.4536 40.6488C87.4536 39.7422 87.635 38.9475 87.9976 38.2648C88.3603 37.5822 88.867 37.0595 89.5176 36.6968C90.179 36.3235 90.9363 36.1368 91.7896 36.1368C92.6216 36.1368 93.3576 36.3182 93.9976 36.6808C94.6376 37.0435 95.1283 37.5448 95.4696 38.1848C95.8216 38.8142 95.9976 39.5288 95.9976 40.3288ZM94.4936 40.0248C94.4936 39.4702 94.371 38.9955 94.1256 38.6008C93.8803 38.1955 93.5443 37.8915 93.1176 37.6888C92.7016 37.4755 92.2376 37.3688 91.7256 37.3688C90.9896 37.3688 90.3603 37.6035 89.8376 38.0728C89.3256 38.5422 89.0323 39.1928 88.9576 40.0248H94.4936ZM101.024 45.1928C100.352 45.1928 99.7488 45.0808 99.2155 44.8568C98.6822 44.6222 98.2608 44.3022 97.9515 43.8968C97.6422 43.4808 97.4715 43.0062 97.4395 42.4728H98.9435C98.9862 42.9102 99.1888 43.2675 99.5515 43.5448C99.9248 43.8222 100.41 43.9608 101.008 43.9608C101.562 43.9608 102 43.8382 102.32 43.5928C102.64 43.3475 102.8 43.0382 102.8 42.6648C102.8 42.2808 102.629 41.9982 102.288 41.8168C101.946 41.6248 101.418 41.4382 100.704 41.2568C100.053 41.0862 99.5195 40.9155 99.1035 40.7448C98.6982 40.5635 98.3462 40.3022 98.0475 39.9608C97.7595 39.6088 97.6155 39.1502 97.6155 38.5848C97.6155 38.1368 97.7488 37.7262 98.0155 37.3528C98.2822 36.9795 98.6608 36.6862 99.1515 36.4728C99.6422 36.2488 100.202 36.1368 100.832 36.1368C101.802 36.1368 102.586 36.3822 103.184 36.8728C103.781 37.3635 104.101 38.0355 104.144 38.8888H102.688C102.656 38.4302 102.469 38.0622 102.128 37.7848C101.797 37.5075 101.349 37.3688 100.784 37.3688C100.261 37.3688 99.8448 37.4808 99.5355 37.7048C99.2262 37.9288 99.0715 38.2222 99.0715 38.5848C99.0715 38.8728 99.1622 39.1128 99.3435 39.3048C99.5355 39.4862 99.7702 39.6355 100.048 39.7528C100.336 39.8595 100.73 39.9822 101.232 40.1208C101.861 40.2915 102.373 40.4622 102.768 40.6328C103.162 40.7928 103.498 41.0382 103.776 41.3688C104.064 41.6995 104.213 42.1315 104.224 42.6648C104.224 43.1448 104.09 43.5768 103.824 43.9608C103.557 44.3448 103.178 44.6488 102.688 44.8728C102.208 45.0862 101.653 45.1928 101.024 45.1928ZM114.113 37.4808H112.273V45.0488H110.817V37.4808H109.681V36.2808H110.817V35.6568C110.817 34.6755 111.067 33.9608 111.569 33.5128C112.081 33.0542 112.897 32.8248 114.016 32.8248V34.0408C113.377 34.0408 112.923 34.1688 112.657 34.4248C112.401 34.6702 112.273 35.0808 112.273 35.6568V36.2808H114.113V37.4808ZM119.634 45.1928C118.813 45.1928 118.066 45.0062 117.394 44.6328C116.733 44.2595 116.21 43.7315 115.826 43.0488C115.453 42.3555 115.266 41.5555 115.266 40.6488C115.266 39.7528 115.458 38.9635 115.842 38.2808C116.237 37.5875 116.77 37.0595 117.442 36.6968C118.114 36.3235 118.866 36.1368 119.698 36.1368C120.53 36.1368 121.282 36.3235 121.954 36.6968C122.626 37.0595 123.154 37.5822 123.538 38.2648C123.933 38.9475 124.13 39.7422 124.13 40.6488C124.13 41.5555 123.927 42.3555 123.522 43.0488C123.127 43.7315 122.589 44.2595 121.906 44.6328C121.223 45.0062 120.466 45.1928 119.634 45.1928ZM119.634 43.9128C120.157 43.9128 120.647 43.7902 121.106 43.5448C121.565 43.2995 121.933 42.9315 122.21 42.4408C122.498 41.9502 122.642 41.3528 122.642 40.6488C122.642 39.9448 122.503 39.3475 122.226 38.8568C121.949 38.3662 121.586 38.0035 121.138 37.7688C120.69 37.5235 120.205 37.4008 119.682 37.4008C119.149 37.4008 118.658 37.5235 118.21 37.7688C117.773 38.0035 117.421 38.3662 117.154 38.8568C116.887 39.3475 116.754 39.9448 116.754 40.6488C116.754 41.3635 116.882 41.9662 117.138 42.4568C117.405 42.9475 117.757 43.3155 118.194 43.5608C118.631 43.7955 119.111 43.9128 119.634 43.9128ZM127.501 37.7048C127.757 37.2035 128.119 36.8142 128.589 36.5368C129.069 36.2595 129.65 36.1208 130.333 36.1208V37.6248H129.949C128.317 37.6248 127.501 38.5102 127.501 40.2808V45.0488H126.045V36.2808H127.501V37.7048ZM137.735 33.8968V45.0488H136.279V33.8968H137.735ZM152.034 36.2808L146.754 49.1768H145.25L146.978 44.9528L143.442 36.2808H145.058L147.81 43.3848L150.53 36.2808H152.034ZM161.498 40.3288C161.498 40.6062 161.482 40.8995 161.45 41.2088H154.442C154.495 42.0728 154.788 42.7502 155.322 43.2408C155.866 43.7208 156.522 43.9608 157.29 43.9608C157.919 43.9608 158.442 43.8168 158.858 43.5288C159.284 43.2302 159.583 42.8355 159.754 42.3448H161.322C161.087 43.1875 160.618 43.8755 159.914 44.4088C159.21 44.9315 158.335 45.1928 157.29 45.1928C156.458 45.1928 155.711 45.0062 155.05 44.6328C154.399 44.2595 153.887 43.7315 153.514 43.0488C153.14 42.3555 152.954 41.5555 152.954 40.6488C152.954 39.7422 153.135 38.9475 153.498 38.2648C153.86 37.5822 154.367 37.0595 155.018 36.6968C155.679 36.3235 156.436 36.1368 157.29 36.1368C158.122 36.1368 158.858 36.3182 159.498 36.6808C160.138 37.0435 160.628 37.5448 160.97 38.1848C161.322 38.8142 161.498 39.5288 161.498 40.3288ZM159.994 40.0248C159.994 39.4702 159.871 38.9955 159.626 38.6008C159.38 38.1955 159.044 37.8915 158.618 37.6888C158.202 37.4755 157.738 37.3688 157.226 37.3688C156.49 37.3688 155.86 37.6035 155.338 38.0728C154.826 38.5422 154.532 39.1928 154.458 40.0248H159.994ZM162.876 40.6328C162.876 39.7368 163.057 38.9528 163.42 38.2808C163.782 37.5982 164.278 37.0702 164.908 36.6968C165.548 36.3235 166.257 36.1368 167.036 36.1368C167.804 36.1368 168.47 36.3022 169.036 36.6328C169.601 36.9635 170.022 37.3795 170.3 37.8808V36.2808H171.772V45.0488H170.3V43.4168C170.012 43.9288 169.58 44.3555 169.004 44.6968C168.438 45.0275 167.777 45.1928 167.02 45.1928C166.241 45.1928 165.537 45.0008 164.908 44.6168C164.278 44.2328 163.782 43.6942 163.42 43.0008C163.057 42.3075 162.876 41.5182 162.876 40.6328ZM170.3 40.6488C170.3 39.9875 170.166 39.4115 169.9 38.9208C169.633 38.4302 169.27 38.0568 168.812 37.8008C168.364 37.5342 167.868 37.4008 167.324 37.4008C166.78 37.4008 166.284 37.5288 165.836 37.7848C165.388 38.0408 165.03 38.4142 164.764 38.9048C164.497 39.3955 164.364 39.9715 164.364 40.6328C164.364 41.3048 164.497 41.8915 164.764 42.3928C165.03 42.8835 165.388 43.2622 165.836 43.5288C166.284 43.7848 166.78 43.9128 167.324 43.9128C167.868 43.9128 168.364 43.7848 168.812 43.5288C169.27 43.2622 169.633 42.8835 169.9 42.3928C170.166 41.8915 170.3 41.3102 170.3 40.6488Z" fill="black"/>
<circle opacity="0.3" cx="11" cy="15.0488" r="10.5" stroke="#1D92FF"/>
<path d="M15.5827 12.2988L9.2806 18.7155L6.41602 15.7988" stroke="#1D92FF" stroke-width="1.5" stroke-linecap="round" stroke-linejoin="round"/>
<path d="M44.824 83.5688H39.96L39.064 86.0488H37.528L41.56 74.9608H43.24L47.256 86.0488H45.72L44.824 83.5688ZM44.408 82.3848L42.392 76.7528L40.376 82.3848H44.408ZM48.4693 81.6328C48.4693 80.7368 48.6506 79.9528 49.0133 79.2808C49.3759 78.5982 49.8719 78.0702 50.5013 77.6968C51.1413 77.3235 51.8559 77.1368 52.6453 77.1368C53.3279 77.1368 53.9626 77.2968 54.5493 77.6168C55.1359 77.9262 55.5839 78.3368 55.8933 78.8488V74.2088H57.3653V86.0488H55.8933V84.4008C55.6053 84.9235 55.1786 85.3555 54.6133 85.6968C54.0479 86.0275 53.3866 86.1928 52.6293 86.1928C51.8506 86.1928 51.1413 86.0008 50.5013 85.6168C49.8719 85.2328 49.3759 84.6942 49.0133 84.0008C48.6506 83.3075 48.4693 82.5182 48.4693 81.6328ZM55.8933 81.6488C55.8933 80.9875 55.7599 80.4115 55.4933 79.9208C55.2266 79.4302 54.8639 79.0568 54.4053 78.8008C53.9573 78.5342 53.4613 78.4008 52.9173 78.4008C52.3733 78.4008 51.8773 78.5288 51.4293 78.7848C50.9813 79.0408 50.6239 79.4142 50.3573 79.9048C50.0906 80.3955 49.9573 80.9715 49.9573 81.6328C49.9573 82.3048 50.0906 82.8915 50.3573 83.3928C50.6239 83.8835 50.9813 84.2622 51.4293 84.5288C51.8773 84.7848 52.3733 84.9128 52.9173 84.9128C53.4613 84.9128 53.9573 84.7848 54.4053 84.5288C54.8639 84.2622 55.2266 83.8835 55.4933 83.3928C55.7599 82.8915 55.8933 82.3102 55.8933 81.6488ZM59.2818 81.6328C59.2818 80.7368 59.4631 79.9528 59.8258 79.2808C60.1884 78.5982 60.6844 78.0702 61.3138 77.6968C61.9538 77.3235 62.6684 77.1368 63.4578 77.1368C64.1404 77.1368 64.7751 77.2968 65.3618 77.6168C65.9484 77.9262 66.3964 78.3368 66.7058 78.8488V74.2088H68.1778V86.0488H66.7058V84.4008C66.4178 84.9235 65.9911 85.3555 65.4258 85.6968C64.8604 86.0275 64.1991 86.1928 63.4418 86.1928C62.6631 86.1928 61.9538 86.0008 61.3138 85.6168C60.6844 85.2328 60.1884 84.6942 59.8258 84.0008C59.4631 83.3075 59.2818 82.5182 59.2818 81.6328ZM66.7058 81.6488C66.7058 80.9875 66.5724 80.4115 66.3058 79.9208C66.0391 79.4302 65.6764 79.0568 65.2178 78.8008C64.7698 78.5342 64.2738 78.4008 63.7298 78.4008C63.1858 78.4008 62.6898 78.5288 62.2418 78.7848C61.7938 79.0408 61.4364 79.4142 61.1698 79.9048C60.9031 80.3955 60.7698 80.9715 60.7698 81.6328C60.7698 82.3048 60.9031 82.8915 61.1698 83.3928C61.4364 83.8835 61.7938 84.2622 62.2418 84.5288C62.6898 84.7848 63.1858 84.9128 63.7298 84.9128C64.2738 84.9128 64.7698 84.7848 65.2178 84.5288C65.6764 84.2622 66.0391 83.8835 66.3058 83.3928C66.5724 82.8915 66.7058 82.3102 66.7058 81.6488ZM78.4719 78.4808H76.6319V86.0488H75.1759V78.4808H74.0399V77.2808H75.1759V76.6568C75.1759 75.6755 75.4265 74.9608 75.9279 74.5128C76.4399 74.0542 77.2559 73.8248 78.3759 73.8248V75.0408C77.7359 75.0408 77.2825 75.1688 77.0159 75.4248C76.7599 75.6702 76.6319 76.0808 76.6319 76.6568V77.2808H78.4719V78.4808ZM81.6255 78.7048C81.8815 78.2035 82.2442 77.8142 82.7135 77.5368C83.1935 77.2595 83.7748 77.1208 84.4575 77.1208V78.6248H84.0735C82.4415 78.6248 81.6255 79.5102 81.6255 81.2808V86.0488H80.1695V77.2808H81.6255V78.7048ZM86.8903 75.8568C86.6129 75.8568 86.3783 75.7608 86.1863 75.5688C85.9943 75.3768 85.8983 75.1422 85.8983 74.8648C85.8983 74.5875 85.9943 74.3528 86.1863 74.1608C86.3783 73.9688 86.6129 73.8728 86.8903 73.8728C87.1569 73.8728 87.3809 73.9688 87.5623 74.1608C87.7543 74.3528 87.8503 74.5875 87.8503 74.8648C87.8503 75.1422 87.7543 75.3768 87.5623 75.5688C87.3809 75.7608 87.1569 75.8568 86.8903 75.8568ZM87.5943 77.2808V86.0488H86.1383V77.2808H87.5943ZM98.0758 81.3288C98.0758 81.6062 98.0598 81.8995 98.0278 82.2088H91.0198C91.0731 83.0728 91.3664 83.7502 91.8998 84.2408C92.4438 84.7208 93.0998 84.9608 93.8678 84.9608C94.4971 84.9608 95.0198 84.8168 95.4358 84.5288C95.8624 84.2302 96.1611 83.8355 96.3318 83.3448H97.8998C97.6651 84.1875 97.1958 84.8755 96.4918 85.4088C95.7878 85.9315 94.9131 86.1928 93.8678 86.1928C93.0358 86.1928 92.2891 86.0062 91.6278 85.6328C90.9771 85.2595 90.4651 84.7315 90.0918 84.0488C89.7184 83.3555 89.5318 82.5555 89.5318 81.6488C89.5318 80.7422 89.7131 79.9475 90.0758 79.2648C90.4384 78.5822 90.9451 78.0595 91.5958 77.6968C92.2571 77.3235 93.0144 77.1368 93.8678 77.1368C94.6998 77.1368 95.4358 77.3182 96.0758 77.6808C96.7158 78.0435 97.2064 78.5448 97.5478 79.1848C97.8998 79.8142 98.0758 80.5288 98.0758 81.3288ZM96.5718 81.0248C96.5718 80.4702 96.4491 79.9955 96.2038 79.6008C95.9584 79.1955 95.6224 78.8915 95.1958 78.6888C94.7798 78.4755 94.3158 78.3688 93.8038 78.3688C93.0678 78.3688 92.4384 78.6035 91.9158 79.0728C91.4038 79.5422 91.1104 80.1928 91.0358 81.0248H96.5718ZM104.27 77.1208C105.336 77.1208 106.2 77.4462 106.862 78.0968C107.523 78.7368 107.854 79.6648 107.854 80.8808V86.0488H106.414V81.0888C106.414 80.2142 106.195 79.5475 105.758 79.0888C105.32 78.6195 104.723 78.3848 103.966 78.3848C103.198 78.3848 102.584 78.6248 102.126 79.1048C101.678 79.5848 101.454 80.2835 101.454 81.2008V86.0488H99.9976V77.2808H101.454V78.5288C101.742 78.0808 102.131 77.7342 102.622 77.4888C103.123 77.2435 103.672 77.1208 104.27 77.1208ZM109.688 81.6328C109.688 80.7368 109.869 79.9528 110.232 79.2808C110.595 78.5982 111.091 78.0702 111.72 77.6968C112.36 77.3235 113.075 77.1368 113.864 77.1368C114.547 77.1368 115.181 77.2968 115.768 77.6168C116.355 77.9262 116.803 78.3368 117.112 78.8488V74.2088H118.584V86.0488H117.112V84.4008C116.824 84.9235 116.397 85.3555 115.832 85.6968C115.267 86.0275 114.605 86.1928 113.848 86.1928C113.069 86.1928 112.36 86.0008 111.72 85.6168C111.091 85.2328 110.595 84.6942 110.232 84.0008C109.869 83.3075 109.688 82.5182 109.688 81.6328ZM117.112 81.6488C117.112 80.9875 116.979 80.4115 116.712 79.9208C116.445 79.4302 116.083 79.0568 115.624 78.8008C115.176 78.5342 114.68 78.4008 114.136 78.4008C113.592 78.4008 113.096 78.5288 112.648 78.7848C112.2 79.0408 111.843 79.4142 111.576 79.9048C111.309 80.3955 111.176 80.9715 111.176 81.6328C111.176 82.3048 111.309 82.8915 111.576 83.3928C111.843 83.8835 112.2 84.2622 112.648 84.5288C113.096 84.7848 113.592 84.9128 114.136 84.9128C114.68 84.9128 115.176 84.7848 115.624 84.5288C116.083 84.2622 116.445 83.8835 116.712 83.3928C116.979 82.8915 117.112 82.3102 117.112 81.6488ZM124.149 86.1928C123.477 86.1928 122.874 86.0808 122.341 85.8568C121.807 85.6222 121.386 85.3022 121.077 84.8968C120.767 84.4808 120.597 84.0062 120.565 83.4728H122.069C122.111 83.9102 122.314 84.2675 122.677 84.5448C123.05 84.8222 123.535 84.9608 124.133 84.9608C124.687 84.9608 125.125 84.8382 125.445 84.5928C125.765 84.3475 125.925 84.0382 125.925 83.6648C125.925 83.2808 125.754 82.9982 125.413 82.8168C125.071 82.6248 124.543 82.4382 123.829 82.2568C123.178 82.0862 122.645 81.9155 122.229 81.7448C121.823 81.5635 121.471 81.3022 121.173 80.9608C120.885 80.6088 120.741 80.1502 120.741 79.5848C120.741 79.1368 120.874 78.7262 121.141 78.3528C121.407 77.9795 121.786 77.6862 122.277 77.4728C122.767 77.2488 123.327 77.1368 123.957 77.1368C124.927 77.1368 125.711 77.3822 126.309 77.8728C126.906 78.3635 127.226 79.0355 127.269 79.8888H125.813C125.781 79.4302 125.594 79.0622 125.253 78.7848C124.922 78.5075 124.474 78.3688 123.909 78.3688C123.386 78.3688 122.97 78.4808 122.661 78.7048C122.351 78.9288 122.197 79.2222 122.197 79.5848C122.197 79.8728 122.287 80.1128 122.469 80.3048C122.661 80.4862 122.895 80.6355 123.173 80.7528C123.461 80.8595 123.855 80.9822 124.357 81.1208C124.986 81.2915 125.498 81.4622 125.893 81.6328C126.287 81.7928 126.623 82.0382 126.901 82.3688C127.189 82.6995 127.338 83.1315 127.349 83.6648C127.349 84.1448 127.215 84.5768 126.949 84.9608C126.682 85.3448 126.303 85.6488 125.813 85.8728C125.333 86.0862 124.778 86.1928 124.149 86.1928ZM137.238 78.4808H135.398V86.0488H133.942V78.4808H132.806V77.2808H133.942V76.6568C133.942 75.6755 134.192 74.9608 134.694 74.5128C135.206 74.0542 136.022 73.8248 137.141 73.8248V75.0408C136.502 75.0408 136.048 75.1688 135.782 75.4248C135.526 75.6702 135.398 76.0808 135.398 76.6568V77.2808H137.238V78.4808ZM142.759 86.1928C141.938 86.1928 141.191 86.0062 140.519 85.6328C139.858 85.2595 139.335 84.7315 138.951 84.0488C138.578 83.3555 138.391 82.5555 138.391 81.6488C138.391 80.7528 138.583 79.9635 138.967 79.2808C139.362 78.5875 139.895 78.0595 140.567 77.6968C141.239 77.3235 141.991 77.1368 142.823 77.1368C143.655 77.1368 144.407 77.3235 145.079 77.6968C145.751 78.0595 146.279 78.5822 146.663 79.2648C147.058 79.9475 147.255 80.7422 147.255 81.6488C147.255 82.5555 147.052 83.3555 146.647 84.0488C146.252 84.7315 145.714 85.2595 145.031 85.6328C144.348 86.0062 143.591 86.1928 142.759 86.1928ZM142.759 84.9128C143.282 84.9128 143.772 84.7902 144.231 84.5448C144.69 84.2995 145.058 83.9315 145.335 83.4408C145.623 82.9502 145.767 82.3528 145.767 81.6488C145.767 80.9448 145.628 80.3475 145.351 79.8568C145.074 79.3662 144.711 79.0035 144.263 78.7688C143.815 78.5235 143.33 78.4008 142.807 78.4008C142.274 78.4008 141.783 78.5235 141.335 78.7688C140.898 79.0035 140.546 79.3662 140.279 79.8568C140.012 80.3475 139.879 80.9448 139.879 81.6488C139.879 82.3635 140.007 82.9662 140.263 83.4568C140.53 83.9475 140.882 84.3155 141.319 84.5608C141.756 84.7955 142.236 84.9128 142.759 84.9128ZM150.626 78.7048C150.882 78.2035 151.244 77.8142 151.714 77.5368C152.194 77.2595 152.775 77.1208 153.458 77.1208V78.6248H153.074C151.442 78.6248 150.626 79.5102 150.626 81.2808V86.0488H149.17V77.2808H150.626V78.7048ZM162.972 78.4808H161.132V86.0488H159.676V78.4808H158.54V77.2808H159.676V76.6568C159.676 75.6755 159.927 74.9608 160.428 74.5128C160.94 74.0542 161.756 73.8248 162.876 73.8248V75.0408C162.236 75.0408 161.783 75.1688 161.516 75.4248C161.26 75.6702 161.132 76.0808 161.132 76.6568V77.2808H162.972V78.4808ZM166.126 78.7048C166.382 78.2035 166.744 77.8142 167.214 77.5368C167.694 77.2595 168.275 77.1208 168.958 77.1208V78.6248H168.574C166.942 78.6248 166.126 79.5102 166.126 81.2808V86.0488H164.67V77.2808H166.126V78.7048ZM178.638 81.3288C178.638 81.6062 178.622 81.8995 178.59 82.2088H171.582C171.636 83.0728 171.929 83.7502 172.462 84.2408C173.006 84.7208 173.662 84.9608 174.43 84.9608C175.06 84.9608 175.582 84.8168 175.998 84.5288C176.425 84.2302 176.724 83.8355 176.894 83.3448H178.462C178.228 84.1875 177.758 84.8755 177.054 85.4088C176.35 85.9315 175.476 86.1928 174.43 86.1928C173.598 86.1928 172.852 86.0062 172.19 85.6328C171.54 85.2595 171.028 84.7315 170.654 84.0488C170.281 83.3555 170.094 82.5555 170.094 81.6488C170.094 80.7422 170.276 79.9475 170.638 79.2648C171.001 78.5822 171.508 78.0595 172.158 77.6968C172.82 77.3235 173.577 77.1368 174.43 77.1368C175.262 77.1368 175.998 77.3182 176.638 77.6808C177.278 78.0435 177.769 78.5448 178.11 79.1848C178.462 79.8142 178.638 80.5288 178.638 81.3288ZM177.134 81.0248C177.134 80.4702 177.012 79.9955 176.766 79.6008C176.521 79.1955 176.185 78.8915 175.758 78.6888C175.342 78.4755 174.878 78.3688 174.366 78.3688C173.63 78.3688 173.001 78.6035 172.478 79.0728C171.966 79.5422 171.673 80.1928 171.598 81.0248H177.134ZM188.56 81.3288C188.56 81.6062 188.544 81.8995 188.512 82.2088H181.504C181.557 83.0728 181.851 83.7502 182.384 84.2408C182.928 84.7208 183.584 84.9608 184.352 84.9608C184.981 84.9608 185.504 84.8168 185.92 84.5288C186.347 84.2302 186.645 83.8355 186.816 83.3448H188.384C188.149 84.1875 187.68 84.8755 186.976 85.4088C186.272 85.9315 185.397 86.1928 184.352 86.1928C183.52 86.1928 182.773 86.0062 182.112 85.6328C181.461 85.2595 180.949 84.7315 180.576 84.0488C180.203 83.3555 180.016 82.5555 180.016 81.6488C180.016 80.7422 180.197 79.9475 180.56 79.2648C180.923 78.5822 181.429 78.0595 182.08 77.6968C182.741 77.3235 183.499 77.1368 184.352 77.1368C185.184 77.1368 185.92 77.3182 186.56 77.6808C187.2 78.0435 187.691 78.5448 188.032 79.1848C188.384 79.8142 188.56 80.5288 188.56 81.3288ZM187.056 81.0248C187.056 80.4702 186.933 79.9955 186.688 79.6008C186.443 79.1955 186.107 78.8915 185.68 78.6888C185.264 78.4755 184.8 78.3688 184.288 78.3688C183.552 78.3688 182.923 78.6035 182.4 79.0728C181.888 79.5422 181.595 80.1928 181.52 81.0248H187.056ZM198.316 78.4808H196.476V86.0488H195.02V78.4808H193.884V77.2808H195.02V76.6568C195.02 75.6755 195.27 74.9608 195.772 74.5128C196.284 74.0542 197.1 73.8248 198.22 73.8248V75.0408C197.58 75.0408 197.126 75.1688 196.86 75.4248C196.604 75.6702 196.476 76.0808 196.476 76.6568V77.2808H198.316V78.4808ZM203.837 86.1928C203.016 86.1928 202.269 86.0062 201.597 85.6328C200.936 85.2595 200.413 84.7315 200.029 84.0488C199.656 83.3555 199.469 82.5555 199.469 81.6488C199.469 80.7528 199.661 79.9635 200.045 79.2808C200.44 78.5875 200.973 78.0595 201.645 77.6968C202.317 77.3235 203.069 77.1368 203.901 77.1368C204.733 77.1368 205.485 77.3235 206.157 77.6968C206.829 78.0595 207.357 78.5822 207.741 79.2648C208.136 79.9475 208.333 80.7422 208.333 81.6488C208.333 82.5555 208.131 83.3555 207.725 84.0488C207.331 84.7315 206.792 85.2595 206.109 85.6328C205.427 86.0062 204.669 86.1928 203.837 86.1928ZM203.837 84.9128C204.36 84.9128 204.851 84.7902 205.309 84.5448C205.768 84.2995 206.136 83.9315 206.413 83.4408C206.701 82.9502 206.845 82.3528 206.845 81.6488C206.845 80.9448 206.707 80.3475 206.429 79.8568C206.152 79.3662 205.789 79.0035 205.341 78.7688C204.893 78.5235 204.408 78.4008 203.885 78.4008C203.352 78.4008 202.861 78.5235 202.413 78.7688C201.976 79.0035 201.624 79.3662 201.357 79.8568C201.091 80.3475 200.957 80.9448 200.957 81.6488C200.957 82.3635 201.085 82.9662 201.341 83.4568C201.608 83.9475 201.96 84.3155 202.397 84.5608C202.835 84.7955 203.315 84.9128 203.837 84.9128ZM211.704 78.7048C211.96 78.2035 212.322 77.8142 212.792 77.5368C213.272 77.2595 213.853 77.1208 214.536 77.1208V78.6248H214.152C212.52 78.6248 211.704 79.5102 211.704 81.2808V86.0488H210.248V77.2808H211.704V78.7048ZM37.608 101.809V100.481H40.616V112.049H39.144V101.809H37.608ZM53.901 103.121C54.5837 103.121 55.1917 103.265 55.725 103.553C56.2583 103.83 56.6797 104.251 56.989 104.817C57.2983 105.382 57.453 106.07 57.453 106.881V112.049H56.013V107.089C56.013 106.214 55.7943 105.547 55.357 105.089C54.9303 104.619 54.349 104.385 53.613 104.385C52.8557 104.385 52.253 104.63 51.805 105.121C51.357 105.601 51.133 106.299 51.133 107.217V112.049H49.693V107.089C49.693 106.214 49.4743 105.547 49.037 105.089C48.6103 104.619 48.029 104.385 47.293 104.385C46.5357 104.385 45.933 104.63 45.485 105.121C45.037 105.601 44.813 106.299 44.813 107.217V112.049H43.357V103.281H44.813V104.545C45.101 104.086 45.485 103.734 45.965 103.489C46.4557 103.243 46.9943 103.121 47.581 103.121C48.317 103.121 48.9677 103.286 49.533 103.617C50.0983 103.947 50.5197 104.433 50.797 105.073C51.0423 104.454 51.4477 103.974 52.013 103.633C52.5783 103.291 53.2077 103.121 53.901 103.121ZM63.6654 112.193C62.844 112.193 62.0974 112.006 61.4254 111.633C60.764 111.259 60.2414 110.731 59.8574 110.049C59.484 109.355 59.2974 108.555 59.2974 107.649C59.2974 106.753 59.4894 105.963 59.8734 105.281C60.268 104.587 60.8014 104.059 61.4734 103.697C62.1454 103.323 62.8974 103.137 63.7294 103.137C64.5614 103.137 65.3134 103.323 65.9854 103.697C66.6574 104.059 67.1854 104.582 67.5694 105.265C67.964 105.947 68.1614 106.742 68.1614 107.649C68.1614 108.555 67.9587 109.355 67.5534 110.049C67.1587 110.731 66.62 111.259 65.9374 111.633C65.2547 112.006 64.4974 112.193 63.6654 112.193ZM63.6654 110.913C64.188 110.913 64.6787 110.79 65.1374 110.545C65.596 110.299 65.964 109.931 66.2414 109.441C66.5294 108.95 66.6734 108.353 66.6734 107.649C66.6734 106.945 66.5347 106.347 66.2574 105.857C65.98 105.366 65.6174 105.003 65.1694 104.769C64.7214 104.523 64.236 104.401 63.7134 104.401C63.18 104.401 62.6894 104.523 62.2414 104.769C61.804 105.003 61.452 105.366 61.1854 105.857C60.9187 106.347 60.7854 106.945 60.7854 107.649C60.7854 108.363 60.9134 108.966 61.1694 109.457C61.436 109.947 61.788 110.315 62.2254 110.561C62.6627 110.795 63.1427 110.913 63.6654 110.913ZM74.3478 103.121C75.4144 103.121 76.2784 103.446 76.9398 104.097C77.6011 104.737 77.9318 105.665 77.9318 106.881V112.049H76.4918V107.089C76.4918 106.214 76.2731 105.547 75.8358 105.089C75.3984 104.619 74.8011 104.385 74.0438 104.385C73.2758 104.385 72.6624 104.625 72.2038 105.105C71.7558 105.585 71.5318 106.283 71.5318 107.201V112.049H70.0758V103.281H71.5318V104.529C71.8198 104.081 72.2091 103.734 72.6998 103.489C73.2011 103.243 73.7504 103.121 74.3478 103.121ZM82.0861 104.481V109.649C82.0861 110.075 82.1768 110.379 82.3581 110.561C82.5395 110.731 82.8541 110.817 83.3021 110.817H84.3741V112.049H83.0621C82.2515 112.049 81.6435 111.862 81.2381 111.489C80.8328 111.115 80.6301 110.502 80.6301 109.649V104.481H79.4941V103.281H80.6301V101.073H82.0861V103.281H84.3741V104.481H82.0861ZM90.4903 103.121C91.1516 103.121 91.7489 103.265 92.2823 103.553C92.8156 103.83 93.2316 104.251 93.5303 104.817C93.8396 105.382 93.9943 106.07 93.9943 106.881V112.049H92.5543V107.089C92.5543 106.214 92.3356 105.547 91.8983 105.089C91.4609 104.619 90.8636 104.385 90.1063 104.385C89.3383 104.385 88.7249 104.625 88.2663 105.105C87.8183 105.585 87.5943 106.283 87.5943 107.201V112.049H86.1383V100.209H87.5943V104.529C87.8823 104.081 88.2769 103.734 88.7783 103.489C89.2903 103.243 89.8609 103.121 90.4903 103.121Z" fill="black"/>
<circle opacity="0.3" cx="11" cy="82.0488" r="10.5" stroke="#1D92FF"/>
<path d="M15.5827 79.2988L9.2806 85.7155L6.41602 82.7988" stroke="#1D92FF" stroke-width="1.5" stroke-linecap="round" stroke-linejoin="round"/>
<path d="M44.536 141.897V143.081H39.688V146.841H43.624V148.025H39.688V153.049H38.232V141.897H44.536ZM47.7505 145.705C48.0065 145.203 48.3692 144.814 48.8385 144.537C49.3185 144.259 49.8998 144.121 50.5825 144.121V145.625H50.1985C48.5665 145.625 47.7505 146.51 47.7505 148.281V153.049H46.2945V144.281H47.7505V145.705ZM60.2633 148.329C60.2633 148.606 60.2473 148.899 60.2153 149.209H53.2073C53.2606 150.073 53.5539 150.75 54.0873 151.241C54.6313 151.721 55.2873 151.961 56.0553 151.961C56.6846 151.961 57.2073 151.817 57.6233 151.529C58.0499 151.23 58.3486 150.835 58.5193 150.345H60.0873C59.8526 151.187 59.3833 151.875 58.6793 152.409C57.9753 152.931 57.1006 153.193 56.0553 153.193C55.2233 153.193 54.4766 153.006 53.8153 152.633C53.1646 152.259 52.6526 151.731 52.2793 151.049C51.9059 150.355 51.7193 149.555 51.7193 148.649C51.7193 147.742 51.9006 146.947 52.2633 146.265C52.6259 145.582 53.1326 145.059 53.7833 144.697C54.4446 144.323 55.2019 144.137 56.0553 144.137C56.8873 144.137 57.6233 144.318 58.2633 144.681C58.9033 145.043 59.3939 145.545 59.7353 146.185C60.0873 146.814 60.2633 147.529 60.2633 148.329ZM58.7593 148.025C58.7593 147.47 58.6366 146.995 58.3913 146.601C58.1459 146.195 57.8099 145.891 57.3833 145.689C56.9673 145.475 56.5033 145.369 55.9913 145.369C55.2553 145.369 54.6259 145.603 54.1033 146.073C53.5913 146.542 53.2979 147.193 53.2233 148.025H58.7593ZM70.1851 148.329C70.1851 148.606 70.1691 148.899 70.1371 149.209H63.1291C63.1825 150.073 63.4758 150.75 64.0091 151.241C64.5531 151.721 65.2091 151.961 65.9771 151.961C66.6065 151.961 67.1291 151.817 67.5451 151.529C67.9718 151.23 68.2705 150.835 68.4411 150.345H70.0091C69.7745 151.187 69.3051 151.875 68.6011 152.409C67.8971 152.931 67.0225 153.193 65.9771 153.193C65.1451 153.193 64.3985 153.006 63.7371 152.633C63.0865 152.259 62.5745 151.731 62.2011 151.049C61.8278 150.355 61.6411 149.555 61.6411 148.649C61.6411 147.742 61.8225 146.947 62.1851 146.265C62.5478 145.582 63.0545 145.059 63.7051 144.697C64.3665 144.323 65.1238 144.137 65.9771 144.137C66.8091 144.137 67.5451 144.318 68.1851 144.681C68.8251 145.043 69.3158 145.545 69.6571 146.185C70.0091 146.814 70.1851 147.529 70.1851 148.329ZM68.6811 148.025C68.6811 147.47 68.5585 146.995 68.3131 146.601C68.0678 146.195 67.7318 145.891 67.3051 145.689C66.8891 145.475 66.4251 145.369 65.9131 145.369C65.1771 145.369 64.5478 145.603 64.0251 146.073C63.5131 146.542 63.2198 147.193 63.1451 148.025H68.6811ZM83.5086 142.745H77.8926V146.393C78.138 146.051 78.5006 145.774 78.9806 145.561C79.4606 145.337 79.978 145.225 80.5326 145.225C81.418 145.225 82.138 145.411 82.6926 145.785C83.2473 146.147 83.642 146.622 83.8766 147.209C84.122 147.785 84.2446 148.398 84.2446 149.049C84.2446 149.817 84.1006 150.505 83.8126 151.113C83.5246 151.721 83.082 152.201 82.4846 152.553C81.898 152.905 81.1673 153.081 80.2926 153.081C79.1726 153.081 78.266 152.793 77.5726 152.217C76.8793 151.641 76.458 150.873 76.3086 149.913H77.7326C77.8713 150.521 78.1646 150.995 78.6126 151.337C79.0606 151.678 79.626 151.849 80.3086 151.849C81.1513 151.849 81.786 151.598 82.2126 151.097C82.6393 150.585 82.8526 149.913 82.8526 149.081C82.8526 148.249 82.6393 147.609 82.2126 147.161C81.786 146.702 81.1566 146.473 80.3246 146.473C79.7593 146.473 79.2633 146.611 78.8366 146.889C78.4206 147.155 78.1166 147.523 77.9246 147.993H76.5486V141.465H83.5086V142.745ZM94.2531 145.481H92.4131V153.049H90.9571V145.481H89.8211V144.281H90.9571V143.657C90.9571 142.675 91.2078 141.961 91.7091 141.513C92.2211 141.054 93.0371 140.825 94.1571 140.825V142.041C93.5171 142.041 93.0638 142.169 92.7971 142.425C92.5411 142.67 92.4131 143.081 92.4131 143.657V144.281H94.2531V145.481ZM99.7748 153.193C98.9534 153.193 98.2068 153.006 97.5348 152.633C96.8734 152.259 96.3508 151.731 95.9668 151.049C95.5934 150.355 95.4068 149.555 95.4068 148.649C95.4068 147.753 95.5988 146.963 95.9828 146.281C96.3774 145.587 96.9108 145.059 97.5828 144.697C98.2548 144.323 99.0068 144.137 99.8388 144.137C100.671 144.137 101.423 144.323 102.095 144.697C102.767 145.059 103.295 145.582 103.679 146.265C104.073 146.947 104.271 147.742 104.271 148.649C104.271 149.555 104.068 150.355 103.663 151.049C103.268 151.731 102.729 152.259 102.047 152.633C101.364 153.006 100.607 153.193 99.7748 153.193ZM99.7748 151.913C100.297 151.913 100.788 151.79 101.247 151.545C101.705 151.299 102.073 150.931 102.351 150.441C102.639 149.95 102.783 149.353 102.783 148.649C102.783 147.945 102.644 147.347 102.367 146.857C102.089 146.366 101.727 146.003 101.279 145.769C100.831 145.523 100.345 145.401 99.8228 145.401C99.2894 145.401 98.7988 145.523 98.3508 145.769C97.9134 146.003 97.5614 146.366 97.2948 146.857C97.0281 147.347 96.8948 147.945 96.8948 148.649C96.8948 149.363 97.0228 149.966 97.2788 150.457C97.5454 150.947 97.8974 151.315 98.3348 151.561C98.7721 151.795 99.2521 151.913 99.7748 151.913ZM110.457 144.121C111.524 144.121 112.388 144.446 113.049 145.097C113.71 145.737 114.041 146.665 114.041 147.881V153.049H112.601V148.089C112.601 147.214 112.382 146.547 111.945 146.089C111.508 145.619 110.91 145.385 110.153 145.385C109.385 145.385 108.772 145.625 108.313 146.105C107.865 146.585 107.641 147.283 107.641 148.201V153.049H106.185V144.281H107.641V145.529C107.929 145.081 108.318 144.734 108.809 144.489C109.31 144.243 109.86 144.121 110.457 144.121ZM118.196 145.481V150.649C118.196 151.075 118.286 151.379 118.468 151.561C118.649 151.731 118.964 151.817 119.411 151.817H120.484V153.049H119.172C118.361 153.049 117.753 152.862 117.348 152.489C116.942 152.115 116.74 151.502 116.74 150.649V145.481H115.604V144.281H116.74V142.073H118.196V144.281H120.484V145.481H118.196ZM125.352 153.193C124.68 153.193 124.077 153.081 123.544 152.857C123.01 152.622 122.589 152.302 122.28 151.897C121.97 151.481 121.8 151.006 121.768 150.473H123.272C123.314 150.91 123.517 151.267 123.88 151.545C124.253 151.822 124.738 151.961 125.336 151.961C125.89 151.961 126.328 151.838 126.648 151.593C126.968 151.347 127.128 151.038 127.128 150.665C127.128 150.281 126.957 149.998 126.616 149.817C126.274 149.625 125.746 149.438 125.032 149.257C124.381 149.086 123.848 148.915 123.432 148.745C123.026 148.563 122.674 148.302 122.376 147.961C122.088 147.609 121.944 147.15 121.944 146.585C121.944 146.137 122.077 145.726 122.344 145.353C122.61 144.979 122.989 144.686 123.48 144.473C123.97 144.249 124.53 144.137 125.16 144.137C126.13 144.137 126.914 144.382 127.512 144.873C128.109 145.363 128.429 146.035 128.472 146.889H127.016C126.984 146.43 126.797 146.062 126.456 145.785C126.125 145.507 125.677 145.369 125.112 145.369C124.589 145.369 124.173 145.481 123.864 145.705C123.554 145.929 123.4 146.222 123.4 146.585C123.4 146.873 123.49 147.113 123.672 147.305C123.864 147.486 124.098 147.635 124.376 147.753C124.664 147.859 125.058 147.982 125.56 148.121C126.189 148.291 126.701 148.462 127.096 148.633C127.49 148.793 127.826 149.038 128.104 149.369C128.392 149.699 128.541 150.131 128.552 150.665C128.552 151.145 128.418 151.577 128.152 151.961C127.885 152.345 127.506 152.649 127.016 152.873C126.536 153.086 125.981 153.193 125.352 153.193Z" fill="black"/>
<circle opacity="0.3" cx="11" cy="147.049" r="10.5" stroke="#1D92FF"/>
<path d="M15.5827 144.299L9.2806 150.715L6.41602 147.799" stroke="#1D92FF" stroke-width="1.5" stroke-linecap="round" stroke-linejoin="round"/>
</svg>
