<svg width="90" height="89" viewBox="0 0 90 89" fill="none" xmlns="http://www.w3.org/2000/svg">
<path opacity="0.05" d="M48 2.09766L87.2352 46.6127L42.7202 85.8479L3.48499 41.3329L48 2.09766Z" fill="#1D92FF"/>
<path opacity="0.3" d="M47.6195 1.16874L87.9816 46.9623L42.188 87.3244L1.82589 41.5309L47.6195 1.16874Z" stroke="#002547" stroke-width="0.3"/>
<circle opacity="0.3" cx="47.5" cy="1.54883" r="1.5" fill="#002547"/>
<circle opacity="0.3" cx="42.3008" cy="87.249" r="1" fill="#002547"/>
<circle opacity="0.3" cx="1.5" cy="41.5488" r="1.5" fill="#002547"/>
<circle opacity="0.3" cx="88.5" cy="46.5488" r="1.5" fill="#002547"/>
<path d="M60 38.7643C60 40.231 58.7727 41.431 57.2727 41.431C57.0273 41.431 56.7955 41.4043 56.5773 41.3377L51.7227 46.071C51.7909 46.2843 51.8182 46.5243 51.8182 46.7643C51.8182 48.231 50.5909 49.431 49.0909 49.431C47.5909 49.431 46.3636 48.231 46.3636 46.7643C46.3636 46.5243 46.3909 46.2843 46.4591 46.071L42.9818 42.671C42.7636 42.7377 42.5182 42.7643 42.2727 42.7643C42.0273 42.7643 41.7818 42.7377 41.5636 42.671L35.3591 48.751C35.4273 48.9643 35.4545 49.191 35.4545 49.431C35.4545 50.8977 34.2273 52.0977 32.7273 52.0977C31.2273 52.0977 30 50.8977 30 49.431C30 47.9643 31.2273 46.7643 32.7273 46.7643C32.9727 46.7643 33.2045 46.791 33.4227 46.8577L39.6409 40.791C39.5727 40.5777 39.5455 40.3377 39.5455 40.0977C39.5455 38.631 40.7727 37.431 42.2727 37.431C43.7727 37.431 45 38.631 45 40.0977C45 40.3377 44.9727 40.5777 44.9045 40.791L48.3818 44.191C48.6 44.1243 48.8455 44.0977 49.0909 44.0977C49.3364 44.0977 49.5818 44.1243 49.8 44.191L54.6409 39.4443C54.5727 39.231 54.5455 39.0043 54.5455 38.7643C54.5455 37.2977 55.7727 36.0977 57.2727 36.0977C58.7727 36.0977 60 37.2977 60 38.7643Z" fill="#002547"/>
</svg>
