<svg width="404" height="488" viewBox="0 0 404 488" fill="none" xmlns="http://www.w3.org/2000/svg">
<g filter="url(#filter0_f_10950_3)">
<rect x="74" y="74" width="256" height="340" rx="10" fill="#DEDEDE" fill-opacity="0.61"/>
</g>
<rect x="64" y="84" width="256" height="313" rx="10" fill="white"/>
<path opacity="0.7" d="M145.939 153.493V157H143.889V147.047H147.771C148.519 147.047 149.175 147.184 149.74 147.457C150.31 147.73 150.747 148.12 151.053 148.626C151.358 149.127 151.511 149.699 151.511 150.342C151.511 151.317 151.176 152.087 150.506 152.652C149.84 153.213 148.918 153.493 147.737 153.493H145.939ZM145.939 151.832H147.771C148.314 151.832 148.726 151.704 149.009 151.449C149.296 151.194 149.439 150.829 149.439 150.355C149.439 149.868 149.296 149.474 149.009 149.173C148.722 148.872 148.325 148.717 147.819 148.708H145.939V151.832ZM156.952 151.456C156.683 151.42 156.446 151.401 156.241 151.401C155.494 151.401 155.004 151.654 154.771 152.16V157H152.796V149.604H154.662L154.717 150.485C155.113 149.806 155.662 149.467 156.364 149.467C156.583 149.467 156.788 149.496 156.979 149.556L156.952 151.456ZM157.355 153.233C157.355 152.5 157.497 151.846 157.779 151.271C158.062 150.697 158.467 150.253 158.996 149.938C159.529 149.624 160.147 149.467 160.849 149.467C161.847 149.467 162.66 149.772 163.289 150.383C163.923 150.993 164.276 151.823 164.349 152.871L164.362 153.377C164.362 154.512 164.046 155.423 163.412 156.111C162.779 156.795 161.929 157.137 160.862 157.137C159.796 157.137 158.944 156.795 158.306 156.111C157.672 155.428 157.355 154.498 157.355 153.322V153.233ZM159.331 153.377C159.331 154.079 159.463 154.617 159.728 154.99C159.992 155.359 160.37 155.544 160.862 155.544C161.341 155.544 161.715 155.362 161.983 154.997C162.252 154.628 162.387 154.04 162.387 153.233C162.387 152.545 162.252 152.012 161.983 151.634C161.715 151.256 161.336 151.066 160.849 151.066C160.366 151.066 159.992 151.256 159.728 151.634C159.463 152.007 159.331 152.589 159.331 153.377ZM172.237 153.37C172.237 154.509 171.978 155.423 171.458 156.111C170.943 156.795 170.246 157.137 169.366 157.137C168.619 157.137 168.015 156.877 167.555 156.357V159.844H165.579V149.604H167.411L167.479 150.328C167.958 149.754 168.582 149.467 169.353 149.467C170.264 149.467 170.973 149.804 171.479 150.479C171.984 151.153 172.237 152.083 172.237 153.268V153.37ZM170.262 153.227C170.262 152.538 170.139 152.007 169.893 151.634C169.651 151.26 169.298 151.073 168.833 151.073C168.213 151.073 167.787 151.31 167.555 151.784V154.812C167.796 155.3 168.227 155.544 168.847 155.544C169.79 155.544 170.262 154.771 170.262 153.227ZM173.16 153.233C173.16 152.5 173.301 151.846 173.584 151.271C173.867 150.697 174.272 150.253 174.801 149.938C175.334 149.624 175.951 149.467 176.653 149.467C177.651 149.467 178.465 149.772 179.094 150.383C179.727 150.993 180.08 151.823 180.153 152.871L180.167 153.377C180.167 154.512 179.85 155.423 179.217 156.111C178.583 156.795 177.733 157.137 176.667 157.137C175.601 157.137 174.748 156.795 174.11 156.111C173.477 155.428 173.16 154.498 173.16 153.322V153.233ZM175.136 153.377C175.136 154.079 175.268 154.617 175.532 154.99C175.797 155.359 176.175 155.544 176.667 155.544C177.146 155.544 177.519 155.362 177.788 154.997C178.057 154.628 178.191 154.04 178.191 153.233C178.191 152.545 178.057 152.012 177.788 151.634C177.519 151.256 177.141 151.066 176.653 151.066C176.17 151.066 175.797 151.256 175.532 151.634C175.268 152.007 175.136 152.589 175.136 153.377ZM185.39 154.956C185.39 154.715 185.269 154.525 185.027 154.389C184.79 154.247 184.408 154.122 183.879 154.013C182.12 153.644 181.24 152.896 181.24 151.771C181.24 151.114 181.511 150.567 182.054 150.13C182.601 149.688 183.314 149.467 184.193 149.467C185.132 149.467 185.882 149.688 186.442 150.13C187.007 150.572 187.29 151.146 187.29 151.853H185.314C185.314 151.57 185.223 151.338 185.041 151.155C184.859 150.968 184.574 150.875 184.187 150.875C183.854 150.875 183.596 150.95 183.414 151.101C183.232 151.251 183.141 151.442 183.141 151.675C183.141 151.894 183.243 152.071 183.448 152.208C183.658 152.34 184.009 152.456 184.501 152.557C184.993 152.652 185.408 152.762 185.745 152.885C186.789 153.268 187.311 153.931 187.311 154.874C187.311 155.549 187.021 156.095 186.442 156.515C185.864 156.929 185.116 157.137 184.2 157.137C183.58 157.137 183.029 157.027 182.546 156.809C182.067 156.585 181.691 156.282 181.418 155.899C181.145 155.512 181.008 155.095 181.008 154.648H182.881C182.899 154.999 183.029 155.268 183.271 155.455C183.512 155.642 183.836 155.735 184.241 155.735C184.619 155.735 184.904 155.665 185.096 155.523C185.292 155.378 185.39 155.188 185.39 154.956ZM192.875 157C192.784 156.822 192.718 156.601 192.677 156.337C192.198 156.87 191.576 157.137 190.811 157.137C190.086 157.137 189.484 156.927 189.006 156.508C188.532 156.089 188.295 155.56 188.295 154.922C188.295 154.138 188.584 153.536 189.163 153.117C189.746 152.698 190.587 152.486 191.686 152.481H192.595V152.058C192.595 151.716 192.506 151.442 192.328 151.237C192.155 151.032 191.879 150.93 191.501 150.93C191.168 150.93 190.906 151.009 190.715 151.169C190.528 151.328 190.435 151.547 190.435 151.825H188.459C188.459 151.397 188.591 151 188.855 150.636C189.12 150.271 189.493 149.986 189.977 149.781C190.46 149.572 191.002 149.467 191.604 149.467C192.515 149.467 193.237 149.697 193.771 150.157C194.308 150.613 194.577 151.256 194.577 152.085V155.291C194.582 155.993 194.68 156.524 194.871 156.884V157H192.875ZM191.241 155.626C191.533 155.626 191.802 155.562 192.048 155.435C192.294 155.302 192.476 155.127 192.595 154.908V153.637H191.856C190.868 153.637 190.341 153.979 190.277 154.662L190.271 154.778C190.271 155.024 190.357 155.227 190.53 155.387C190.703 155.546 190.94 155.626 191.241 155.626ZM198.18 157H196.197V146.5H198.18V157ZM210.512 148.708H207.463V157H205.412V148.708H202.404V147.047H210.512V148.708ZM214.347 157.137C213.262 157.137 212.378 156.804 211.694 156.139C211.015 155.473 210.676 154.587 210.676 153.479V153.288C210.676 152.545 210.819 151.882 211.106 151.299C211.394 150.711 211.799 150.26 212.323 149.945C212.852 149.626 213.453 149.467 214.128 149.467C215.14 149.467 215.935 149.786 216.514 150.424C217.097 151.062 217.389 151.966 217.389 153.138V153.944H212.679C212.743 154.427 212.934 154.815 213.253 155.106C213.576 155.398 213.984 155.544 214.477 155.544C215.238 155.544 215.832 155.268 216.261 154.717L217.231 155.804C216.935 156.223 216.534 156.551 216.028 156.788C215.522 157.021 214.962 157.137 214.347 157.137ZM214.121 151.066C213.729 151.066 213.41 151.199 213.164 151.463C212.923 151.727 212.768 152.105 212.699 152.598H215.447V152.44C215.438 152.003 215.32 151.666 215.092 151.429C214.864 151.187 214.54 151.066 214.121 151.066ZM220.369 149.604L220.431 150.431C220.955 149.788 221.663 149.467 222.557 149.467C223.509 149.467 224.163 149.843 224.519 150.595C225.038 149.843 225.779 149.467 226.74 149.467C227.542 149.467 228.139 149.701 228.531 150.171C228.923 150.636 229.119 151.338 229.119 152.276V157H227.137V152.283C227.137 151.864 227.055 151.559 226.891 151.367C226.727 151.171 226.437 151.073 226.022 151.073C225.43 151.073 225.02 151.356 224.792 151.921L224.799 157H222.823V152.29C222.823 151.862 222.739 151.552 222.57 151.36C222.402 151.169 222.115 151.073 221.709 151.073C221.148 151.073 220.743 151.306 220.492 151.771V157H218.517V149.604H220.369ZM237.302 153.37C237.302 154.509 237.042 155.423 236.522 156.111C236.007 156.795 235.31 157.137 234.431 157.137C233.683 157.137 233.079 156.877 232.619 156.357V159.844H230.644V149.604H232.476L232.544 150.328C233.022 149.754 233.647 149.467 234.417 149.467C235.328 149.467 236.037 149.804 236.543 150.479C237.049 151.153 237.302 152.083 237.302 153.268V153.37ZM235.326 153.227C235.326 152.538 235.203 152.007 234.957 151.634C234.715 151.26 234.362 151.073 233.897 151.073C233.278 151.073 232.852 151.31 232.619 151.784V154.812C232.861 155.3 233.291 155.544 233.911 155.544C234.854 155.544 235.326 154.771 235.326 153.227ZM240.617 157H238.635V146.5H240.617V157ZM246.537 157C246.446 156.822 246.38 156.601 246.339 156.337C245.86 156.87 245.238 157.137 244.473 157.137C243.748 157.137 243.146 156.927 242.668 156.508C242.194 156.089 241.957 155.56 241.957 154.922C241.957 154.138 242.246 153.536 242.825 153.117C243.409 152.698 244.249 152.486 245.348 152.481H246.257V152.058C246.257 151.716 246.168 151.442 245.99 151.237C245.817 151.032 245.541 150.93 245.163 150.93C244.83 150.93 244.568 151.009 244.377 151.169C244.19 151.328 244.097 151.547 244.097 151.825H242.121C242.121 151.397 242.253 151 242.518 150.636C242.782 150.271 243.156 149.986 243.639 149.781C244.122 149.572 244.664 149.467 245.266 149.467C246.177 149.467 246.899 149.697 247.433 150.157C247.97 150.613 248.239 151.256 248.239 152.085V155.291C248.244 155.993 248.342 156.524 248.533 156.884V157H246.537ZM244.903 155.626C245.195 155.626 245.464 155.562 245.71 155.435C245.956 155.302 246.138 155.127 246.257 154.908V153.637H245.519C244.53 153.637 244.003 153.979 243.939 154.662L243.933 154.778C243.933 155.024 244.019 155.227 244.192 155.387C244.366 155.546 244.603 155.626 244.903 155.626ZM252.122 147.785V149.604H253.387V151.053H252.122V154.744C252.122 155.018 252.174 155.214 252.279 155.332C252.384 155.451 252.585 155.51 252.881 155.51C253.1 155.51 253.293 155.494 253.462 155.462V156.959C253.075 157.077 252.676 157.137 252.266 157.137C250.88 157.137 250.174 156.437 250.146 155.038V151.053H249.066V149.604H250.146V147.785H252.122ZM257.892 157.137C256.807 157.137 255.923 156.804 255.239 156.139C254.56 155.473 254.221 154.587 254.221 153.479V153.288C254.221 152.545 254.364 151.882 254.651 151.299C254.938 150.711 255.344 150.26 255.868 149.945C256.397 149.626 256.998 149.467 257.673 149.467C258.685 149.467 259.48 149.786 260.059 150.424C260.642 151.062 260.934 151.966 260.934 153.138V153.944H256.224C256.287 154.427 256.479 154.815 256.798 155.106C257.121 155.398 257.529 155.544 258.021 155.544C258.783 155.544 259.377 155.268 259.806 154.717L260.776 155.804C260.48 156.223 260.079 156.551 259.573 156.788C259.067 157.021 258.507 157.137 257.892 157.137ZM257.666 151.066C257.274 151.066 256.955 151.199 256.709 151.463C256.467 151.727 256.312 152.105 256.244 152.598H258.992V152.44C258.983 152.003 258.865 151.666 258.637 151.429C258.409 151.187 258.085 151.066 257.666 151.066Z" fill="#01070D"/>
<rect x="95" y="217" width="195" height="6" rx="3" fill="#EBF1F7"/>
<g opacity="0.7">
<path d="M95 143H95.015" stroke="#1D92FF" stroke-width="4" stroke-linecap="round" stroke-linejoin="round"/>
<path d="M95 152H95.015" stroke="#1D92FF" stroke-width="4" stroke-linecap="round" stroke-linejoin="round"/>
<path d="M95 161H95.015" stroke="#1D92FF" stroke-width="4" stroke-linecap="round" stroke-linejoin="round"/>
</g>
<rect x="95" y="201" width="75" height="6" rx="3" fill="#C4C4C4"/>
<path d="M109.125 293.681C109.125 291.195 111.14 289.181 113.625 289.181H114.405C116.89 289.181 118.905 291.195 118.905 293.681V338.718H109.125V293.681Z" fill="#1D92FF"/>
<path d="M137.379 297.377C137.379 294.892 139.394 292.877 141.879 292.877H142.659C145.144 292.877 147.159 294.892 147.159 297.377V338.718H137.379V297.377Z" fill="#1D92FF"/>
<path d="M165.631 309.947C165.631 307.461 167.646 305.447 170.131 305.447H170.911C173.396 305.447 175.411 307.461 175.411 309.947V338.718H165.631V309.947Z" fill="#1D92FF"/>
<path d="M193.883 277.415C193.883 274.93 195.898 272.915 198.383 272.915H199.163C201.648 272.915 203.663 274.93 203.663 277.415V338.718H193.883V277.415Z" fill="#1D92FF"/>
<path d="M222.137 289.984C222.137 287.499 224.151 285.484 226.637 285.484H227.416C229.902 285.484 231.916 287.499 231.916 289.984V338.718H222.137V289.984Z" fill="#1D92FF"/>
<path d="M250.389 309.947C250.389 307.461 252.403 305.447 254.889 305.447H255.668C258.154 305.447 260.168 307.461 260.168 309.947V338.718H250.389V309.947Z" fill="#1D92FF"/>
<path opacity="0.15" d="M95 304.771C95 302.286 97.0147 300.271 99.5 300.271H100.28C102.765 300.271 104.78 302.286 104.78 304.771V338.718H95V304.771Z" fill="#1D92FF"/>
<path opacity="0.15" d="M123.252 274.458C123.252 271.972 125.267 269.958 127.752 269.958H128.532C131.017 269.958 133.032 271.972 133.032 274.458V338.718H123.252V274.458Z" fill="#1D92FF"/>
<path opacity="0.15" d="M151.506 271.5C151.506 269.015 153.521 267 156.006 267H156.786C159.271 267 161.286 269.015 161.286 271.5V338.718H151.506V271.5Z" fill="#1D92FF"/>
<path opacity="0.15" d="M179.758 297.377C179.758 294.892 181.773 292.877 184.258 292.877H185.038C187.523 292.877 189.538 294.892 189.538 297.377V338.718H179.758V297.377Z" fill="#1D92FF"/>
<path opacity="0.15" d="M208.01 320.298C208.01 317.813 210.024 315.798 212.51 315.798H213.289C215.775 315.798 217.789 317.813 217.789 320.298V338.718H208.01V320.298Z" fill="#1D92FF"/>
<path opacity="0.15" d="M236.264 274.458C236.264 271.972 238.278 269.958 240.764 269.958H241.543C244.029 269.958 246.043 271.972 246.043 274.458V338.718H236.264V274.458Z" fill="#1D92FF"/>
<rect x="106" y="349" width="40" height="6" rx="2.5" fill="#EFEEEE"/>
<circle cx="98" cy="352" r="3" fill="#DDEFFF"/>
<rect x="172" y="349" width="39" height="6" rx="2.5" fill="#EFEEEE"/>
<circle cx="164" cy="352" r="3" fill="#1D92FF"/>
<g opacity="0.5">
<path d="M99.52 371.613C99.4467 371.306 99.3133 371.076 99.12 370.923C98.9267 370.77 98.6567 370.693 98.31 370.693C97.7833 370.693 97.39 370.896 97.13 371.303C96.87 371.703 96.7333 372.37 96.72 373.303C96.8933 373.01 97.1467 372.783 97.48 372.623C97.8133 372.463 98.1733 372.383 98.56 372.383C99 372.383 99.3867 372.48 99.72 372.673C100.06 372.86 100.323 373.133 100.51 373.493C100.703 373.853 100.8 374.283 100.8 374.783C100.8 375.25 100.707 375.666 100.52 376.033C100.34 376.4 100.07 376.69 99.71 376.903C99.35 377.11 98.9167 377.213 98.41 377.213C97.7233 377.213 97.1833 377.063 96.79 376.763C96.4033 376.456 96.13 376.026 95.97 375.473C95.8167 374.92 95.74 374.23 95.74 373.403C95.74 370.963 96.6 369.743 98.32 369.743C98.9867 369.743 99.51 369.923 99.89 370.283C100.277 370.643 100.503 371.086 100.57 371.613H99.52ZM98.31 373.343C97.9033 373.343 97.5567 373.466 97.27 373.713C96.99 373.953 96.85 374.303 96.85 374.763C96.85 375.223 96.98 375.59 97.24 375.863C97.5067 376.13 97.8767 376.263 98.35 376.263C98.77 376.263 99.1 376.133 99.34 375.873C99.5867 375.613 99.71 375.266 99.71 374.833C99.71 374.38 99.59 374.02 99.35 373.753C99.1167 373.48 98.77 373.343 98.31 373.343ZM106.636 370.803L103.856 377.213H102.706L105.516 370.923H101.816V369.953H106.636V370.803Z" fill="#01070D"/>
<path d="M123.996 373.403C123.303 373.056 122.956 372.51 122.956 371.763C122.956 371.403 123.046 371.073 123.226 370.773C123.406 370.473 123.676 370.236 124.036 370.063C124.396 369.883 124.836 369.793 125.356 369.793C125.869 369.793 126.306 369.883 126.666 370.063C127.033 370.236 127.306 370.473 127.486 370.773C127.666 371.073 127.756 371.403 127.756 371.763C127.756 372.136 127.659 372.466 127.466 372.753C127.279 373.033 127.029 373.25 126.716 373.403C127.096 373.543 127.396 373.773 127.616 374.093C127.836 374.406 127.946 374.776 127.946 375.203C127.946 375.636 127.836 376.02 127.616 376.353C127.396 376.686 127.089 376.943 126.696 377.123C126.303 377.303 125.856 377.393 125.356 377.393C124.856 377.393 124.409 377.303 124.016 377.123C123.629 376.943 123.326 376.686 123.106 376.353C122.886 376.02 122.776 375.636 122.776 375.203C122.776 374.77 122.886 374.396 123.106 374.083C123.326 373.77 123.623 373.543 123.996 373.403ZM126.666 371.903C126.666 371.53 126.549 371.243 126.316 371.043C126.083 370.843 125.763 370.743 125.356 370.743C124.956 370.743 124.639 370.843 124.406 371.043C124.173 371.243 124.056 371.533 124.056 371.913C124.056 372.246 124.176 372.52 124.416 372.733C124.663 372.94 124.976 373.043 125.356 373.043C125.736 373.043 126.049 372.936 126.296 372.723C126.543 372.51 126.666 372.236 126.666 371.903ZM125.356 373.903C124.916 373.903 124.556 374.013 124.276 374.233C124.003 374.446 123.866 374.756 123.866 375.163C123.866 375.543 123.999 375.853 124.266 376.093C124.533 376.326 124.896 376.443 125.356 376.443C125.809 376.443 126.166 376.323 126.426 376.083C126.693 375.843 126.826 375.536 126.826 375.163C126.826 374.763 126.689 374.453 126.416 374.233C126.149 374.013 125.796 373.903 125.356 373.903ZM133.763 370.803L130.983 377.213H129.833L132.643 370.923H128.943V369.953H133.763V370.803Z" fill="#01070D"/>
<path d="M150.562 375.663C151.202 375.11 151.705 374.656 152.072 374.303C152.445 373.943 152.755 373.57 153.002 373.183C153.249 372.796 153.372 372.41 153.372 372.023C153.372 371.623 153.275 371.31 153.082 371.083C152.895 370.856 152.599 370.743 152.192 370.743C151.799 370.743 151.492 370.87 151.272 371.123C151.059 371.37 150.945 371.703 150.932 372.123H149.832C149.852 371.363 150.079 370.783 150.512 370.383C150.952 369.976 151.509 369.773 152.182 369.773C152.909 369.773 153.475 369.973 153.882 370.373C154.295 370.773 154.502 371.306 154.502 371.973C154.502 372.453 154.379 372.916 154.132 373.363C153.892 373.803 153.602 374.2 153.262 374.553C152.929 374.9 152.502 375.303 151.982 375.763L151.532 376.163H154.702V377.113H149.842V376.283L150.562 375.663ZM160.324 370.803L157.544 377.213H156.394L159.204 370.923H155.504V369.953H160.324V370.803Z" fill="#01070D"/>
<path d="M176.958 375.693V374.833L180.318 370.013H181.698V374.703H182.628V375.693H181.698V377.213H180.578V375.693H176.958ZM180.628 371.173L178.268 374.703H180.628V371.173ZM188.273 370.903H184.923V372.893C185.063 372.706 185.269 372.55 185.543 372.423C185.823 372.296 186.119 372.233 186.433 372.233C186.993 372.233 187.446 372.353 187.793 372.593C188.146 372.833 188.396 373.136 188.543 373.503C188.696 373.87 188.773 374.256 188.773 374.663C188.773 375.156 188.676 375.596 188.483 375.983C188.296 376.363 188.013 376.663 187.633 376.883C187.259 377.103 186.799 377.213 186.253 377.213C185.526 377.213 184.943 377.033 184.503 376.673C184.063 376.313 183.799 375.836 183.713 375.243H184.823C184.896 375.556 185.059 375.806 185.313 375.993C185.566 376.173 185.883 376.263 186.263 376.263C186.736 376.263 187.089 376.12 187.323 375.833C187.563 375.546 187.683 375.166 187.683 374.693C187.683 374.213 187.563 373.846 187.323 373.593C187.083 373.333 186.729 373.203 186.263 373.203C185.936 373.203 185.659 373.286 185.433 373.453C185.213 373.613 185.053 373.833 184.953 374.113H183.873V369.903H188.273V370.903Z" fill="#01070D"/>
<path d="M205.21 375.693V374.833L208.57 370.013H209.95V374.703H210.88V375.693H209.95V377.213H208.83V375.693H205.21ZM208.88 371.173L206.52 374.703H208.88V371.173ZM211.825 373.473C211.825 372.32 212.018 371.42 212.405 370.773C212.798 370.12 213.471 369.793 214.425 369.793C215.378 369.793 216.048 370.12 216.435 370.773C216.828 371.42 217.025 372.32 217.025 373.473C217.025 374.64 216.828 375.553 216.435 376.213C216.048 376.866 215.378 377.193 214.425 377.193C213.471 377.193 212.798 376.866 212.405 376.213C212.018 375.553 211.825 374.64 211.825 373.473ZM215.905 373.473C215.905 372.933 215.868 372.476 215.795 372.103C215.728 371.73 215.588 371.426 215.375 371.193C215.161 370.953 214.845 370.833 214.425 370.833C214.005 370.833 213.688 370.953 213.475 371.193C213.261 371.426 213.118 371.73 213.045 372.103C212.978 372.476 212.945 372.933 212.945 373.473C212.945 374.033 212.978 374.503 213.045 374.883C213.111 375.263 213.251 375.57 213.465 375.803C213.685 376.036 214.005 376.153 214.425 376.153C214.845 376.153 215.161 376.036 215.375 375.803C215.595 375.57 215.738 375.263 215.805 374.883C215.871 374.503 215.905 374.033 215.905 373.473Z" fill="#01070D"/>
<path d="M238.304 370.903H234.954V372.893C235.094 372.706 235.301 372.55 235.574 372.423C235.854 372.296 236.151 372.233 236.464 372.233C237.024 372.233 237.477 372.353 237.824 372.593C238.177 372.833 238.427 373.136 238.574 373.503C238.727 373.87 238.804 374.256 238.804 374.663C238.804 375.156 238.707 375.596 238.514 375.983C238.327 376.363 238.044 376.663 237.664 376.883C237.291 377.103 236.831 377.213 236.284 377.213C235.557 377.213 234.974 377.033 234.534 376.673C234.094 376.313 233.831 375.836 233.744 375.243H234.854C234.927 375.556 235.091 375.806 235.344 375.993C235.597 376.173 235.914 376.263 236.294 376.263C236.767 376.263 237.121 376.12 237.354 375.833C237.594 375.546 237.714 375.166 237.714 374.693C237.714 374.213 237.594 373.846 237.354 373.593C237.114 373.333 236.761 373.203 236.294 373.203C235.967 373.203 235.691 373.286 235.464 373.453C235.244 373.613 235.084 373.833 234.984 374.113H233.904V369.903H238.304V370.903ZM239.991 373.473C239.991 372.32 240.184 371.42 240.571 370.773C240.964 370.12 241.637 369.793 242.591 369.793C243.544 369.793 244.214 370.12 244.601 370.773C244.994 371.42 245.191 372.32 245.191 373.473C245.191 374.64 244.994 375.553 244.601 376.213C244.214 376.866 243.544 377.193 242.591 377.193C241.637 377.193 240.964 376.866 240.571 376.213C240.184 375.553 239.991 374.64 239.991 373.473ZM244.071 373.473C244.071 372.933 244.034 372.476 243.961 372.103C243.894 371.73 243.754 371.426 243.541 371.193C243.327 370.953 243.011 370.833 242.591 370.833C242.171 370.833 241.854 370.953 241.641 371.193C241.427 371.426 241.284 371.73 241.211 372.103C241.144 372.476 241.111 372.933 241.111 373.473C241.111 374.033 241.144 374.503 241.211 374.883C241.277 375.263 241.417 375.57 241.631 375.803C241.851 376.036 242.171 376.153 242.591 376.153C243.011 376.153 243.327 376.036 243.541 375.803C243.761 375.57 243.904 375.263 243.971 374.883C244.037 374.503 244.071 374.033 244.071 373.473Z" fill="#01070D"/>
<path d="M265.776 371.613C265.703 371.306 265.569 371.076 265.376 370.923C265.183 370.77 264.913 370.693 264.566 370.693C264.039 370.693 263.646 370.896 263.386 371.303C263.126 371.703 262.989 372.37 262.976 373.303C263.149 373.01 263.403 372.783 263.736 372.623C264.069 372.463 264.429 372.383 264.816 372.383C265.256 372.383 265.643 372.48 265.976 372.673C266.316 372.86 266.579 373.133 266.766 373.493C266.959 373.853 267.056 374.283 267.056 374.783C267.056 375.25 266.963 375.666 266.776 376.033C266.596 376.4 266.326 376.69 265.966 376.903C265.606 377.11 265.173 377.213 264.666 377.213C263.979 377.213 263.439 377.063 263.046 376.763C262.659 376.456 262.386 376.026 262.226 375.473C262.073 374.92 261.996 374.23 261.996 373.403C261.996 370.963 262.856 369.743 264.576 369.743C265.243 369.743 265.766 369.923 266.146 370.283C266.533 370.643 266.759 371.086 266.826 371.613H265.776ZM264.566 373.343C264.159 373.343 263.813 373.466 263.526 373.713C263.246 373.953 263.106 374.303 263.106 374.763C263.106 375.223 263.236 375.59 263.496 375.863C263.763 376.13 264.133 376.263 264.606 376.263C265.026 376.263 265.356 376.133 265.596 375.873C265.843 375.613 265.966 375.266 265.966 374.833C265.966 374.38 265.846 374.02 265.606 373.753C265.373 373.48 265.026 373.343 264.566 373.343ZM268.272 373.473C268.272 372.32 268.465 371.42 268.852 370.773C269.245 370.12 269.919 369.793 270.872 369.793C271.825 369.793 272.495 370.12 272.882 370.773C273.275 371.42 273.472 372.32 273.472 373.473C273.472 374.64 273.275 375.553 272.882 376.213C272.495 376.866 271.825 377.193 270.872 377.193C269.919 377.193 269.245 376.866 268.852 376.213C268.465 375.553 268.272 374.64 268.272 373.473ZM272.352 373.473C272.352 372.933 272.315 372.476 272.242 372.103C272.175 371.73 272.035 371.426 271.822 371.193C271.609 370.953 271.292 370.833 270.872 370.833C270.452 370.833 270.135 370.953 269.922 371.193C269.709 371.426 269.565 371.73 269.492 372.103C269.425 372.476 269.392 372.933 269.392 373.473C269.392 374.033 269.425 374.503 269.492 374.883C269.559 375.263 269.699 375.57 269.912 375.803C270.132 376.036 270.452 376.153 270.872 376.153C271.292 376.153 271.609 376.036 271.822 375.803C272.042 375.57 272.185 375.263 272.252 374.883C272.319 374.503 272.352 374.033 272.352 373.473Z" fill="#01070D"/>
</g>
<path d="M102.5 143H122" stroke="#1D92FF" stroke-width="4" stroke-linecap="round" stroke-linejoin="round"/>
<path d="M102.5 152H122" stroke="#1D92FF" stroke-width="4" stroke-linecap="round" stroke-linejoin="round"/>
<path d="M102.5 161H122" stroke="#1D92FF" stroke-width="4" stroke-linecap="round" stroke-linejoin="round"/>
<defs>
<filter id="filter0_f_10950_3" x="0" y="0" width="404" height="488" filterUnits="userSpaceOnUse" color-interpolation-filters="sRGB">
<feFlood flood-opacity="0" result="BackgroundImageFix"/>
<feBlend mode="normal" in="SourceGraphic" in2="BackgroundImageFix" result="shape"/>
<feGaussianBlur stdDeviation="37" result="effect1_foregroundBlur_10950_3"/>
</filter>
</defs>
</svg>
