<svg width="90" height="89" viewBox="0 0 90 89" fill="none" xmlns="http://www.w3.org/2000/svg">
<path opacity="0.05" d="M48 2.09766L87.2352 46.6127L42.7202 85.8479L3.48499 41.3329L48 2.09766Z" fill="#1D92FF"/>
<path opacity="0.3" d="M47.6195 1.16874L87.9816 46.9623L42.188 87.3244L1.82589 41.5309L47.6195 1.16874Z" stroke="#002547" stroke-width="0.3"/>
<circle opacity="0.3" cx="47.5" cy="1.54883" r="1.5" fill="#002547"/>
<circle opacity="0.3" cx="42.3008" cy="87.249" r="1" fill="#002547"/>
<circle opacity="0.3" cx="1.5" cy="41.5488" r="1.5" fill="#002547"/>
<circle opacity="0.3" cx="88.5" cy="46.5488" r="1.5" fill="#002547"/>
<path d="M57.7901 40.179C57.7901 35.5028 54.008 31.7207 49.3317 31.7207C44.6555 31.7207 40.8734 35.5028 40.8734 40.179C40.8734 44.372 43.9184 47.8399 47.918 48.5045V53.2653H38.2513V49.6403H39.4596V44.807C39.4596 44.1424 38.9159 43.5986 38.2513 43.5986H34.6263C33.9617 43.5986 33.418 44.1424 33.418 44.807V49.6403H34.6263V55.682H53.9596V53.2653H50.3346V48.577C54.5276 48.0815 57.7901 44.517 57.7901 40.179ZM36.4388 42.3903C37.4417 42.3903 38.2513 41.5807 38.2513 40.5778C38.2513 39.5749 37.4417 38.7653 36.4388 38.7653C35.4359 38.7653 34.6263 39.5749 34.6263 40.5778C34.6263 41.5807 35.4359 42.3903 36.4388 42.3903Z" fill="#002547"/>
</svg>
