<svg width="255" height="111" viewBox="0 0 255 111" fill="none" xmlns="http://www.w3.org/2000/svg">
<rect x="33" y="35.0488" width="222" height="36" rx="18" fill="#FAFAFA"/>
<rect x="33.25" y="35.2988" width="221.5" height="35.5" rx="17.75" stroke="#01070D" stroke-opacity="0.05" stroke-width="0.5"/>
<g filter="url(#filter0_d_11016_19)">
<rect x="34" y="36.0977" width="110" height="34" rx="17" fill="white"/>
</g>
<path d="M73.192 49.0528V58.0488H72.009V51.3408L69.019 58.0488H68.187L65.184 51.3278V58.0488H64.001V49.0528H65.275L68.603 56.4888L71.931 49.0528H73.192ZM78.3053 58.1658C77.6379 58.1658 77.0313 58.0142 76.4853 57.7108C75.9479 57.4075 75.5233 56.9785 75.2113 56.4238C74.9079 55.8605 74.7563 55.2105 74.7563 54.4738C74.7563 53.7458 74.9123 53.1045 75.2243 52.5498C75.5449 51.9865 75.9783 51.5575 76.5243 51.2628C77.0703 50.9595 77.6813 50.8078 78.3573 50.8078C79.0333 50.8078 79.6443 50.9595 80.1903 51.2628C80.7363 51.5575 81.1653 51.9822 81.4773 52.5368C81.7979 53.0915 81.9583 53.7372 81.9583 54.4738C81.9583 55.2105 81.7936 55.8605 81.4643 56.4238C81.1436 56.9785 80.7059 57.4075 80.1513 57.7108C79.5966 58.0142 78.9813 58.1658 78.3053 58.1658ZM78.3053 57.1258C78.7299 57.1258 79.1286 57.0262 79.5013 56.8268C79.8739 56.6275 80.1729 56.3285 80.3983 55.9298C80.6323 55.5312 80.7493 55.0458 80.7493 54.4738C80.7493 53.9018 80.6366 53.4165 80.4113 53.0178C80.1859 52.6192 79.8913 52.3245 79.5273 52.1338C79.1633 51.9345 78.7689 51.8348 78.3443 51.8348C77.9109 51.8348 77.5123 51.9345 77.1483 52.1338C76.7929 52.3245 76.5069 52.6192 76.2903 53.0178C76.0736 53.4165 75.9653 53.9018 75.9653 54.4738C75.9653 55.0545 76.0693 55.5442 76.2773 55.9428C76.4939 56.3415 76.7799 56.6405 77.1353 56.8398C77.4906 57.0305 77.8806 57.1258 78.3053 57.1258ZM86.9847 50.7948C87.8514 50.7948 88.5534 51.0592 89.0907 51.5878C89.628 52.1078 89.8967 52.8618 89.8967 53.8498V58.0488H88.7267V54.0188C88.7267 53.3082 88.549 52.7665 88.1937 52.3938C87.8384 52.0125 87.353 51.8218 86.7377 51.8218C86.1137 51.8218 85.6154 52.0168 85.2427 52.4068C84.8787 52.7968 84.6967 53.3645 84.6967 54.1098V58.0488H83.5137V50.9248H84.6967V51.9388C84.9307 51.5748 85.247 51.2932 85.6457 51.0938C86.053 50.8945 86.4994 50.7948 86.9847 50.7948ZM93.2721 51.8998V56.0988C93.2721 56.4455 93.3458 56.6925 93.4931 56.8398C93.6405 56.9785 93.8961 57.0478 94.2601 57.0478H95.1311V58.0488H94.0651C93.4065 58.0488 92.9125 57.8972 92.5831 57.5938C92.2538 57.2905 92.0891 56.7922 92.0891 56.0988V51.8998H91.1661V50.9248H92.0891V49.1308H93.2721V50.9248H95.1311V51.8998H93.2721ZM100.1 50.7948C100.638 50.7948 101.123 50.9118 101.556 51.1458C101.99 51.3712 102.328 51.7135 102.57 52.1728C102.822 52.6322 102.947 53.1912 102.947 53.8498V58.0488H101.777V54.0188C101.777 53.3082 101.6 52.7665 101.244 52.3938C100.889 52.0125 100.404 51.8218 99.7885 51.8218C99.1645 51.8218 98.6661 52.0168 98.2935 52.4068C97.9295 52.7968 97.7475 53.3645 97.7475 54.1098V58.0488H96.5645V48.4288H97.7475V51.9388C97.9815 51.5748 98.3021 51.2932 98.7095 51.0938C99.1255 50.8945 99.5891 50.7948 100.1 50.7948ZM105.491 49.7678C105.266 49.7678 105.075 49.6898 104.919 49.5338C104.763 49.3778 104.685 49.1872 104.685 48.9618C104.685 48.7365 104.763 48.5458 104.919 48.3898C105.075 48.2338 105.266 48.1558 105.491 48.1558C105.708 48.1558 105.89 48.2338 106.037 48.3898C106.193 48.5458 106.271 48.7365 106.271 48.9618C106.271 49.1872 106.193 49.3778 106.037 49.5338C105.89 49.6898 105.708 49.7678 105.491 49.7678ZM106.063 50.9248V58.0488H104.88V50.9248H106.063ZM114.215 50.9248L109.925 61.4028H108.703L110.107 57.9708L107.234 50.9248H108.547L110.783 56.6968L112.993 50.9248H114.215Z" fill="#01070D"/>
<path d="M174.357 56.0338H170.405L169.677 58.0488H168.429L171.705 49.0398H173.07L176.333 58.0488H175.085L174.357 56.0338ZM174.019 55.0718L172.381 50.4958L170.743 55.0718H174.019ZM181.232 50.7948C182.098 50.7948 182.8 51.0592 183.338 51.5878C183.875 52.1078 184.144 52.8618 184.144 53.8498V58.0488H182.974V54.0188C182.974 53.3082 182.796 52.7665 182.441 52.3938C182.085 52.0125 181.6 51.8218 180.985 51.8218C180.361 51.8218 179.862 52.0168 179.49 52.4068C179.126 52.7968 178.944 53.3645 178.944 54.1098V58.0488H177.761V50.9248H178.944V51.9388C179.178 51.5748 179.494 51.2932 179.893 51.0938C180.3 50.8945 180.746 50.7948 181.232 50.7948ZM189.547 50.7948C190.414 50.7948 191.116 51.0592 191.653 51.5878C192.191 52.1078 192.459 52.8618 192.459 53.8498V58.0488H191.289V54.0188C191.289 53.3082 191.112 52.7665 190.756 52.3938C190.401 52.0125 189.916 51.8218 189.3 51.8218C188.676 51.8218 188.178 52.0168 187.805 52.4068C187.441 52.7968 187.259 53.3645 187.259 54.1098V58.0488H186.076V50.9248H187.259V51.9388C187.493 51.5748 187.81 51.2932 188.208 51.0938C188.616 50.8945 189.062 50.7948 189.547 50.7948ZM200.71 50.9248V58.0488H199.527V56.9958C199.301 57.3598 198.985 57.6458 198.578 57.8538C198.179 58.0532 197.737 58.1528 197.252 58.1528C196.697 58.1528 196.199 58.0402 195.757 57.8148C195.315 57.5808 194.964 57.2342 194.704 56.7748C194.452 56.3155 194.327 55.7565 194.327 55.0978V50.9248H195.497V54.9418C195.497 55.6438 195.674 56.1855 196.03 56.5668C196.385 56.9395 196.87 57.1258 197.486 57.1258C198.118 57.1258 198.617 56.9308 198.981 56.5408C199.345 56.1508 199.527 55.5832 199.527 54.8378V50.9248H200.71ZM202.265 54.4608C202.265 53.7328 202.412 53.0958 202.707 52.5498C203.002 51.9952 203.405 51.5662 203.916 51.2628C204.436 50.9595 205.012 50.8078 205.645 50.8078C206.269 50.8078 206.811 50.9422 207.27 51.2108C207.729 51.4795 208.072 51.8175 208.297 52.2248V50.9248H209.493V58.0488H208.297V56.7228C208.063 57.1388 207.712 57.4855 207.244 57.7628C206.785 58.0315 206.247 58.1658 205.632 58.1658C204.999 58.1658 204.427 58.0098 203.916 57.6978C203.405 57.3858 203.002 56.9482 202.707 56.3848C202.412 55.8215 202.265 55.1802 202.265 54.4608ZM208.297 54.4738C208.297 53.9365 208.189 53.4685 207.972 53.0698C207.755 52.6712 207.461 52.3678 207.088 52.1598C206.724 51.9432 206.321 51.8348 205.879 51.8348C205.437 51.8348 205.034 51.9388 204.67 52.1468C204.306 52.3548 204.016 52.6582 203.799 53.0568C203.582 53.4555 203.474 53.9235 203.474 54.4608C203.474 55.0068 203.582 55.4835 203.799 55.8908C204.016 56.2895 204.306 56.5972 204.67 56.8138C205.034 57.0218 205.437 57.1258 205.879 57.1258C206.321 57.1258 206.724 57.0218 207.088 56.8138C207.461 56.5972 207.755 56.2895 207.972 55.8908C208.189 55.4835 208.297 55.0112 208.297 54.4738ZM212.675 48.4288V58.0488H211.492V48.4288H212.675ZM215.874 48.4288V58.0488H214.691V48.4288H215.874ZM224.027 50.9248L219.737 61.4028H218.515L219.919 57.9708L217.046 50.9248H218.359L220.595 56.6968L222.805 50.9248H224.027Z" fill="#01070D" fill-opacity="0.4"/>
<defs>
<filter id="filter0_d_11016_19" x="0" y="0.0976562" width="186" height="110" filterUnits="userSpaceOnUse" color-interpolation-filters="sRGB">
<feFlood flood-opacity="0" result="BackgroundImageFix"/>
<feColorMatrix in="SourceAlpha" type="matrix" values="0 0 0 0 0 0 0 0 0 0 0 0 0 0 0 0 0 0 127 0" result="hardAlpha"/>
<feOffset dx="4" dy="2"/>
<feGaussianBlur stdDeviation="19"/>
<feColorMatrix type="matrix" values="0 0 0 0 0 0 0 0 0 0 0 0 0 0 0 0 0 0 0.02 0"/>
<feBlend mode="normal" in2="BackgroundImageFix" result="effect1_dropShadow_11016_19"/>
<feBlend mode="normal" in="SourceGraphic" in2="effect1_dropShadow_11016_19" result="shape"/>
</filter>
</defs>
</svg>
