<svg width="238" height="161" viewBox="0 0 238 161" fill="none" xmlns="http://www.w3.org/2000/svg">
<path d="M32.56 13.4488C32.56 12.3502 32.8053 11.3688 33.296 10.5048C33.7973 9.63016 34.4747 8.95283 35.328 8.47283C36.192 7.98216 37.1573 7.73683 38.224 7.73683C39.472 7.73683 40.5653 8.05683 41.504 8.69683C42.4427 9.33683 43.0987 10.2222 43.472 11.3528H40.896C40.64 10.8195 40.2773 10.4195 39.808 10.1528C39.3493 9.88616 38.816 9.75283 38.208 9.75283C37.5573 9.75283 36.976 9.90749 36.464 10.2168C35.9627 10.5155 35.568 10.9422 35.28 11.4968C35.0027 12.0515 34.864 12.7022 34.864 13.4488C34.864 14.1848 35.0027 14.8355 35.28 15.4008C35.568 15.9555 35.9627 16.3875 36.464 16.6968C36.976 16.9955 37.5573 17.1448 38.208 17.1448C38.816 17.1448 39.3493 17.0115 39.808 16.7448C40.2773 16.4675 40.64 16.0622 40.896 15.5288H43.472C43.0987 16.6702 42.4427 17.5608 41.504 18.2008C40.576 18.8302 39.4827 19.1448 38.224 19.1448C37.1573 19.1448 36.192 18.9048 35.328 18.4248C34.4747 17.9342 33.7973 17.2568 33.296 16.3928C32.8053 15.5288 32.56 14.5475 32.56 13.4488ZM49.3213 19.1928C48.4679 19.1928 47.6999 19.0062 47.0173 18.6328C46.3346 18.2488 45.7959 17.7102 45.4013 17.0168C45.0173 16.3235 44.8253 15.5235 44.8253 14.6168C44.8253 13.7102 45.0226 12.9102 45.4173 12.2168C45.8226 11.5235 46.3719 10.9902 47.0653 10.6168C47.7586 10.2328 48.5319 10.0408 49.3853 10.0408C50.2386 10.0408 51.0119 10.2328 51.7053 10.6168C52.3986 10.9902 52.9426 11.5235 53.3373 12.2168C53.7426 12.9102 53.9453 13.7102 53.9453 14.6168C53.9453 15.5235 53.7373 16.3235 53.3212 17.0168C52.9159 17.7102 52.3613 18.2488 51.6573 18.6328C50.9639 19.0062 50.1853 19.1928 49.3213 19.1928ZM49.3213 17.2408C49.7266 17.2408 50.1053 17.1448 50.4573 16.9528C50.8199 16.7502 51.1079 16.4515 51.3213 16.0568C51.5346 15.6622 51.6413 15.1822 51.6413 14.6168C51.6413 13.7742 51.4173 13.1288 50.9693 12.6808C50.5319 12.2222 49.9933 11.9928 49.3533 11.9928C48.7133 11.9928 48.1746 12.2222 47.7373 12.6808C47.3106 13.1288 47.0973 13.7742 47.0973 14.6168C47.0973 15.4595 47.3053 16.1102 47.7213 16.5688C48.1479 17.0168 48.6813 17.2408 49.3213 17.2408ZM60.5004 10.0568C61.5564 10.0568 62.4097 10.3928 63.0604 11.0648C63.711 11.7262 64.0364 12.6542 64.0364 13.8488V19.0488H61.7964V14.1528C61.7964 13.4488 61.6204 12.9102 61.2684 12.5368C60.9164 12.1528 60.4364 11.9608 59.8284 11.9608C59.2097 11.9608 58.719 12.1528 58.3564 12.5368C58.0044 12.9102 57.8284 13.4488 57.8284 14.1528V19.0488H55.5884V10.1848H57.8284V11.2888C58.127 10.9048 58.5057 10.6062 58.9644 10.3928C59.4337 10.1688 59.9457 10.0568 60.5004 10.0568ZM69.5585 19.1928C68.8332 19.1928 68.1825 19.0648 67.6065 18.8088C67.0305 18.5422 66.5718 18.1848 66.2305 17.7368C65.8998 17.2888 65.7185 16.7928 65.6865 16.2488H67.9425C67.9852 16.5902 68.1505 16.8728 68.4385 17.0968C68.7372 17.3208 69.1052 17.4328 69.5425 17.4328C69.9692 17.4328 70.2998 17.3475 70.5345 17.1768C70.7798 17.0062 70.9025 16.7875 70.9025 16.5208C70.9025 16.2328 70.7532 16.0195 70.4545 15.8808C70.1665 15.7315 69.7025 15.5715 69.0625 15.4008C68.4012 15.2408 67.8572 15.0755 67.4305 14.9048C67.0145 14.7342 66.6518 14.4728 66.3425 14.1208C66.0438 13.7688 65.8945 13.2942 65.8945 12.6968C65.8945 12.2062 66.0332 11.7582 66.3105 11.3528C66.5985 10.9475 67.0038 10.6275 67.5265 10.3928C68.0598 10.1582 68.6838 10.0408 69.3985 10.0408C70.4545 10.0408 71.2972 10.3075 71.9265 10.8408C72.5558 11.3635 72.9025 12.0728 72.9665 12.9688H70.8225C70.7905 12.6168 70.6412 12.3395 70.3745 12.1368C70.1185 11.9235 69.7718 11.8168 69.3345 11.8168C68.9292 11.8168 68.6145 11.8915 68.3905 12.0408C68.1772 12.1902 68.0705 12.3982 68.0705 12.6648C68.0705 12.9635 68.2198 13.1928 68.5185 13.3528C68.8172 13.5022 69.2812 13.6568 69.9105 13.8168C70.5505 13.9768 71.0785 14.1422 71.4945 14.3128C71.9105 14.4835 72.2678 14.7502 72.5665 15.1128C72.8758 15.4648 73.0358 15.9342 73.0465 16.5208C73.0465 17.0328 72.9025 17.4915 72.6145 17.8968C72.3372 18.3022 71.9318 18.6222 71.3985 18.8568C70.8758 19.0808 70.2625 19.1928 69.5585 19.1928ZM83.2533 10.1848V19.0488H80.9973V17.9288C80.7093 18.3128 80.3306 18.6168 79.8613 18.8408C79.4026 19.0542 78.9013 19.1608 78.3573 19.1608C77.6639 19.1608 77.0506 19.0168 76.5173 18.7288C75.9839 18.4302 75.5626 17.9982 75.2533 17.4328C74.9546 16.8568 74.8053 16.1742 74.8053 15.3848V10.1848H77.0453V15.0648C77.0453 15.7688 77.2213 16.3128 77.5733 16.6968C77.9253 17.0702 78.4053 17.2568 79.0133 17.2568C79.6319 17.2568 80.1173 17.0702 80.4693 16.6968C80.8213 16.3128 80.9973 15.7688 80.9973 15.0648V10.1848H83.2533ZM87.7034 7.20883V19.0488H85.4634V7.20883H87.7034ZM92.5245 12.0248V16.3128C92.5245 16.6115 92.5938 16.8302 92.7325 16.9688C92.8818 17.0968 93.1272 17.1608 93.4685 17.1608H94.5085V19.0488H93.1005C91.2125 19.0488 90.2685 18.1315 90.2685 16.2968V12.0248H89.2125V10.1848H90.2685V7.99283H92.5245V10.1848H94.5085V12.0248H92.5245ZM97.2556 9.12883C96.861 9.12883 96.5303 9.00616 96.2636 8.76083C96.0076 8.50483 95.8796 8.19016 95.8796 7.81683C95.8796 7.44349 96.0076 7.13416 96.2636 6.88883C96.5303 6.63283 96.861 6.50483 97.2556 6.50483C97.6503 6.50483 97.9756 6.63283 98.2316 6.88883C98.4983 7.13416 98.6316 7.44349 98.6316 7.81683C98.6316 8.19016 98.4983 8.50483 98.2316 8.76083C97.9756 9.00616 97.6503 9.12883 97.2556 9.12883ZM98.3596 10.1848V19.0488H96.1196V10.1848H98.3596ZM105.485 10.0568C106.541 10.0568 107.394 10.3928 108.045 11.0648C108.695 11.7262 109.021 12.6542 109.021 13.8488V19.0488H106.781V14.1528C106.781 13.4488 106.605 12.9102 106.253 12.5368C105.901 12.1528 105.421 11.9608 104.813 11.9608C104.194 11.9608 103.703 12.1528 103.341 12.5368C102.989 12.9102 102.813 13.4488 102.813 14.1528V19.0488H100.573V10.1848H102.813V11.2888C103.111 10.9048 103.49 10.6062 103.949 10.3928C104.418 10.1688 104.93 10.0568 105.485 10.0568ZM114.623 10.0408C115.284 10.0408 115.866 10.1742 116.367 10.4408C116.868 10.6968 117.263 11.0328 117.551 11.4488V10.1848H119.807V19.1128C119.807 19.9342 119.642 20.6648 119.311 21.3048C118.98 21.9555 118.484 22.4675 117.823 22.8408C117.162 23.2248 116.362 23.4168 115.423 23.4168C114.164 23.4168 113.13 23.1235 112.319 22.5368C111.519 21.9502 111.066 21.1502 110.959 20.1368H113.183C113.3 20.5422 113.551 20.8622 113.935 21.0968C114.33 21.3422 114.804 21.4648 115.359 21.4648C116.01 21.4648 116.538 21.2675 116.943 20.8728C117.348 20.4888 117.551 19.9022 117.551 19.1128V17.7368C117.263 18.1528 116.863 18.4995 116.351 18.7768C115.85 19.0542 115.274 19.1928 114.623 19.1928C113.876 19.1928 113.194 19.0008 112.575 18.6168C111.956 18.2328 111.466 17.6942 111.103 17.0008C110.751 16.2968 110.575 15.4915 110.575 14.5848C110.575 13.6888 110.751 12.8942 111.103 12.2008C111.466 11.5075 111.951 10.9742 112.559 10.6008C113.178 10.2275 113.866 10.0408 114.623 10.0408ZM117.551 14.6168C117.551 14.0728 117.444 13.6088 117.231 13.2248C117.018 12.8302 116.73 12.5315 116.367 12.3288C116.004 12.1155 115.615 12.0088 115.199 12.0088C114.783 12.0088 114.399 12.1102 114.047 12.3128C113.695 12.5155 113.407 12.8142 113.183 13.2088C112.97 13.5928 112.863 14.0515 112.863 14.5848C112.863 15.1182 112.97 15.5875 113.183 15.9928C113.407 16.3875 113.695 16.6915 114.047 16.9048C114.41 17.1182 114.794 17.2248 115.199 17.2248C115.615 17.2248 116.004 17.1235 116.367 16.9208C116.73 16.7075 117.018 16.4088 117.231 16.0248C117.444 15.6302 117.551 15.1608 117.551 14.6168ZM138.095 10.1848L135.503 19.0488H133.087L131.471 12.8568L129.855 19.0488H127.423L124.815 10.1848H127.087L128.655 16.9368L130.351 10.1848H132.719L134.383 16.9208L135.951 10.1848H138.095ZM140.443 9.12883C140.048 9.12883 139.718 9.00616 139.451 8.76083C139.195 8.50483 139.067 8.19016 139.067 7.81683C139.067 7.44349 139.195 7.13416 139.451 6.88883C139.718 6.63283 140.048 6.50483 140.443 6.50483C140.838 6.50483 141.163 6.63283 141.419 6.88883C141.686 7.13416 141.819 7.44349 141.819 7.81683C141.819 8.19016 141.686 8.50483 141.419 8.76083C141.163 9.00616 140.838 9.12883 140.443 9.12883ZM141.547 10.1848V19.0488H139.307V10.1848H141.547ZM146.368 12.0248V16.3128C146.368 16.6115 146.438 16.8302 146.576 16.9688C146.726 17.0968 146.971 17.1608 147.312 17.1608H148.352V19.0488H146.944C145.056 19.0488 144.112 18.1315 144.112 16.2968V12.0248H143.056V10.1848H144.112V7.99283H146.368V10.1848H148.352V12.0248H146.368ZM154.955 10.0568C155.627 10.0568 156.225 10.2062 156.747 10.5048C157.27 10.7928 157.675 11.2248 157.963 11.8008C158.262 12.3662 158.411 13.0488 158.411 13.8488V19.0488H156.171V14.1528C156.171 13.4488 155.995 12.9102 155.643 12.5368C155.291 12.1528 154.811 11.9608 154.203 11.9608C153.585 11.9608 153.094 12.1528 152.731 12.5368C152.379 12.9102 152.203 13.4488 152.203 14.1528V19.0488H149.963V7.20883H152.203V11.2888C152.491 10.9048 152.875 10.6062 153.355 10.3928C153.835 10.1688 154.369 10.0568 154.955 10.0568ZM172.594 14.4248C172.594 14.7448 172.573 15.0328 172.53 15.2888H166.05C166.103 15.9288 166.327 16.4302 166.722 16.7928C167.117 17.1555 167.602 17.3368 168.178 17.3368C169.01 17.3368 169.602 16.9795 169.954 16.2648H172.37C172.114 17.1182 171.623 17.8222 170.898 18.3768C170.173 18.9208 169.282 19.1928 168.226 19.1928C167.373 19.1928 166.605 19.0062 165.922 18.6328C165.25 18.2488 164.722 17.7102 164.338 17.0168C163.965 16.3235 163.778 15.5235 163.778 14.6168C163.778 13.6995 163.965 12.8942 164.338 12.2008C164.711 11.5075 165.234 10.9742 165.906 10.6008C166.578 10.2275 167.351 10.0408 168.226 10.0408C169.069 10.0408 169.821 10.2222 170.482 10.5848C171.154 10.9475 171.671 11.4648 172.034 12.1368C172.407 12.7982 172.594 13.5608 172.594 14.4248ZM170.274 13.7848C170.263 13.2088 170.055 12.7502 169.65 12.4088C169.245 12.0568 168.749 11.8808 168.162 11.8808C167.607 11.8808 167.138 12.0515 166.754 12.3928C166.381 12.7235 166.151 13.1875 166.066 13.7848H170.274ZM179.125 19.0488L177.301 16.2968L175.685 19.0488H173.285L176.181 14.6008L173.253 10.1848H175.781L177.589 12.9208L179.221 10.1848H181.621L178.709 14.6008L181.653 19.0488H179.125ZM185.11 11.4648C185.398 11.0595 185.792 10.7235 186.294 10.4568C186.806 10.1795 187.387 10.0408 188.038 10.0408C188.795 10.0408 189.478 10.2275 190.086 10.6008C190.704 10.9742 191.19 11.5075 191.542 12.2008C191.904 12.8835 192.086 13.6782 192.086 14.5848C192.086 15.4915 191.904 16.2968 191.542 17.0008C191.19 17.6942 190.704 18.2328 190.086 18.6168C189.478 19.0008 188.795 19.1928 188.038 19.1928C187.387 19.1928 186.811 19.0595 186.31 18.7928C185.819 18.5262 185.419 18.1902 185.11 17.7848V23.2728H182.87V10.1848H185.11V11.4648ZM189.798 14.5848C189.798 14.0515 189.686 13.5928 189.462 13.2088C189.248 12.8142 188.96 12.5155 188.598 12.3128C188.246 12.1102 187.862 12.0088 187.446 12.0088C187.04 12.0088 186.656 12.1155 186.294 12.3288C185.942 12.5315 185.654 12.8302 185.43 13.2248C185.216 13.6195 185.11 14.0835 185.11 14.6168C185.11 15.1502 185.216 15.6142 185.43 16.0088C185.654 16.4035 185.942 16.7075 186.294 16.9208C186.656 17.1235 187.04 17.2248 187.446 17.2248C187.862 17.2248 188.246 17.1182 188.598 16.9048C188.96 16.6915 189.248 16.3875 189.462 15.9928C189.686 15.5982 189.798 15.1288 189.798 14.5848ZM201.953 14.4248C201.953 14.7448 201.932 15.0328 201.889 15.2888H195.409C195.463 15.9288 195.687 16.4302 196.081 16.7928C196.476 17.1555 196.961 17.3368 197.537 17.3368C198.369 17.3368 198.961 16.9795 199.313 16.2648H201.729C201.473 17.1182 200.983 17.8222 200.257 18.3768C199.532 18.9208 198.641 19.1928 197.585 19.1928C196.732 19.1928 195.964 19.0062 195.281 18.6328C194.609 18.2488 194.081 17.7102 193.697 17.0168C193.324 16.3235 193.137 15.5235 193.137 14.6168C193.137 13.6995 193.324 12.8942 193.697 12.2008C194.071 11.5075 194.593 10.9742 195.265 10.6008C195.937 10.2275 196.711 10.0408 197.585 10.0408C198.428 10.0408 199.18 10.2222 199.841 10.5848C200.513 10.9475 201.031 11.4648 201.393 12.1368C201.767 12.7982 201.953 13.5608 201.953 14.4248ZM199.633 13.7848C199.623 13.2088 199.415 12.7502 199.009 12.4088C198.604 12.0568 198.108 11.8808 197.521 11.8808C196.967 11.8808 196.497 12.0515 196.113 12.3928C195.74 12.7235 195.511 13.1875 195.425 13.7848H199.633ZM205.828 11.5608C206.116 11.0915 206.49 10.7235 206.948 10.4568C207.418 10.1902 207.951 10.0568 208.548 10.0568V12.4088H207.956C207.252 12.4088 206.719 12.5742 206.356 12.9048C206.004 13.2355 205.828 13.8115 205.828 14.6328V19.0488H203.588V10.1848H205.828V11.5608ZM212.665 12.0248V16.3128C212.665 16.6115 212.734 16.8302 212.873 16.9688C213.022 17.0968 213.268 17.1608 213.609 17.1608H214.649V19.0488H213.241C211.353 19.0488 210.409 18.1315 210.409 16.2968V12.0248H209.353V10.1848H210.409V7.99283H212.665V10.1848H214.649V12.0248H212.665ZM219.652 19.1928C218.927 19.1928 218.276 19.0648 217.7 18.8088C217.124 18.5422 216.666 18.1848 216.324 17.7368C215.994 17.2888 215.812 16.7928 215.78 16.2488H218.036C218.079 16.5902 218.244 16.8728 218.532 17.0968C218.831 17.3208 219.199 17.4328 219.636 17.4328C220.063 17.4328 220.394 17.3475 220.628 17.1768C220.874 17.0062 220.996 16.7875 220.996 16.5208C220.996 16.2328 220.847 16.0195 220.548 15.8808C220.26 15.7315 219.796 15.5715 219.156 15.4008C218.495 15.2408 217.951 15.0755 217.524 14.9048C217.108 14.7342 216.746 14.4728 216.436 14.1208C216.138 13.7688 215.988 13.2942 215.988 12.6968C215.988 12.2062 216.127 11.7582 216.404 11.3528C216.692 10.9475 217.098 10.6275 217.62 10.3928C218.154 10.1582 218.778 10.0408 219.492 10.0408C220.548 10.0408 221.391 10.3075 222.02 10.8408C222.65 11.3635 222.996 12.0728 223.06 12.9688H220.916C220.884 12.6168 220.735 12.3395 220.468 12.1368C220.212 11.9235 219.866 11.8168 219.428 11.8168C219.023 11.8168 218.708 11.8915 218.484 12.0408C218.271 12.1902 218.164 12.3982 218.164 12.6648C218.164 12.9635 218.314 13.1928 218.612 13.3528C218.911 13.5022 219.375 13.6568 220.004 13.8168C220.644 13.9768 221.172 14.1422 221.588 14.3128C222.004 14.4835 222.362 14.7502 222.66 15.1128C222.97 15.4648 223.13 15.9342 223.14 16.5208C223.14 17.0328 222.996 17.4915 222.708 17.8968C222.431 18.3022 222.026 18.6222 221.492 18.8568C220.97 19.0808 220.356 19.1928 219.652 19.1928ZM33.552 42.5208C34.576 41.6675 35.392 40.9582 36 40.3928C36.608 39.8168 37.1147 39.2195 37.52 38.6008C37.9253 37.9822 38.128 37.3742 38.128 36.7768C38.128 36.2328 38 35.8062 37.744 35.4968C37.488 35.1875 37.0933 35.0328 36.56 35.0328C36.0267 35.0328 35.616 35.2142 35.328 35.5768C35.04 35.9288 34.8907 36.4142 34.88 37.0328H32.704C32.7467 35.7528 33.1253 34.7822 33.84 34.1208C34.5653 33.4595 35.4827 33.1288 36.592 33.1288C37.808 33.1288 38.7413 33.4542 39.392 34.1048C40.0427 34.7448 40.368 35.5928 40.368 36.6488C40.368 37.4808 40.144 38.2755 39.696 39.0328C39.248 39.7902 38.736 40.4515 38.16 41.0168C37.584 41.5715 36.832 42.2435 35.904 43.0328H40.624V44.8888H32.72V43.2248L33.552 42.5208ZM42.0355 39.0648C42.0355 37.2195 42.3662 35.7742 43.0275 34.7288C43.6995 33.6835 44.8088 33.1608 46.3555 33.1608C47.9022 33.1608 49.0062 33.6835 49.6675 34.7288C50.3395 35.7742 50.6755 37.2195 50.6755 39.0648C50.6755 40.9208 50.3395 42.3768 49.6675 43.4328C49.0062 44.4888 47.9022 45.0168 46.3555 45.0168C44.8088 45.0168 43.6995 44.4888 43.0275 43.4328C42.3662 42.3768 42.0355 40.9208 42.0355 39.0648ZM48.4675 39.0648C48.4675 38.2755 48.4142 37.6142 48.3075 37.0808C48.2115 36.5368 48.0088 36.0942 47.6995 35.7528C47.4008 35.4115 46.9528 35.2408 46.3555 35.2408C45.7582 35.2408 45.3048 35.4115 44.9955 35.7528C44.6968 36.0942 44.4942 36.5368 44.3875 37.0808C44.2915 37.6142 44.2435 38.2755 44.2435 39.0648C44.2435 39.8755 44.2915 40.5582 44.3875 41.1128C44.4835 41.6568 44.6862 42.0995 44.9955 42.4408C45.3048 42.7715 45.7582 42.9368 46.3555 42.9368C46.9528 42.9368 47.4062 42.7715 47.7155 42.4408C48.0248 42.0995 48.2275 41.6568 48.3235 41.1128C48.4195 40.5582 48.4675 39.8755 48.4675 39.0648ZM59.0558 38.0248V42.3128C59.0558 42.6115 59.1251 42.8302 59.2638 42.9688C59.4131 43.0968 59.6584 43.1608 59.9998 43.1608H61.0398V45.0488H59.6318C57.7438 45.0488 56.7998 44.1315 56.7998 42.2968V38.0248H55.7438V36.1848H56.7998V33.9928H59.0558V36.1848H61.0398V38.0248H59.0558ZM63.7869 35.1288C63.3922 35.1288 63.0615 35.0062 62.7949 34.7608C62.5389 34.5048 62.4109 34.1902 62.4109 33.8168C62.4109 33.4435 62.5389 33.1342 62.7949 32.8888C63.0615 32.6328 63.3922 32.5048 63.7869 32.5048C64.1815 32.5048 64.5069 32.6328 64.7629 32.8888C65.0295 33.1342 65.1629 33.4435 65.1629 33.8168C65.1629 34.1902 65.0295 34.5048 64.7629 34.7608C64.5069 35.0062 64.1815 35.1288 63.7869 35.1288ZM64.8909 36.1848V45.0488H62.6509V36.1848H64.8909ZM78.112 36.0568C79.2 36.0568 80.0747 36.3928 80.736 37.0648C81.408 37.7262 81.744 38.6542 81.744 39.8488V45.0488H79.504V40.1528C79.504 39.4595 79.328 38.9315 78.976 38.5688C78.624 38.1955 78.144 38.0088 77.536 38.0088C76.928 38.0088 76.4427 38.1955 76.08 38.5688C75.728 38.9315 75.552 39.4595 75.552 40.1528V45.0488H73.312V40.1528C73.312 39.4595 73.136 38.9315 72.784 38.5688C72.432 38.1955 71.952 38.0088 71.344 38.0088C70.7253 38.0088 70.2347 38.1955 69.872 38.5688C69.52 38.9315 69.344 39.4595 69.344 40.1528V45.0488H67.104V36.1848H69.344V37.2568C69.632 36.8835 70 36.5902 70.448 36.3768C70.9067 36.1635 71.408 36.0568 71.952 36.0568C72.6453 36.0568 73.264 36.2062 73.808 36.5048C74.352 36.7928 74.7733 37.2088 75.072 37.7528C75.36 37.2408 75.776 36.8302 76.32 36.5208C76.8747 36.2115 77.472 36.0568 78.112 36.0568ZM92.1096 40.4248C92.1096 40.7448 92.0883 41.0328 92.0456 41.2888H85.5656C85.619 41.9288 85.843 42.4302 86.2376 42.7928C86.6323 43.1555 87.1176 43.3368 87.6936 43.3368C88.5256 43.3368 89.1176 42.9795 89.4696 42.2648H91.8856C91.6296 43.1182 91.139 43.8222 90.4136 44.3768C89.6883 44.9208 88.7976 45.1928 87.7416 45.1928C86.8883 45.1928 86.1203 45.0062 85.4376 44.6328C84.7656 44.2488 84.2376 43.7102 83.8536 43.0168C83.4803 42.3235 83.2936 41.5235 83.2936 40.6168C83.2936 39.6995 83.4803 38.8942 83.8536 38.2008C84.227 37.5075 84.7496 36.9742 85.4216 36.6008C86.0936 36.2275 86.867 36.0408 87.7416 36.0408C88.5843 36.0408 89.3363 36.2222 89.9976 36.5848C90.6696 36.9475 91.187 37.4648 91.5496 38.1368C91.923 38.7982 92.1096 39.5608 92.1096 40.4248ZM89.7896 39.7848C89.779 39.2088 89.571 38.7502 89.1656 38.4088C88.7603 38.0568 88.2643 37.8808 87.6776 37.8808C87.123 37.8808 86.6536 38.0515 86.2696 38.3928C85.8963 38.7235 85.667 39.1875 85.5816 39.7848H89.7896ZM97.1366 45.1928C96.4113 45.1928 95.7606 45.0648 95.1846 44.8088C94.6086 44.5422 94.15 44.1848 93.8086 43.7368C93.478 43.2888 93.2966 42.7928 93.2646 42.2488H95.5206C95.5633 42.5902 95.7286 42.8728 96.0166 43.0968C96.3153 43.3208 96.6833 43.4328 97.1206 43.4328C97.5473 43.4328 97.878 43.3475 98.1126 43.1768C98.358 43.0062 98.4806 42.7875 98.4806 42.5208C98.4806 42.2328 98.3313 42.0195 98.0326 41.8808C97.7446 41.7315 97.2806 41.5715 96.6406 41.4008C95.9793 41.2408 95.4353 41.0755 95.0086 40.9048C94.5926 40.7342 94.23 40.4728 93.9206 40.1208C93.622 39.7688 93.4726 39.2942 93.4726 38.6968C93.4726 38.2062 93.6113 37.7582 93.8886 37.3528C94.1766 36.9475 94.582 36.6275 95.1046 36.3928C95.638 36.1582 96.262 36.0408 96.9766 36.0408C98.0326 36.0408 98.8753 36.3075 99.5046 36.8408C100.134 37.3635 100.481 38.0728 100.545 38.9688H98.4006C98.3686 38.6168 98.2193 38.3395 97.9526 38.1368C97.6966 37.9235 97.35 37.8168 96.9126 37.8168C96.5073 37.8168 96.1926 37.8915 95.9686 38.0408C95.7553 38.1902 95.6486 38.3982 95.6486 38.6648C95.6486 38.9635 95.798 39.1928 96.0966 39.3528C96.3953 39.5022 96.8593 39.6568 97.4886 39.8168C98.1286 39.9768 98.6566 40.1422 99.0726 40.3128C99.4886 40.4835 99.846 40.7502 100.145 41.1128C100.454 41.4648 100.614 41.9342 100.625 42.5208C100.625 43.0328 100.481 43.4915 100.193 43.8968C99.9153 44.3022 99.51 44.6222 98.9766 44.8568C98.454 45.0808 97.8406 45.1928 97.1366 45.1928ZM110.34 38.0248H108.788V45.0488H106.516V38.0248H105.508V36.1848H106.516V35.7368C106.516 34.6488 106.825 33.8488 107.444 33.3368C108.063 32.8248 108.996 32.5848 110.244 32.6168V34.5048C109.7 34.4942 109.321 34.5848 109.108 34.7768C108.895 34.9688 108.788 35.3155 108.788 35.8168V36.1848H110.34V38.0248ZM115.728 45.1928C114.874 45.1928 114.106 45.0062 113.424 44.6328C112.741 44.2488 112.202 43.7102 111.808 43.0168C111.424 42.3235 111.232 41.5235 111.232 40.6168C111.232 39.7102 111.429 38.9102 111.824 38.2168C112.229 37.5235 112.778 36.9902 113.472 36.6168C114.165 36.2328 114.938 36.0408 115.792 36.0408C116.645 36.0408 117.418 36.2328 118.112 36.6168C118.805 36.9902 119.349 37.5235 119.744 38.2168C120.149 38.9102 120.352 39.7102 120.352 40.6168C120.352 41.5235 120.144 42.3235 119.727 43.0168C119.322 43.7102 118.768 44.2488 118.064 44.6328C117.37 45.0062 116.592 45.1928 115.728 45.1928ZM115.728 43.2408C116.133 43.2408 116.512 43.1448 116.864 42.9528C117.226 42.7502 117.514 42.4515 117.728 42.0568C117.941 41.6622 118.048 41.1822 118.048 40.6168C118.048 39.7742 117.824 39.1288 117.376 38.6808C116.938 38.2222 116.4 37.9928 115.76 37.9928C115.12 37.9928 114.581 38.2222 114.144 38.6808C113.717 39.1288 113.504 39.7742 113.504 40.6168C113.504 41.4595 113.712 42.1102 114.128 42.5688C114.554 43.0168 115.088 43.2408 115.728 43.2408ZM124.235 37.5608C124.523 37.0915 124.896 36.7235 125.355 36.4568C125.824 36.1902 126.357 36.0568 126.955 36.0568V38.4088H126.363C125.659 38.4088 125.125 38.5742 124.763 38.9048C124.411 39.2355 124.235 39.8115 124.235 40.6328V45.0488H121.995V36.1848H124.235V37.5608ZM134.516 33.8808V45.0488H132.276V33.8808H134.516ZM149.022 36.1848L143.534 49.2408H141.15L143.07 44.8248L139.518 36.1848H142.03L144.318 42.3768L146.638 36.1848H149.022ZM158.469 40.4248C158.469 40.7448 158.448 41.0328 158.405 41.2888H151.925C151.978 41.9288 152.202 42.4302 152.597 42.7928C152.992 43.1555 153.477 43.3368 154.053 43.3368C154.885 43.3368 155.477 42.9795 155.829 42.2648H158.245C157.989 43.1182 157.498 43.8222 156.773 44.3768C156.048 44.9208 155.157 45.1928 154.101 45.1928C153.248 45.1928 152.48 45.0062 151.797 44.6328C151.125 44.2488 150.597 43.7102 150.213 43.0168C149.84 42.3235 149.653 41.5235 149.653 40.6168C149.653 39.6995 149.84 38.8942 150.213 38.2008C150.586 37.5075 151.109 36.9742 151.781 36.6008C152.453 36.2275 153.226 36.0408 154.101 36.0408C154.944 36.0408 155.696 36.2222 156.357 36.5848C157.029 36.9475 157.546 37.4648 157.909 38.1368C158.282 38.7982 158.469 39.5608 158.469 40.4248ZM156.149 39.7848C156.138 39.2088 155.93 38.7502 155.525 38.4088C155.12 38.0568 154.624 37.8808 154.037 37.8808C153.482 37.8808 153.013 38.0515 152.629 38.3928C152.256 38.7235 152.026 39.1875 151.941 39.7848H156.149ZM159.528 40.5848C159.528 39.6888 159.704 38.8942 160.056 38.2008C160.419 37.5075 160.904 36.9742 161.512 36.6008C162.131 36.2275 162.819 36.0408 163.576 36.0408C164.237 36.0408 164.813 36.1742 165.304 36.4408C165.805 36.7075 166.205 37.0435 166.504 37.4488V36.1848H168.76V45.0488H166.504V43.7528C166.216 44.1688 165.816 44.5155 165.304 44.7928C164.803 45.0595 164.221 45.1928 163.56 45.1928C162.813 45.1928 162.131 45.0008 161.512 44.6168C160.904 44.2328 160.419 43.6942 160.056 43.0008C159.704 42.2968 159.528 41.4915 159.528 40.5848ZM166.504 40.6168C166.504 40.0728 166.397 39.6088 166.184 39.2248C165.971 38.8302 165.683 38.5315 165.32 38.3288C164.957 38.1155 164.568 38.0088 164.152 38.0088C163.736 38.0088 163.352 38.1102 163 38.3128C162.648 38.5155 162.36 38.8142 162.136 39.2088C161.923 39.5928 161.816 40.0515 161.816 40.5848C161.816 41.1182 161.923 41.5875 162.136 41.9928C162.36 42.3875 162.648 42.6915 163 42.9048C163.363 43.1182 163.747 43.2248 164.152 43.2248C164.568 43.2248 164.957 43.1235 165.32 42.9208C165.683 42.7075 165.971 42.4088 166.184 42.0248C166.397 41.6302 166.504 41.1608 166.504 40.6168Z" fill="white"/>
<circle cx="11" cy="15.0488" r="11" fill="white"/>
<path d="M16.5 11.3818L8.9375 18.9443L5.5 15.5068" stroke="#186AB5" stroke-width="1.5" stroke-linecap="round" stroke-linejoin="round"/>
<path d="M39.952 83.9208H35.504L34.768 86.0488H32.416L36.432 74.8648H39.04L43.056 86.0488H40.688L39.952 83.9208ZM39.344 82.1288L37.728 77.4568L36.112 82.1288H39.344ZM43.9811 81.5848C43.9811 80.6888 44.1571 79.8942 44.5091 79.2008C44.8718 78.5075 45.3625 77.9742 45.9811 77.6008C46.5998 77.2275 47.2878 77.0408 48.0451 77.0408C48.6211 77.0408 49.1705 77.1688 49.6931 77.4248C50.2158 77.6702 50.6318 78.0008 50.9411 78.4168V74.2088H53.2131V86.0488H50.9411V84.7368C50.6638 85.1742 50.2745 85.5262 49.7731 85.7928C49.2718 86.0595 48.6905 86.1928 48.0291 86.1928C47.2825 86.1928 46.5998 86.0008 45.9811 85.6168C45.3625 85.2328 44.8718 84.6942 44.5091 84.0008C44.1571 83.2968 43.9811 82.4915 43.9811 81.5848ZM50.9571 81.6168C50.9571 81.0728 50.8505 80.6088 50.6371 80.2248C50.4238 79.8302 50.1358 79.5315 49.7731 79.3288C49.4105 79.1155 49.0211 79.0088 48.6051 79.0088C48.1891 79.0088 47.8051 79.1102 47.4531 79.3128C47.1011 79.5155 46.8131 79.8142 46.5891 80.2088C46.3758 80.5928 46.2691 81.0515 46.2691 81.5848C46.2691 82.1182 46.3758 82.5875 46.5891 82.9928C46.8131 83.3875 47.1011 83.6915 47.4531 83.9048C47.8158 84.1182 48.1998 84.2248 48.6051 84.2248C49.0211 84.2248 49.4105 84.1235 49.7731 83.9208C50.1358 83.7075 50.4238 83.4088 50.6371 83.0248C50.8505 82.6302 50.9571 82.1608 50.9571 81.6168ZM54.8249 81.5848C54.8249 80.6888 55.0009 79.8942 55.3529 79.2008C55.7155 78.5075 56.2062 77.9742 56.8249 77.6008C57.4435 77.2275 58.1315 77.0408 58.8889 77.0408C59.4649 77.0408 60.0142 77.1688 60.5369 77.4248C61.0595 77.6702 61.4755 78.0008 61.7849 78.4168V74.2088H64.0569V86.0488H61.7849V84.7368C61.5075 85.1742 61.1182 85.5262 60.6169 85.7928C60.1155 86.0595 59.5342 86.1928 58.8729 86.1928C58.1262 86.1928 57.4435 86.0008 56.8249 85.6168C56.2062 85.2328 55.7155 84.6942 55.3529 84.0008C55.0009 83.2968 54.8249 82.4915 54.8249 81.5848ZM61.8009 81.6168C61.8009 81.0728 61.6942 80.6088 61.4809 80.2248C61.2675 79.8302 60.9795 79.5315 60.6169 79.3288C60.2542 79.1155 59.8649 79.0088 59.4489 79.0088C59.0329 79.0088 58.6489 79.1102 58.2969 79.3128C57.9449 79.5155 57.6569 79.8142 57.4329 80.2088C57.2195 80.5928 57.1129 81.0515 57.1129 81.5848C57.1129 82.1182 57.2195 82.5875 57.4329 82.9928C57.6569 83.3875 57.9449 83.6915 58.2969 83.9048C58.6595 84.1182 59.0435 84.2248 59.4489 84.2248C59.8649 84.2248 60.2542 84.1235 60.6169 83.9208C60.9795 83.7075 61.2675 83.4088 61.4809 83.0248C61.6942 82.6302 61.8009 82.1608 61.8009 81.6168ZM74.1211 79.0248H72.5691V86.0488H70.2971V79.0248H69.2891V77.1848H70.2971V76.7368C70.2971 75.6488 70.6065 74.8488 71.2251 74.3368C71.8438 73.8248 72.7771 73.5848 74.0251 73.6168V75.5048C73.4811 75.4942 73.1025 75.5848 72.8891 75.7768C72.6758 75.9688 72.5691 76.3155 72.5691 76.8168V77.1848H74.1211V79.0248ZM77.8128 78.5608C78.1008 78.0915 78.4741 77.7235 78.9328 77.4568C79.4021 77.1902 79.9354 77.0568 80.5328 77.0568V79.4088H79.9408C79.2368 79.4088 78.7034 79.5742 78.3408 79.9048C77.9888 80.2355 77.8128 80.8115 77.8128 81.6328V86.0488H75.5728V77.1848H77.8128V78.5608ZM83.1775 76.1288C82.7828 76.1288 82.4522 76.0062 82.1855 75.7608C81.9295 75.5048 81.8015 75.1902 81.8015 74.8168C81.8015 74.4435 81.9295 74.1342 82.1855 73.8888C82.4522 73.6328 82.7828 73.5048 83.1775 73.5048C83.5722 73.5048 83.8975 73.6328 84.1535 73.8888C84.4202 74.1342 84.5535 74.4435 84.5535 74.8168C84.5535 75.1902 84.4202 75.5048 84.1535 75.7608C83.8975 76.0062 83.5722 76.1288 83.1775 76.1288ZM84.2815 77.1848V86.0488H82.0415V77.1848H84.2815ZM94.7346 81.4248C94.7346 81.7448 94.7133 82.0328 94.6706 82.2888H88.1906C88.244 82.9288 88.468 83.4302 88.8626 83.7928C89.2573 84.1555 89.7426 84.3368 90.3186 84.3368C91.1506 84.3368 91.7426 83.9795 92.0946 83.2648H94.5106C94.2546 84.1182 93.764 84.8222 93.0386 85.3768C92.3133 85.9208 91.4226 86.1928 90.3666 86.1928C89.5133 86.1928 88.7453 86.0062 88.0626 85.6328C87.3906 85.2488 86.8626 84.7102 86.4786 84.0168C86.1053 83.3235 85.9186 82.5235 85.9186 81.6168C85.9186 80.6995 86.1053 79.8942 86.4786 79.2008C86.852 78.5075 87.3746 77.9742 88.0466 77.6008C88.7186 77.2275 89.492 77.0408 90.3666 77.0408C91.2093 77.0408 91.9613 77.2222 92.6226 77.5848C93.2946 77.9475 93.812 78.4648 94.1746 79.1368C94.548 79.7982 94.7346 80.5608 94.7346 81.4248ZM92.4146 80.7848C92.404 80.2088 92.196 79.7502 91.7906 79.4088C91.3853 79.0568 90.8893 78.8808 90.3026 78.8808C89.748 78.8808 89.2786 79.0515 88.8946 79.3928C88.5213 79.7235 88.292 80.1875 88.2066 80.7848H92.4146ZM101.282 77.0568C102.338 77.0568 103.191 77.3928 103.842 78.0648C104.492 78.7262 104.818 79.6542 104.818 80.8488V86.0488H102.578V81.1528C102.578 80.4488 102.402 79.9102 102.05 79.5368C101.698 79.1528 101.218 78.9608 100.61 78.9608C99.991 78.9608 99.5003 79.1528 99.1376 79.5368C98.7856 79.9102 98.6096 80.4488 98.6096 81.1528V86.0488H96.3696V77.1848H98.6096V78.2888C98.9083 77.9048 99.287 77.6062 99.7456 77.3928C100.215 77.1688 100.727 77.0568 101.282 77.0568ZM106.372 81.5848C106.372 80.6888 106.548 79.8942 106.9 79.2008C107.262 78.5075 107.753 77.9742 108.372 77.6008C108.99 77.2275 109.678 77.0408 110.436 77.0408C111.012 77.0408 111.561 77.1688 112.084 77.4248C112.606 77.6702 113.022 78.0008 113.332 78.4168V74.2088H115.604V86.0488H113.332V84.7368C113.054 85.1742 112.665 85.5262 112.164 85.7928C111.662 86.0595 111.081 86.1928 110.42 86.1928C109.673 86.1928 108.99 86.0008 108.372 85.6168C107.753 85.2328 107.262 84.6942 106.9 84.0008C106.548 83.2968 106.372 82.4915 106.372 81.5848ZM113.348 81.6168C113.348 81.0728 113.241 80.6088 113.028 80.2248C112.814 79.8302 112.526 79.5315 112.164 79.3288C111.801 79.1155 111.412 79.0088 110.996 79.0088C110.58 79.0088 110.196 79.1102 109.844 79.3128C109.492 79.5155 109.204 79.8142 108.98 80.2088C108.766 80.5928 108.66 81.0515 108.66 81.5848C108.66 82.1182 108.766 82.5875 108.98 82.9928C109.204 83.3875 109.492 83.6915 109.844 83.9048C110.206 84.1182 110.59 84.2248 110.996 84.2248C111.412 84.2248 111.801 84.1235 112.164 83.9208C112.526 83.7075 112.814 83.4088 113.028 83.0248C113.241 82.6302 113.348 82.1608 113.348 81.6168ZM121.184 86.1928C120.458 86.1928 119.808 86.0648 119.232 85.8088C118.656 85.5422 118.197 85.1848 117.856 84.7368C117.525 84.2888 117.344 83.7928 117.312 83.2488H119.568C119.61 83.5902 119.776 83.8728 120.064 84.0968C120.362 84.3208 120.73 84.4328 121.168 84.4328C121.594 84.4328 121.925 84.3475 122.16 84.1768C122.405 84.0062 122.528 83.7875 122.528 83.5208C122.528 83.2328 122.378 83.0195 122.08 82.8808C121.792 82.7315 121.328 82.5715 120.688 82.4008C120.026 82.2408 119.482 82.0755 119.056 81.9048C118.64 81.7342 118.277 81.4728 117.968 81.1208C117.669 80.7688 117.52 80.2942 117.52 79.6968C117.52 79.2062 117.658 78.7582 117.936 78.3528C118.224 77.9475 118.629 77.6275 119.152 77.3928C119.685 77.1582 120.309 77.0408 121.024 77.0408C122.08 77.0408 122.922 77.3075 123.552 77.8408C124.181 78.3635 124.528 79.0728 124.592 79.9688H122.448C122.416 79.6168 122.266 79.3395 122 79.1368C121.744 78.9235 121.397 78.8168 120.96 78.8168C120.554 78.8168 120.24 78.8915 120.016 79.0408C119.802 79.1902 119.696 79.3982 119.696 79.6648C119.696 79.9635 119.845 80.1928 120.144 80.3528C120.442 80.5022 120.906 80.6568 121.536 80.8168C122.176 80.9768 122.704 81.1422 123.12 81.3128C123.536 81.4835 123.893 81.7502 124.192 82.1128C124.501 82.4648 124.661 82.9342 124.672 83.5208C124.672 84.0328 124.528 84.4915 124.24 84.8968C123.962 85.3022 123.557 85.6222 123.024 85.8568C122.501 86.0808 121.888 86.1928 121.184 86.1928ZM134.387 79.0248H132.835V86.0488H130.563V79.0248H129.555V77.1848H130.563V76.7368C130.563 75.6488 130.872 74.8488 131.491 74.3368C132.109 73.8248 133.043 73.5848 134.291 73.6168V75.5048C133.747 75.4942 133.368 75.5848 133.155 75.7768C132.941 75.9688 132.835 76.3155 132.835 76.8168V77.1848H134.387V79.0248ZM139.774 86.1928C138.921 86.1928 138.153 86.0062 137.47 85.6328C136.788 85.2488 136.249 84.7102 135.854 84.0168C135.47 83.3235 135.278 82.5235 135.278 81.6168C135.278 80.7102 135.476 79.9102 135.87 79.2168C136.276 78.5235 136.825 77.9902 137.518 77.6168C138.212 77.2328 138.985 77.0408 139.838 77.0408C140.692 77.0408 141.465 77.2328 142.158 77.6168C142.852 77.9902 143.396 78.5235 143.79 79.2168C144.196 79.9102 144.398 80.7102 144.398 81.6168C144.398 82.5235 144.19 83.3235 143.774 84.0168C143.369 84.7102 142.814 85.2488 142.11 85.6328C141.417 86.0062 140.638 86.1928 139.774 86.1928ZM139.774 84.2408C140.18 84.2408 140.558 84.1448 140.91 83.9528C141.273 83.7502 141.561 83.4515 141.774 83.0568C141.988 82.6622 142.094 82.1822 142.094 81.6168C142.094 80.7742 141.87 80.1288 141.422 79.6808C140.985 79.2222 140.446 78.9928 139.806 78.9928C139.166 78.9928 138.628 79.2222 138.19 79.6808C137.764 80.1288 137.55 80.7742 137.55 81.6168C137.55 82.4595 137.758 83.1102 138.174 83.5688C138.601 84.0168 139.134 84.2408 139.774 84.2408ZM148.282 78.5608C148.57 78.0915 148.943 77.7235 149.402 77.4568C149.871 77.1902 150.404 77.0568 151.002 77.0568V79.4088H150.41C149.706 79.4088 149.172 79.5742 148.81 79.9048C148.458 80.2355 148.282 80.8115 148.282 81.6328V86.0488H146.042V77.1848H148.282V78.5608ZM160.387 79.0248H158.835V86.0488H156.563V79.0248H155.555V77.1848H156.563V76.7368C156.563 75.6488 156.872 74.8488 157.491 74.3368C158.109 73.8248 159.043 73.5848 160.291 73.6168V75.5048C159.747 75.4942 159.368 75.5848 159.155 75.7768C158.941 75.9688 158.835 76.3155 158.835 76.8168V77.1848H160.387V79.0248ZM164.078 78.5608C164.366 78.0915 164.74 77.7235 165.198 77.4568C165.668 77.1902 166.201 77.0568 166.798 77.0568V79.4088H166.206C165.502 79.4088 164.969 79.5742 164.606 79.9048C164.254 80.2355 164.078 80.8115 164.078 81.6328V86.0488H161.838V77.1848H164.078V78.5608ZM176.547 81.4248C176.547 81.7448 176.526 82.0328 176.483 82.2888H170.003C170.056 82.9288 170.28 83.4302 170.675 83.7928C171.07 84.1555 171.555 84.3368 172.131 84.3368C172.963 84.3368 173.555 83.9795 173.907 83.2648H176.323C176.067 84.1182 175.576 84.8222 174.851 85.3768C174.126 85.9208 173.235 86.1928 172.179 86.1928C171.326 86.1928 170.558 86.0062 169.875 85.6328C169.203 85.2488 168.675 84.7102 168.291 84.0168C167.918 83.3235 167.731 82.5235 167.731 81.6168C167.731 80.6995 167.918 79.8942 168.291 79.2008C168.664 78.5075 169.187 77.9742 169.859 77.6008C170.531 77.2275 171.304 77.0408 172.179 77.0408C173.022 77.0408 173.774 77.2222 174.435 77.5848C175.107 77.9475 175.624 78.4648 175.987 79.1368C176.36 79.7982 176.547 80.5608 176.547 81.4248ZM174.227 80.7848C174.216 80.2088 174.008 79.7502 173.603 79.4088C173.198 79.0568 172.702 78.8808 172.115 78.8808C171.56 78.8808 171.091 79.0515 170.707 79.3928C170.334 79.7235 170.104 80.1875 170.019 80.7848H174.227ZM186.422 81.4248C186.422 81.7448 186.401 82.0328 186.358 82.2888H179.878C179.931 82.9288 180.155 83.4302 180.55 83.7928C180.945 84.1555 181.43 84.3368 182.006 84.3368C182.838 84.3368 183.43 83.9795 183.782 83.2648H186.198C185.942 84.1182 185.451 84.8222 184.726 85.3768C184.001 85.9208 183.11 86.1928 182.054 86.1928C181.201 86.1928 180.433 86.0062 179.75 85.6328C179.078 85.2488 178.55 84.7102 178.166 84.0168C177.793 83.3235 177.606 82.5235 177.606 81.6168C177.606 80.6995 177.793 79.8942 178.166 79.2008C178.539 78.5075 179.062 77.9742 179.734 77.6008C180.406 77.2275 181.179 77.0408 182.054 77.0408C182.897 77.0408 183.649 77.2222 184.31 77.5848C184.982 77.9475 185.499 78.4648 185.862 79.1368C186.235 79.7982 186.422 80.5608 186.422 81.4248ZM184.102 80.7848C184.091 80.2088 183.883 79.7502 183.478 79.4088C183.073 79.0568 182.577 78.8808 181.99 78.8808C181.435 78.8808 180.966 79.0515 180.582 79.3928C180.209 79.7235 179.979 80.1875 179.894 80.7848H184.102ZM37.168 105.025H35.616V112.049H33.344V105.025H32.336V103.185H33.344V102.737C33.344 101.649 33.6533 100.849 34.272 100.337C34.8907 99.8248 35.824 99.5848 37.072 99.6168V101.505C36.528 101.494 36.1493 101.585 35.936 101.777C35.7227 101.969 35.616 102.315 35.616 102.817V103.185H37.168V105.025ZM42.5556 112.193C41.7023 112.193 40.9343 112.006 40.2516 111.633C39.569 111.249 39.0303 110.71 38.6356 110.017C38.2516 109.323 38.0596 108.523 38.0596 107.617C38.0596 106.71 38.257 105.91 38.6516 105.217C39.057 104.523 39.6063 103.99 40.2996 103.617C40.993 103.233 41.7663 103.041 42.6196 103.041C43.473 103.041 44.2463 103.233 44.9396 103.617C45.633 103.99 46.177 104.523 46.5716 105.217C46.977 105.91 47.1796 106.71 47.1796 107.617C47.1796 108.523 46.9716 109.323 46.5556 110.017C46.1503 110.71 45.5956 111.249 44.8916 111.633C44.1983 112.006 43.4196 112.193 42.5556 112.193ZM42.5556 110.241C42.961 110.241 43.3396 110.145 43.6916 109.953C44.0543 109.75 44.3423 109.451 44.5556 109.057C44.769 108.662 44.8756 108.182 44.8756 107.617C44.8756 106.774 44.6516 106.129 44.2036 105.681C43.7663 105.222 43.2276 104.993 42.5876 104.993C41.9476 104.993 41.409 105.222 40.9716 105.681C40.545 106.129 40.3316 106.774 40.3316 107.617C40.3316 108.459 40.5396 109.11 40.9556 109.569C41.3823 110.017 41.9156 110.241 42.5556 110.241ZM51.0628 104.561C51.3508 104.091 51.7241 103.723 52.1828 103.457C52.6521 103.19 53.1854 103.057 53.7828 103.057V105.409H53.1908C52.4868 105.409 51.9534 105.574 51.5908 105.905C51.2388 106.235 51.0628 106.811 51.0628 107.633V112.049H48.8228V103.185H51.0628V104.561ZM58.576 102.449V100.385H62.432V112.049H60.128V102.449H58.576ZM75.9089 103.057C76.9969 103.057 77.8715 103.393 78.5329 104.065C79.2049 104.726 79.5409 105.654 79.5409 106.849V112.049H77.3009V107.153C77.3009 106.459 77.1249 105.931 76.7729 105.569C76.4209 105.195 75.9409 105.009 75.3329 105.009C74.7249 105.009 74.2395 105.195 73.8769 105.569C73.5249 105.931 73.3489 106.459 73.3489 107.153V112.049H71.1089V107.153C71.1089 106.459 70.9329 105.931 70.5809 105.569C70.2289 105.195 69.7489 105.009 69.1409 105.009C68.5222 105.009 68.0315 105.195 67.6689 105.569C67.3169 105.931 67.1409 106.459 67.1409 107.153V112.049H64.9009V103.185H67.1409V104.257C67.4289 103.883 67.7969 103.59 68.2449 103.377C68.7035 103.163 69.2049 103.057 69.7489 103.057C70.4422 103.057 71.0609 103.206 71.6049 103.505C72.1489 103.793 72.5702 104.209 72.8689 104.753C73.1569 104.241 73.5729 103.83 74.1169 103.521C74.6715 103.211 75.2689 103.057 75.9089 103.057ZM85.6025 112.193C84.7492 112.193 83.9812 112.006 83.2985 111.633C82.6158 111.249 82.0772 110.71 81.6825 110.017C81.2985 109.323 81.1065 108.523 81.1065 107.617C81.1065 106.71 81.3038 105.91 81.6985 105.217C82.1038 104.523 82.6532 103.99 83.3465 103.617C84.0398 103.233 84.8132 103.041 85.6665 103.041C86.5198 103.041 87.2932 103.233 87.9865 103.617C88.6798 103.99 89.2238 104.523 89.6185 105.217C90.0238 105.91 90.2265 106.71 90.2265 107.617C90.2265 108.523 90.0185 109.323 89.6025 110.017C89.1972 110.71 88.6425 111.249 87.9385 111.633C87.2452 112.006 86.4665 112.193 85.6025 112.193ZM85.6025 110.241C86.0078 110.241 86.3865 110.145 86.7385 109.953C87.1012 109.75 87.3892 109.451 87.6025 109.057C87.8158 108.662 87.9225 108.182 87.9225 107.617C87.9225 106.774 87.6985 106.129 87.2505 105.681C86.8132 105.222 86.2745 104.993 85.6345 104.993C84.9945 104.993 84.4558 105.222 84.0185 105.681C83.5918 106.129 83.3785 106.774 83.3785 107.617C83.3785 108.459 83.5865 109.11 84.0025 109.569C84.4292 110.017 84.9625 110.241 85.6025 110.241ZM96.7816 103.057C97.8376 103.057 98.691 103.393 99.3416 104.065C99.9923 104.726 100.318 105.654 100.318 106.849V112.049H98.0776V107.153C98.0776 106.449 97.9016 105.91 97.5496 105.537C97.1976 105.153 96.7176 104.961 96.1096 104.961C95.491 104.961 95.0003 105.153 94.6376 105.537C94.2856 105.91 94.1096 106.449 94.1096 107.153V112.049H91.8696V103.185H94.1096V104.289C94.4083 103.905 94.787 103.606 95.2456 103.393C95.715 103.169 96.227 103.057 96.7816 103.057ZM105.056 105.025V109.313C105.056 109.611 105.125 109.83 105.264 109.969C105.413 110.097 105.658 110.161 106 110.161H107.04V112.049H105.632C103.744 112.049 102.8 111.131 102.8 109.297V105.025H101.744V103.185H102.8V100.993H105.056V103.185H107.04V105.025H105.056ZM113.643 103.057C114.315 103.057 114.912 103.206 115.435 103.505C115.958 103.793 116.363 104.225 116.651 104.801C116.95 105.366 117.099 106.049 117.099 106.849V112.049H114.859V107.153C114.859 106.449 114.683 105.91 114.331 105.537C113.979 105.153 113.499 104.961 112.891 104.961C112.272 104.961 111.782 105.153 111.419 105.537C111.067 105.91 110.891 106.449 110.891 107.153V112.049H108.651V100.209H110.891V104.289C111.179 103.905 111.563 103.606 112.043 103.393C112.523 103.169 113.056 103.057 113.643 103.057Z" fill="white"/>
<circle cx="11" cy="81.0488" r="11" fill="white"/>
<path d="M16.5 77.3818L8.9375 84.9443L5.5 81.5068" stroke="#1663AB" stroke-width="1.5" stroke-linecap="round" stroke-linejoin="round"/>
<path d="M40 141.881V143.689H35.344V146.553H38.912V148.329H35.344V153.049H33.104V141.881H40ZM43.8284 145.561C44.1164 145.091 44.4897 144.723 44.9484 144.457C45.4177 144.19 45.951 144.057 46.5484 144.057V146.409H45.9564C45.2524 146.409 44.719 146.574 44.3564 146.905C44.0044 147.235 43.8284 147.811 43.8284 148.633V153.049H41.5884V144.185H43.8284V145.561ZM56.2971 148.425C56.2971 148.745 56.2758 149.033 56.2331 149.289H49.7531C49.8065 149.929 50.0305 150.43 50.4251 150.793C50.8198 151.155 51.3051 151.337 51.8811 151.337C52.7131 151.337 53.3051 150.979 53.6571 150.265H56.0731C55.8171 151.118 55.3265 151.822 54.6011 152.377C53.8758 152.921 52.9851 153.193 51.9291 153.193C51.0758 153.193 50.3078 153.006 49.6251 152.633C48.9531 152.249 48.4251 151.71 48.0411 151.017C47.6678 150.323 47.4811 149.523 47.4811 148.617C47.4811 147.699 47.6678 146.894 48.0411 146.201C48.4145 145.507 48.9371 144.974 49.6091 144.601C50.2811 144.227 51.0545 144.041 51.9291 144.041C52.7718 144.041 53.5238 144.222 54.1851 144.585C54.8571 144.947 55.3745 145.465 55.7371 146.137C56.1105 146.798 56.2971 147.561 56.2971 148.425ZM53.9771 147.785C53.9665 147.209 53.7585 146.75 53.3531 146.409C52.9478 146.057 52.4518 145.881 51.8651 145.881C51.3105 145.881 50.8411 146.051 50.4571 146.393C50.0838 146.723 49.8545 147.187 49.7691 147.785H53.9771ZM66.1721 148.425C66.1721 148.745 66.1508 149.033 66.1081 149.289H59.6281C59.6815 149.929 59.9055 150.43 60.3001 150.793C60.6948 151.155 61.1801 151.337 61.7561 151.337C62.5881 151.337 63.1801 150.979 63.5321 150.265H65.9481C65.6921 151.118 65.2015 151.822 64.4761 152.377C63.7508 152.921 62.8601 153.193 61.8041 153.193C60.9508 153.193 60.1828 153.006 59.5001 152.633C58.8281 152.249 58.3001 151.71 57.9161 151.017C57.5428 150.323 57.3561 149.523 57.3561 148.617C57.3561 147.699 57.5428 146.894 57.9161 146.201C58.2895 145.507 58.8121 144.974 59.4841 144.601C60.1561 144.227 60.9295 144.041 61.8041 144.041C62.6468 144.041 63.3988 144.222 64.0601 144.585C64.7321 144.947 65.2495 145.465 65.6121 146.137C65.9855 146.798 66.1721 147.561 66.1721 148.425ZM63.8521 147.785C63.8415 147.209 63.6335 146.75 63.2281 146.409C62.8228 146.057 62.3268 145.881 61.7401 145.881C61.1855 145.881 60.7161 146.051 60.3321 146.393C59.9588 146.723 59.7295 147.187 59.6441 147.785H63.8521ZM79.2036 143.321H74.0196V146.057C74.2436 145.779 74.5636 145.555 74.9796 145.385C75.3956 145.203 75.8383 145.113 76.3076 145.113C77.161 145.113 77.8596 145.299 78.4036 145.673C78.9476 146.046 79.3423 146.526 79.5876 147.113C79.833 147.689 79.9556 148.307 79.9556 148.969C79.9556 150.195 79.6036 151.182 78.8996 151.929C78.2063 152.675 77.2143 153.049 75.9236 153.049C74.7076 153.049 73.737 152.745 73.0116 152.137C72.2863 151.529 71.8756 150.734 71.7796 149.753H73.9556C74.0516 150.179 74.265 150.521 74.5956 150.777C74.937 151.033 75.369 151.161 75.8916 151.161C76.521 151.161 76.9956 150.963 77.3156 150.569C77.6356 150.174 77.7956 149.651 77.7956 149.001C77.7956 148.339 77.6303 147.838 77.2996 147.497C76.9796 147.145 76.505 146.969 75.8756 146.969C75.4276 146.969 75.0543 147.081 74.7556 147.305C74.457 147.529 74.2436 147.827 74.1156 148.201H71.9716V141.353H79.2036V143.321ZM89.793 146.025H88.241V153.049H85.969V146.025H84.961V144.185H85.969V143.737C85.969 142.649 86.2783 141.849 86.897 141.337C87.5157 140.825 88.449 140.585 89.697 140.617V142.505C89.153 142.494 88.7743 142.585 88.561 142.777C88.3477 142.969 88.241 143.315 88.241 143.817V144.185H89.793V146.025ZM95.1806 153.193C94.3273 153.193 93.5593 153.006 92.8766 152.633C92.194 152.249 91.6553 151.71 91.2606 151.017C90.8766 150.323 90.6846 149.523 90.6846 148.617C90.6846 147.71 90.882 146.91 91.2766 146.217C91.682 145.523 92.2313 144.99 92.9246 144.617C93.618 144.233 94.3913 144.041 95.2446 144.041C96.098 144.041 96.8713 144.233 97.5646 144.617C98.258 144.99 98.802 145.523 99.1966 146.217C99.602 146.91 99.8046 147.71 99.8046 148.617C99.8046 149.523 99.5966 150.323 99.1806 151.017C98.7753 151.71 98.2206 152.249 97.5166 152.633C96.8233 153.006 96.0446 153.193 95.1806 153.193ZM95.1806 151.241C95.586 151.241 95.9646 151.145 96.3166 150.953C96.6793 150.75 96.9673 150.451 97.1806 150.057C97.394 149.662 97.5006 149.182 97.5006 148.617C97.5006 147.774 97.2766 147.129 96.8286 146.681C96.3913 146.222 95.8526 145.993 95.2126 145.993C94.5726 145.993 94.034 146.222 93.5966 146.681C93.17 147.129 92.9566 147.774 92.9566 148.617C92.9566 149.459 93.1646 150.11 93.5806 150.569C94.0073 151.017 94.5406 151.241 95.1806 151.241ZM106.36 144.057C107.416 144.057 108.269 144.393 108.92 145.065C109.57 145.726 109.896 146.654 109.896 147.849V153.049H107.656V148.153C107.656 147.449 107.48 146.91 107.128 146.537C106.776 146.153 106.296 145.961 105.688 145.961C105.069 145.961 104.578 146.153 104.216 146.537C103.864 146.91 103.688 147.449 103.688 148.153V153.049H101.448V144.185H103.688V145.289C103.986 144.905 104.365 144.606 104.824 144.393C105.293 144.169 105.805 144.057 106.36 144.057ZM114.634 146.025V150.313C114.634 150.611 114.703 150.83 114.842 150.969C114.991 151.097 115.237 151.161 115.578 151.161H116.618V153.049H115.21C113.322 153.049 112.378 152.131 112.378 150.297V146.025H111.322V144.185H112.378V141.993H114.634V144.185H116.618V146.025H114.634ZM121.621 153.193C120.896 153.193 120.245 153.065 119.669 152.809C119.093 152.542 118.634 152.185 118.293 151.737C117.962 151.289 117.781 150.793 117.749 150.249H120.005C120.048 150.59 120.213 150.873 120.501 151.097C120.8 151.321 121.168 151.433 121.605 151.433C122.032 151.433 122.362 151.347 122.597 151.177C122.842 151.006 122.965 150.787 122.965 150.521C122.965 150.233 122.816 150.019 122.517 149.881C122.229 149.731 121.765 149.571 121.125 149.401C120.464 149.241 119.92 149.075 119.493 148.905C119.077 148.734 118.714 148.473 118.405 148.121C118.106 147.769 117.957 147.294 117.957 146.697C117.957 146.206 118.096 145.758 118.373 145.353C118.661 144.947 119.066 144.627 119.589 144.393C120.122 144.158 120.746 144.041 121.461 144.041C122.517 144.041 123.36 144.307 123.989 144.841C124.618 145.363 124.965 146.073 125.029 146.969H122.885C122.853 146.617 122.704 146.339 122.437 146.137C122.181 145.923 121.834 145.817 121.397 145.817C120.992 145.817 120.677 145.891 120.453 146.041C120.24 146.19 120.133 146.398 120.133 146.665C120.133 146.963 120.282 147.193 120.581 147.353C120.88 147.502 121.344 147.657 121.973 147.817C122.613 147.977 123.141 148.142 123.557 148.313C123.973 148.483 124.33 148.75 124.629 149.113C124.938 149.465 125.098 149.934 125.109 150.521C125.109 151.033 124.965 151.491 124.677 151.897C124.4 152.302 123.994 152.622 123.461 152.857C122.938 153.081 122.325 153.193 121.621 153.193Z" fill="white"/>
<circle cx="11" cy="146.049" r="11" fill="white"/>
<path d="M16.5 142.382L8.9375 149.944L5.5 146.507" stroke="#145DA0" stroke-width="1.5" stroke-linecap="round" stroke-linejoin="round"/>
</svg>
