<svg width="90" height="89" viewBox="0 0 90 89" fill="none" xmlns="http://www.w3.org/2000/svg">
<path opacity="0.05" d="M48 2.09766L87.2352 46.6127L42.7202 85.8479L3.48499 41.3329L48 2.09766Z" fill="#1D92FF"/>
<path opacity="0.3" d="M47.6195 1.16874L87.9816 46.9623L42.188 87.3244L1.82589 41.5309L47.6195 1.16874Z" stroke="#002547" stroke-width="0.3"/>
<circle opacity="0.3" cx="47.5" cy="1.54883" r="1.5" fill="#002547"/>
<circle opacity="0.3" cx="42.3008" cy="87.249" r="1" fill="#002547"/>
<circle opacity="0.3" cx="1.5" cy="41.5488" r="1.5" fill="#002547"/>
<circle opacity="0.3" cx="88.5" cy="46.5488" r="1.5" fill="#002547"/>
<path d="M57.9965 54.4575H43.9806V56.7935H57.9965V54.4575ZM53.0384 39.3554L49.733 36.0534L33.2175 52.5712L36.5206 55.8743L53.0384 39.3554ZM44.7783 31.0977L38.171 37.7038L41.4764 41.0092L48.0802 34.3984L44.7783 31.0977ZM54.6969 41.0081L48.0896 47.6154L51.3927 50.9185L58 44.3111L54.6969 41.0081Z" fill="#002547"/>
</svg>
