<svg width="90" height="89" viewBox="0 0 90 89" fill="none" xmlns="http://www.w3.org/2000/svg">
<path opacity="0.05" d="M48 2.09766L87.2352 46.6127L42.7202 85.8479L3.48499 41.3329L48 2.09766Z" fill="#1D92FF"/>
<path opacity="0.3" d="M47.6195 1.16874L87.9816 46.9623L42.188 87.3244L1.82589 41.5309L47.6195 1.16874Z" stroke="#002547" stroke-width="0.3"/>
<circle opacity="0.3" cx="47.5" cy="1.54883" r="1.5" fill="#002547"/>
<circle opacity="0.3" cx="42.3008" cy="87.249" r="1" fill="#002547"/>
<circle opacity="0.3" cx="1.5" cy="41.5488" r="1.5" fill="#002547"/>
<circle opacity="0.3" cx="88.5" cy="46.5488" r="1.5" fill="#002547"/>
<path d="M44.5 36.7227C40.1462 36.7227 36.625 40.2439 36.625 44.5977H38.875C38.875 41.4927 41.395 38.9727 44.5 38.9727C47.605 38.9727 50.125 41.4927 50.125 44.5977H52.375C52.375 40.2439 48.8538 36.7227 44.5 36.7227ZM45.625 47.1739C46.615 46.7352 47.3125 45.7564 47.3125 44.5977C47.3125 43.0452 46.0525 41.7852 44.5 41.7852C42.9475 41.7852 41.6875 43.0452 41.6875 44.5977C41.6875 45.7452 42.385 46.7352 43.375 47.1739V50.8864L39.5388 54.7227L41.125 56.3089L44.5 52.9339L47.875 56.3089L49.4613 54.7227L45.625 50.8864V47.1739ZM44.5 32.2227C37.6712 32.2227 32.125 37.7689 32.125 44.5977H34.375C34.375 39.0064 38.9088 34.4727 44.5 34.4727C50.0912 34.4727 54.625 39.0064 54.625 44.5977H56.875C56.875 37.7689 51.3288 32.2227 44.5 32.2227Z" fill="#002547"/>
</svg>
